SplineFontDB: 3.0
FontName: Muli-ExtraLight
FullName: Muli ExtraLight
FamilyName: Muli
Weight: ExtraLight
Copyright: Digitized data Copyright (c) 2011-2014, vernon adams.
Version: 2
ItalicAngle: 0
UnderlinePosition: 0
UnderlineWidth: 0
Ascent: 800
Descent: 200
UFOAscent: 761.719
UFODescent: -271.484
LayerCount: 2
Layer: 0 0 "Back"  1
Layer: 1 0 "Fore"  0
OS2Version: 0
OS2_WeightWidthSlopeOnly: 0
OS2_UseTypoMetrics: 0
CreationTime: 1395088044
ModificationTime: 1395088060
PfmFamily: 0
TTFWeight: 200
TTFWidth: 5
LineGap: 0
VLineGap: 0
OS2TypoAscent: 1178
OS2TypoAOffset: 0
OS2TypoDescent: -296
OS2TypoDOffset: 0
OS2TypoLinegap: 0
OS2WinAscent: 1178
OS2WinAOffset: 0
OS2WinDescent: 296
OS2WinDOffset: 0
HheadAscent: 1178
HheadAOffset: 0
HheadDescent: -296
HheadDOffset: 0
OS2Vendor: 'NeWT'
Lookup: 258 0 0 "'kern' Horizontal Kerning in Latin lookup 0"  {"'kern' Horizontal Kerning in Latin lookup 0 subtable"  } ['kern' ('latn' <'dflt' > ) ]
MarkAttachClasses: 1
DEI: 91125
LangName: 1033 "" "" "" "" "" "Version 2" "" "Muli is a trademark of Vernon Adams and may be registered in certain jurisdictions." "newtypography" "Vernon Adams" "" "newtypography.co.uk" "newtypography.co.uk" "Copyright (c) 2014, vernon adams.+AAoACgAA-This Font Software is licensed under the SIL Open Font License, Version 1.1.+AAoA-This license is available with a FAQ at:+AAoA-http://scripts.sil.org/OFL+AAoA" "http://scripts.sil.org/OFL" "" "Muli" "ExtraLight" 
PickledData: "(dp1
S'com.typemytype.robofont.foreground.layerStrokeColor'
p2
(F0.5
F0
F0.5
F0.69999999999999996
tp3
sS'com.schriftgestaltung.fontMasterID'
p4
S'CAA31E91-2985-420A-82BA-6B4D8404D924'
p5
sS'GSDimensionPlugin.Dimensions'
p6
(dp7
S'CAA31E91-2985-420A-82BA-6B4D8404D924'
p8
(dp9
ssS'com.superpolator.editor.generateInfo'
p10
S'Generated with LTR Superpolator version 120823_1018_beta_'
p11
sS'com.typemytype.robofont.b.layerStrokeColor'
p12
(F1
F0.75
F0
F0.69999999999999996
tp13
sS'com.schriftgestaltung.useNiceNames'
p14
I01

StartChar: A
Encoding: 65 65 0
Width: 648
VWidth: 0
Flags: HW
PickledData: "(dp1
S'org.robofab.postScriptHintData'
p2
(dp3
s."
AnchorPoint: "top" 325 711 basechar 0
LayerCount: 2
Fore
SplineSet
175 231 m 257
 478 231 l 257
 402 449 l 257
 326 667 l 257
 250 449 l 257
 175 231 l 257
33 0 m 257
 292 711 l 257
 357 711 l 257
 616 0 l 257
 561 0 l 257
 491 195 l 257
 162 195 l 257
 92 0 l 257
 33 0 l 257
EndSplineSet
EndChar

StartChar: AE
Encoding: 198 198 1
Width: 908
VWidth: 0
Flags: HW
PickledData: "(dp1
S'org.robofab.postScriptHintData'
p2
(dp3
sS'com.typemytype.robofont.layerData'
p4
(dp5
S'b'
(dp6
S'name'
p7
S'AE'
p8
sS'lib'
p9
(dp10
sS'unicodes'
p11
(tsS'width'
p12
F2073.5500000000002
sS'contours'
p13
(tsS'components'
p14
(tsS'anchors'
p15
(tsss."
AnchorPoint: "top" 618 711 basechar 0
LayerCount: 2
Fore
SplineSet
206 262 m 257
 501 262 l 257
 469 668 l 257
 437 668 l 257
 206 262 l 257
17 0 m 257
 424 711 l 257
 868 711 l 257
 868 668 l 257
 510 668 l 257
 533 389 l 257
 833 389 l 257
 833 351 l 257
 532 351 l 257
 560 41 l 257
 879 41 l 257
 879 0 l 257
 527 0 l 257
 506 224 l 257
 189 224 l 257
 61 0 l 257
 17 0 l 257
EndSplineSet
EndChar

StartChar: B
Encoding: 66 66 18
Width: 660
VWidth: 0
Flags: HW
PickledData: "(dp1
S'org.robofab.postScriptHintData'
p2
(dp3
sS'com.typemytype.robofont.layerData'
p4
(dp5
S'b'
(dp6
S'name'
p7
S'B'
sS'lib'
p8
(dp9
sS'unicodes'
p10
(tsS'width'
p11
F1346.45
sS'contours'
p12
(tsS'components'
p13
(tsS'anchors'
p14
(tsss."
AnchorPoint: "top" 317 711 basechar 0
LayerCount: 2
Fore
SplineSet
163 388 m 257
 333 388 l 258
 462 388 509 439 509 537 c 256
 509 623 445 669 311 669 c 258
 163 669 l 257
 163 388 l 257
162 42 m 257
 354 42 l 258
 479 42 543 92 543 188 c 256
 543 292 488 346 333 346 c 258
 162 346 l 257
 162 42 l 257
109 0 m 257
 109 711 l 257
 311 711 l 258
 479 711 562 651 562 537 c 256
 562 433 511 379 423 370 c 257
 530 361 597 299 597 188 c 256
 597 65 513 0 354 0 c 258
 109 0 l 257
EndSplineSet
EndChar

StartChar: C
Encoding: 67 67 20
Width: 678
VWidth: 0
Flags: HW
PickledData: "(dp1
S'org.robofab.postScriptHintData'
p2
(dp3
sS'com.typemytype.robofont.layerData'
p4
(dp5
S'b'
(dp6
S'name'
p7
S'C'
sS'lib'
p8
(dp9
sS'unicodes'
p10
(tsS'width'
p11
F1394.1500000000001
sS'contours'
p12
((dp13
S'points'
p14
((dp15
S'segmentType'
p16
S'curve'
p17
sS'x'
F785
sS'smooth'
p18
I01
sS'y'
F-23
s(dp19
S'y'
F-23
sS'x'
F346
sg18
I00
s(dp20
S'y'
F309
sS'x'
F108
sg18
I00
s(dp21
g16
S'curve'
p22
sS'x'
F108
sg18
I01
sS'y'
F713
s(dp23
S'y'
F1125
sS'x'
F108
sg18
I00
s(dp24
S'y'
F1483
sS'x'
F371
sg18
I00
s(dp25
g16
S'curve'
p26
sS'x'
F814
sg18
I01
sS'y'
F1483
s(dp27
S'y'
F1483
sS'x'
F995
sg18
I00
s(dp28
S'y'
F1437
sS'x'
F1144
sg18
I00
s(dp29
g16
S'curve'
p30
sS'x'
F1265
sg18
I00
sS'y'
F1329
s(dp31
g16
S'line'
p32
sS'x'
F1200
sg18
I00
sS'y'
F1219
s(dp33
S'y'
F1295
sS'x'
F1099
sg18
I00
s(dp34
S'y'
F1334
sS'x'
F969
sg18
I00
s(dp35
g16
S'curve'
p36
sS'x'
F833
sg18
I01
sS'y'
F1334
s(dp37
S'y'
F1334
sS'x'
F464
sg18
I00
s(dp38
S'y'
F1022
sS'x'
F291
sg18
I00
s(dp39
g16
S'curve'
p40
sS'x'
F291
sg18
I01
sS'y'
F712
s(dp41
S'y'
F398
sS'x'
F291
sg18
I00
s(dp42
S'y'
F125
sS'x'
F453
sg18
I00
s(dp43
g16
S'curve'
p44
sS'x'
F811
sg18
I01
sS'y'
F125
s(dp45
S'y'
F125
sS'x'
F974
sg18
I00
s(dp46
S'y'
F172
sS'x'
F1134
sg18
I00
s(dp47
g16
S'curve'
p48
sS'x'
F1243
sg18
I00
sS'y'
F268
s(dp49
g16
S'line'
p50
sS'x'
F1301
sg18
I00
sS'y'
F127
s(dp51
S'y'
F28
sS'x'
F1178
sg18
I00
s(dp52
S'y'
F-23
sS'x'
F996
sg18
I00
stp53
stp54
sS'components'
p55
(tsS'anchors'
p56
(tsss."
AnchorPoint: "top" 394 711 basechar 0
LayerCount: 2
Fore
SplineSet
396 -11 m 256
 188 -11 54 127 54 342 c 256
 54 574 190 723 402 723 c 256
 484 723 555 699 607 655 c 257
 585 622 l 257
 536 661 472 681 402 681 c 256
 222 681 107 548 107 342 c 256
 107 153 221 32 396 32 c 256
 472 32 543 53 604 93 c 257
 622 56 l 257
 555 12 477 -11 396 -11 c 256
EndSplineSet
EndChar

StartChar: D
Encoding: 68 68 27
Width: 743
VWidth: 0
Flags: HW
PickledData: "(dp1
S'org.robofab.postScriptHintData'
p2
(dp3
sS'com.typemytype.robofont.layerData'
p4
(dp5
S'b'
(dp6
S'name'
p7
S'D'
sS'lib'
p8
(dp9
sS'unicodes'
p10
(tsS'width'
p11
F1526.5999999999999
sS'contours'
p12
(tsS'components'
p13
(tsS'anchors'
p14
(tsss."
AnchorPoint: "top" 361 711 basechar 0
LayerCount: 2
Fore
SplineSet
109 0 m 257
 109 711 l 257
 292 711 l 258
 544 711 677 586 677 348 c 256
 677 120 548 0 303 0 c 258
 109 0 l 257
162 42 m 257
 303 42 l 258
 513 42 624 148 624 348 c 256
 624 558 509 669 292 669 c 258
 162 669 l 257
 162 42 l 257
EndSplineSet
EndChar

StartChar: uni007F
Encoding: 127 127 28
Width: 742
VWidth: 0
Flags: HW
PickledData: "(dp1
S'org.robofab.postScriptHintData'
p2
(dp3
s."
LayerCount: 2
Fore
SplineSet
92 0 m 257
 92 711 l 257
 651 711 l 257
 651 0 l 257
 92 0 l 257
176 61 m 257
 567 61 l 257
 567 649 l 257
 176 649 l 257
 176 61 l 257
EndSplineSet
EndChar

StartChar: uni0394
Encoding: 916 916 32
Width: 633
VWidth: 0
Flags: HW
PickledData: "(dp1
S'org.robofab.postScriptHintData'
p2
(dp3
s."
LayerCount: 2
Fore
SplineSet
67 38 m 257
 564 38 l 257
 315 632 l 257
 67 38 l 257
20 0 m 257
 20 23 l 257
 310 708 l 257
 325 708 l 257
 614 23 l 257
 614 0 l 257
 20 0 l 257
EndSplineSet
EndChar

StartChar: E
Encoding: 69 69 35
Width: 595
VWidth: 0
Flags: HW
PickledData: "(dp1
S'org.robofab.postScriptHintData'
p2
(dp3
s."
AnchorPoint: "top" 312 711 basechar 0
LayerCount: 2
Fore
SplineSet
109 0 m 257
 109 711 l 257
 505 711 l 257
 505 669 l 257
 162 669 l 257
 162 384 l 257
 486 384 l 257
 486 342 l 257
 161 342 l 257
 161 42 l 257
 520 42 l 257
 520 0 l 257
 109 0 l 257
EndSplineSet
EndChar

StartChar: Eng
Encoding: 330 330 46
Width: 733
VWidth: 0
Flags: HW
PickledData: "(dp1
S'org.robofab.postScriptHintData'
p2
(dp3
s."
LayerCount: 2
Fore
SplineSet
667 711 m 257
 667 0 l 258
 666 -113 654 -209 474 -209 c 257
 474 -169 l 257
 571 -169 615 -127 615 -41 c 258
 615 0 l 257
 223 555 l 257
 170 636 l 257
 170 0 l 257
 118 0 l 257
 118 711 l 257
 170 711 l 257
 553 164 l 257
 615 69 l 257
 615 711 l 257
 667 711 l 257
EndSplineSet
EndChar

StartChar: Euro
Encoding: 8364 8364 50
Width: 651
VWidth: 0
Flags: HW
PickledData: "(dp1
S'org.robofab.postScriptHintData'
p2
(dp3
sS'com.typemytype.robofont.layerData'
p4
(dp5
S'b'
(dp6
S'name'
p7
S'Euro'
p8
sS'lib'
p9
(dp10
sS'unicodes'
p11
(tsS'width'
p12
I1190
sS'contours'
p13
(tsS'components'
p14
(tsS'anchors'
p15
(tsss."
LayerCount: 2
Fore
SplineSet
396 -11 m 256
 477 -11 555 12 622 56 c 257
 604 93 l 257
 543 53 472 32 396 32 c 256
 246 32 141 121 114 265 c 257
 397 265 l 257
 400 300 l 257
 109 300 l 257
 108 314 107 327 107 342 c 256
 107 365 109 388 112 409 c 257
 415 409 l 257
 418 447 l 257
 119 447 l 257
 152 592 255 681 402 681 c 256
 472 681 536 661 585 622 c 257
 607 655 l 257
 555 699 484 723 402 723 c 256
 224 723 100 618 64 447 c 257
 -28 447 l 257
 -31 409 l 257
 58 409 l 257
 56 388 54 365 54 342 c 256
 54 327 55 314 56 300 c 257
 -28 300 l 257
 -30 265 l 257
 60 265 l 257
 89 95 214 -11 396 -11 c 256
EndSplineSet
EndChar

StartChar: F
Encoding: 70 70 51
Width: 532
VWidth: 0
Flags: HW
PickledData: "(dp1
S'org.robofab.postScriptHintData'
p2
(dp3
s."
AnchorPoint: "top" 307 711 basechar 0
LayerCount: 2
Fore
SplineSet
109 0 m 257
 109 711 l 257
 489 711 l 257
 489 669 l 257
 162 669 l 257
 162 380 l 257
 461 380 l 257
 461 338 l 257
 162 338 l 257
 162 0 l 257
 109 0 l 257
EndSplineSet
EndChar

StartChar: G
Encoding: 71 71 53
Width: 738
VWidth: 0
Flags: HW
PickledData: "(dp1
S'org.robofab.postScriptHintData'
p2
(dp3
sS'com.typemytype.robofont.layerData'
p4
(dp5
S'b'
(dp6
S'name'
p7
S'G'
sS'lib'
p8
(dp9
sS'unicodes'
p10
(tsS'width'
p11
F1528.2
sS'contours'
p12
((dp13
S'points'
p14
((dp15
S'segmentType'
p16
S'curve'
p17
sS'x'
F841
sS'smooth'
p18
I01
sS'y'
F-23
s(dp19
S'y'
F-23
sS'x'
F361
sg18
I00
s(dp20
S'y'
F267
sS'x'
F108
sg18
I00
s(dp21
g16
S'curve'
p22
sS'x'
F108
sg18
I01
sS'y'
F701
s(dp23
S'y'
F1129
sS'x'
F108
sg18
I00
s(dp24
S'y'
F1483
sS'x'
F382
sg18
I00
s(dp25
g16
S'curve'
p26
sS'x'
F852
sg18
I01
sS'y'
F1483
s(dp27
S'y'
F1483
sS'x'
F1059
sg18
I00
s(dp28
S'y'
F1415
sS'x'
F1233
sg18
I00
s(dp29
g16
S'curve'
p30
sS'x'
F1334
sg18
I00
sS'y'
F1308
s(dp31
g16
S'line'
p32
sS'x'
F1262
sg18
I00
sS'y'
F1196
s(dp33
S'y'
F1291
sS'x'
F1164
sg18
I00
s(dp34
S'y'
F1334
sS'x'
F1034
sg18
I00
s(dp35
g16
S'curve'
p36
sS'x'
F848
sg18
I01
sS'y'
F1334
s(dp37
S'y'
F1334
sS'x'
F477
sg18
I00
s(dp38
S'y'
F1033
sS'x'
F286
sg18
I00
s(dp39
g16
S'curve'
p40
sS'x'
F286
sg18
I01
sS'y'
F714
s(dp41
S'y'
F365
sS'x'
F286
sg18
I00
s(dp42
S'y'
F125
sS'x'
F472
sg18
I00
s(dp43
g16
S'curve'
p44
sS'x'
F855
sg18
I01
sS'y'
F125
s(dp45
S'y'
F125
sS'x'
F968
sg18
I00
s(dp46
S'y'
F143
sS'x'
F1088
sg18
I00
s(dp47
g16
S'curve'
p48
sS'x'
F1184
sg18
I00
sS'y'
F182
s(dp49
g16
S'line'
p50
sS'x'
F1184
sg18
I00
sS'y'
F608
s(dp51
g16
S'line'
p52
sS'x'
F811
sg18
I00
sS'y'
F608
s(dp53
g16
S'line'
p54
sS'x'
F811
sg18
I00
sS'y'
F757
s(dp55
g16
S'line'
p56
sS'x'
F1356
sg18
I00
sS'y'
F757
s(dp57
g16
S'line'
p58
sS'x'
F1356
sg18
I00
sS'y'
F81
s(dp59
S'y'
F6
sS'x'
F1195
sg18
I00
s(dp60
S'y'
F-23
sS'x'
F1012
sg18
I00
stp61
stp62
sS'components'
p63
(tsS'anchors'
p64
(tsss."
AnchorPoint: "top" 418 711 basechar 0
LayerCount: 2
Fore
SplineSet
407 -10 m 256
 188 -10 54 129 54 345 c 256
 54 575 194 723 411 723 c 256
 439 723 532 729 639 651 c 257
 617 614 l 257
 525 675 453 681 411 681 c 256
 227 681 107 550 107 345 c 256
 107 155 222 32 408 32 c 256
 474 32 557 42 610 66 c 257
 610 315 l 257
 410 315 l 257
 410 357 l 257
 657 357 l 257
 657 39 l 257
 587 5 492 -10 407 -10 c 256
EndSplineSet
EndChar

StartChar: H
Encoding: 72 72 60
Width: 760
VWidth: 0
Flags: HW
PickledData: "(dp1
S'org.robofab.postScriptHintData'
p2
(dp3
sS'com.typemytype.robofont.layerData'
p4
(dp5
S'b'
(dp6
S'name'
p7
S'H'
sS'lib'
p8
(dp9
sS'unicodes'
p10
(tsS'width'
p11
F1576.45
sS'contours'
p12
(tsS'components'
p13
(tsS'anchors'
p14
(tsss."
AnchorPoint: "top" 386 711 basechar 0
LayerCount: 2
Fore
SplineSet
109 0 m 257
 109 711 l 257
 164 711 l 257
 164 384 l 257
 601 384 l 257
 601 711 l 257
 651 711 l 257
 651 0 l 257
 599 0 l 257
 599 342 l 257
 162 342 l 257
 162 0 l 257
 109 0 l 257
EndSplineSet
EndChar

StartChar: Hbar
Encoding: 294 294 61
Width: 778
VWidth: 0
Flags: HW
PickledData: "(dp1
S'org.robofab.postScriptHintData'
p2
(dp3
sS'com.typemytype.robofont.layerData'
p4
(dp5
S'b'
(dp6
S'name'
p7
S'Hbar'
p8
sS'lib'
p9
(dp10
sS'unicodes'
p11
(tsS'width'
p12
F1532.55
sS'contours'
p13
(tsS'components'
p14
(tsS'anchors'
p15
(tsss."
LayerCount: 2
Fore
SplineSet
67 597 m 257
 66 625 l 257
 709 625 l 257
 709 597 l 257
 67 597 l 257
EndSplineSet
Refer: 60 72 N 1 0 0 1 0 0 2
EndChar

StartChar: I
Encoding: 73 73 63
Width: 289
VWidth: 0
Flags: HW
PickledData: "(dp1
S'org.robofab.postScriptHintData'
p2
(dp3
s."
AnchorPoint: "top" 146 711 basechar 0
LayerCount: 2
Fore
SplineSet
118 0 m 257
 118 711 l 257
 171 711 l 257
 171 0 l 257
 118 0 l 257
EndSplineSet
EndChar

StartChar: J
Encoding: 74 74 77
Width: 325
VWidth: 0
Flags: HW
PickledData: "(dp1
S'org.robofab.postScriptHintData'
p2
(dp3
sS'com.typemytype.robofont.layerData'
p4
(dp5
S'b'
(dp6
S'name'
p7
S'J'
sS'lib'
p8
(dp9
sS'unicodes'
p10
(tsS'width'
p11
F731.54999999999995
sS'contours'
p12
(tsS'components'
p13
(tsS'anchors'
p14
(tsss."
AnchorPoint: "top" 163 711 basechar 0
LayerCount: 2
Fore
SplineSet
45 -152 m 256
 31 -152 16 -151 0 -151 c 257
 1 -109 l 257
 18 -110 33 -110 47 -110 c 256
 139 -110 164 -84 164 64 c 258
 164 711 l 257
 216 711 l 257
 216 64 l 258
 216 -123 160 -152 45 -152 c 256
EndSplineSet
EndChar

StartChar: K
Encoding: 75 75 79
Width: 601
VWidth: 0
Flags: HW
PickledData: "(dp1
S'org.robofab.postScriptHintData'
p2
(dp3
sS'com.typemytype.robofont.layerData'
p4
(dp5
S'b'
(dp6
S'name'
p7
S'K'
sS'lib'
p8
(dp9
sS'unicodes'
p10
(tsS'width'
p11
F1289.95
sS'contours'
p12
(tsS'components'
p13
(tsS'anchors'
p14
(tsss."
AnchorPoint: "top" 316 711 basechar 0
LayerCount: 2
Fore
SplineSet
109 0 m 257
 109 711 l 257
 162 711 l 257
 162 378 l 257
 511 711 l 257
 575 711 l 257
 219 370 l 257
 597 0 l 257
 536 0 l 257
 161 364 l 257
 161 0 l 257
 109 0 l 257
EndSplineSet
EndChar

StartChar: L
Encoding: 76 76 82
Width: 510
VWidth: 0
Flags: HW
PickledData: "(dp1
S'org.robofab.postScriptHintData'
p2
(dp3
s."
AnchorPoint: "top" 141 711 basechar 0
AnchorPoint: "caron.alt" 147 501 basechar 0
LayerCount: 2
Fore
SplineSet
109 0 m 257
 109 711 l 257
 162 711 l 257
 162 42 l 257
 495 42 l 257
 495 0 l 257
 109 0 l 257
EndSplineSet
EndChar

StartChar: Lslash
Encoding: 321 321 88
Width: 530
VWidth: 0
Flags: HW
PickledData: "(dp1
S'org.robofab.postScriptHintData'
p2
(dp3
s."
LayerCount: 2
Fore
SplineSet
31 262 m 257
 31 299 l 257
 301 462 l 257
 301 426 l 257
 31 262 l 257
EndSplineSet
Refer: 82 76 N 1 0 0 1 0 0 2
EndChar

StartChar: M
Encoding: 77 77 89
Width: 902
VWidth: 0
Flags: HW
PickledData: "(dp1
S'org.robofab.postScriptHintData'
p2
(dp3
sS'com.typemytype.robofont.layerData'
p4
(dp5
S'b'
(dp6
S'name'
p7
S'M'
sS'lib'
p8
(dp9
sS'unicodes'
p10
(tsS'width'
p11
F1905.0999999999999
sS'contours'
p12
(tsS'components'
p13
(tsS'anchors'
p14
(tsss."
AnchorPoint: "top" 456 711 basechar 0
LayerCount: 2
Fore
SplineSet
109 0 m 257
 109 711 l 257
 177 711 l 257
 408 175 l 257
 451 69 l 257
 496 175 l 257
 736 711 l 257
 793 711 l 257
 793 0 l 257
 743 0 l 257
 743 625 l 257
 716 554 l 257
 466 0 l 257
 435 0 l 257
 193 554 l 257
 160 645 l 257
 160 0 l 257
 109 0 l 257
EndSplineSet
EndChar

StartChar: N
Encoding: 78 78 91
Width: 767
VWidth: 0
Flags: HW
PickledData: "(dp1
S'org.robofab.postScriptHintData'
p2
(dp3
sS'com.typemytype.robofont.layerData'
p4
(dp5
S'b'
(dp6
S'name'
p7
S'N'
sS'lib'
p8
(dp9
sS'unicodes'
p10
(tsS'width'
p11
F1578.1500000000001
sS'contours'
p12
(tsS'components'
p13
(tsS'anchors'
p14
(tsss."
AnchorPoint: "top" 400 711 basechar 0
LayerCount: 2
Fore
SplineSet
109 0 m 257
 109 711 l 257
 161 711 l 257
 544 164 l 257
 606 69 l 257
 606 711 l 257
 658 711 l 257
 658 0 l 257
 606 0 l 257
 214 555 l 257
 161 636 l 257
 161 0 l 257
 109 0 l 257
EndSplineSet
EndChar

StartChar: O
Encoding: 79 79 98
Width: 767
VWidth: 0
Flags: HW
PickledData: "(dp1
S'org.robofab.postScriptHintData'
p2
(dp3
sS'com.typemytype.robofont.guides'
p4
((dp5
S'y'
I727
sS'x'
I231
sS'magnetic'
p6
I5
sS'angle'
p7
I0
sS'isGlobal'
p8
I00
s(dp9
S'y'
I1254
sS'x'
I804
sg6
I5
sg7
F90
sg8
I00
stp10
sS'com.typemytype.robofont.layerData'
p11
(dp12
S'b'
(dp13
S'name'
p14
S'O'
sS'lib'
p15
(dp16
sS'unicodes'
p17
(tsS'width'
p18
F1630.8
sS'contours'
p19
(tsS'components'
p20
(tsS'anchors'
p21
(tsss."
AnchorPoint: "top" 384 711 basechar 0
LayerCount: 2
Fore
SplineSet
385 -10 m 256
 183 -10 54 132 54 353 c 256
 54 578 182 723 385 723 c 256
 584 723 714 578 714 353 c 256
 714 132 585 -10 385 -10 c 256
385 32 m 256
 553 32 660 158 660 353 c 256
 660 553 552 681 385 681 c 256
 216 681 107 553 107 353 c 256
 107 158 217 32 385 32 c 256
EndSplineSet
EndChar

StartChar: OE
Encoding: 338 338 99
Width: 995
VWidth: 0
Flags: HW
PickledData: "(dp1
S'org.robofab.postScriptHintData'
p2
(dp3
sS'com.typemytype.robofont.layerData'
p4
(dp5
S'b'
(dp6
S'name'
p7
S'OE'
p8
sS'lib'
p9
(dp10
sS'unicodes'
p11
(tsS'width'
p12
F2049.1500000000001
sS'contours'
p13
(tsS'components'
p14
(tsS'anchors'
p15
(tsss."
LayerCount: 2
Fore
SplineSet
403 32 m 256
 479 32 543 63 583 116 c 257
 583 605 l 257
 548 645 486 681 403 681 c 256
 184 681 107 491 107 354 c 256
 107 200 175 32 403 32 c 256
403 -10 m 256
 158 -13 54 156 54 354 c 256
 54 558 175 723 403 723 c 256
 449 723 527 710 583 656 c 257
 583 711 l 257
 962 711 l 257
 962 663 l 257
 636 663 l 257
 636 389 l 257
 943 389 l 257
 943 341 l 257
 635 341 l 257
 635 48 l 257
 978 48 l 257
 978 0 l 257
 583 0 l 257
 583 66 l 257
 547 23 480 -9 403 -10 c 256
EndSplineSet
EndChar

StartChar: uni03A9
Encoding: 937 937 111
Width: 782
VWidth: 0
Flags: HW
PickledData: "(dp1
S'org.robofab.postScriptHintData'
p2
(dp3
s."
LayerCount: 2
Fore
SplineSet
70 0 m 257
 65 44 l 257
 256 44 l 257
 147 111 68 215 68 365 c 256
 68 566 212 695 405 695 c 256
 605 695 730 552 730 365 c 256
 730 210 633 110 540 44 c 257
 735 44 l 257
 730 0 l 257
 496 0 l 257
 495 42 l 257
 599 111 676 211 676 354 c 256
 676 512 583 650 401 650 c 256
 236 650 123 531 123 357 c 256
 123 214 195 111 302 42 c 257
 303 0 l 257
 70 0 l 257
EndSplineSet
EndChar

StartChar: Oslash
Encoding: 216 216 113
Width: 767
VWidth: 0
Flags: HW
PickledData: "(dp1
S'org.robofab.postScriptHintData'
p2
(dp3
sS'com.typemytype.robofont.layerData'
p4
(dp5
S'b'
(dp6
S'name'
p7
S'Oslash'
p8
sS'lib'
p9
(dp10
sS'unicodes'
p11
(tsS'width'
p12
F1663
sS'contours'
p13
(tsS'components'
p14
(tsS'anchors'
p15
(tsss."
LayerCount: 2
Fore
SplineSet
385 -10 m 256
 585 -10 714 132 714 353 c 256
 714 492 664 601 580 663 c 257
 637 768 l 257
 608 784 l 257
 552 681 l 257
 505 708 448 723 385 723 c 256
 182 723 54 578 54 353 c 256
 54 210 108 101 200 41 c 257
 145 -59 l 257
 176 -76 l 257
 230 23 l 257
 275 1 327 -10 385 -10 c 256
557 621 m 257
 622 564 660 471 660 353 c 256
 660 158 553 32 385 32 c 256
 335 32 290 42 252 63 c 257
 557 621 l 257
530 641 m 257
 223 83 l 257
 150 137 107 231 107 353 c 256
 107 553 216 681 385 681 c 256
 440 681 489 667 530 641 c 257
EndSplineSet
EndChar

StartChar: P
Encoding: 80 80 116
Width: 595
VWidth: 0
Flags: HW
PickledData: "(dp1
S'org.robofab.postScriptHintData'
p2
(dp3
sS'com.typemytype.robofont.layerData'
p4
(dp5
S'b'
(dp6
S'name'
p7
S'P'
sS'lib'
p8
(dp9
sS'unicodes'
p10
(tsS'width'
p11
F1252.6500000000001
sS'contours'
p12
((dp13
S'points'
p14
((dp15
S'segmentType'
p16
S'line'
p17
sS'x'
F360
sS'smooth'
p18
I00
sS'y'
F828
s(dp19
g16
S'line'
p20
sS'x'
F580
sg18
I01
sS'y'
F828
s(dp21
S'y'
F828
sS'x'
F775
sg18
I00
s(dp22
S'y'
F881
sS'x'
F973
sg18
I00
s(dp23
g16
S'curve'
p24
sS'x'
F973
sg18
I01
sS'y'
F1077
s(dp25
S'y'
F1272
sS'x'
F973
sg18
I00
s(dp26
S'y'
F1308
sS'x'
F807
sg18
I00
s(dp27
g16
S'curve'
p28
sS'x'
F592
sg18
I01
sS'y'
F1308
s(dp29
g16
S'line'
p30
sS'x'
F360
sg18
I00
sS'y'
F1308
stp31
s(dp32
g14
((dp33
g16
S'line'
p34
sS'x'
F360
sg18
I00
sS'y'
F148
s(dp35
g16
S'line'
p36
sS'x'
F667
sg18
I01
sS'y'
F148
s(dp37
S'y'
F148
sS'x'
F906
sg18
I00
s(dp38
S'y'
F230
sS'x'
F1041
sg18
I00
s(dp39
g16
S'curve'
p40
sS'x'
F1041
sg18
I01
sS'y'
F406
s(dp41
S'y'
F617
sS'x'
F1041
sg18
I00
s(dp42
S'y'
F680
sS'x'
F889
sg18
I00
s(dp43
g16
S'curve'
p44
sS'x'
F610
sg18
I01
sS'y'
F680
s(dp45
g16
S'line'
p46
sS'x'
F360
sg18
I00
sS'y'
F680
stp47
s(dp48
g14
((dp49
g16
S'line'
p50
sS'x'
F188
sg18
I00
sS'y'
F0
s(dp51
g16
S'line'
p52
sS'x'
F188
sg18
I00
sS'y'
F1456
s(dp53
g16
S'line'
p54
sS'x'
F502
sg18
I01
sS'y'
F1456
s(dp55
S'y'
F1456
sS'x'
F765
sg18
I00
s(dp56
S'y'
F1443
sS'x'
F1154
sg18
I00
s(dp57
g16
S'curve'
p58
sS'x'
F1154
sg18
I01
sS'y'
F1105
s(dp59
S'y'
F944
sS'x'
F1154
sg18
I00
s(dp60
S'y'
F814
sS'x'
F1045
sg18
I00
s(dp61
g16
S'curve'
p62
sS'x'
F889
sg18
I00
sS'y'
F769
s(dp63
S'y'
F734
sS'x'
F1086
sg18
I00
s(dp64
S'y'
F605
sS'x'
F1223
sg18
I00
s(dp65
g16
S'curve'
p66
sS'x'
F1223
sg18
I01
sS'y'
F403
s(dp67
S'y'
F189
sS'x'
F1223
sg18
I00
s(dp68
S'y'
F0
sS'x'
F1059
sg18
I00
s(dp69
g16
S'curve'
p70
sS'x'
F739
sg18
I01
sS'y'
F0
stp71
stp72
sS'components'
p73
(tsS'anchors'
p74
(tsss."
AnchorPoint: "top" 317 711 basechar 0
LayerCount: 2
Fore
SplineSet
162 384 m 257
 320 384 l 258
 463 384 510 427 510 527 c 256
 510 631 453 674 320 669 c 257
 162 669 l 257
 162 384 l 257
109 0 m 257
 109 711 l 257
 320 711 l 258
 488 711 560 656 560 527 c 256
 560 398 488 342 320 342 c 258
 162 342 l 257
 162 0 l 257
 109 0 l 257
EndSplineSet
EndChar

StartChar: Q
Encoding: 81 81 118
Width: 767
VWidth: 0
Flags: HW
PickledData: "(dp1
S'org.robofab.postScriptHintData'
p2
(dp3
sS'com.typemytype.robofont.layerData'
p4
(dp5
S'b'
(dp6
S'name'
p7
S'Q'
sS'lib'
p8
(dp9
sS'unicodes'
p10
(tsS'width'
p11
F1628.2
sS'contours'
p12
(tsS'components'
p13
(tsS'anchors'
p14
(tsss."
LayerCount: 2
Fore
SplineSet
572 -198 m 257
 602 -169 l 257
 602 -169 521 -87 472 -0 c 257
 621 36 714 166 714 353 c 256
 714 578 584 723 385 723 c 256
 182 723 54 578 54 353 c 256
 54 132 183 -10 385 -10 c 256
 401 -10 416 -10 431 -8 c 257
 477 -101 572 -198 572 -198 c 257
385 32 m 256
 217 32 107 158 107 353 c 256
 107 553 216 681 385 681 c 256
 552 681 660 553 660 353 c 256
 660 158 553 32 385 32 c 256
EndSplineSet
EndChar

StartChar: R
Encoding: 82 82 119
Width: 670
VWidth: 0
Flags: HW
PickledData: "(dp1
S'org.robofab.postScriptHintData'
p2
(dp3
sS'com.typemytype.robofont.layerData'
p4
(dp5
S'b'
(dp6
S'name'
p7
S'R'
sS'lib'
p8
(dp9
sS'unicodes'
p10
(tsS'width'
p11
F1341
sS'contours'
p12
((dp13
S'points'
p14
((dp15
S'segmentType'
p16
S'line'
p17
sS'x'
F360
sS'smooth'
p18
I00
sS'y'
F799
s(dp19
g16
S'line'
p20
sS'x'
F615
sg18
I01
sS'y'
F799
s(dp21
S'y'
F799
sS'x'
F795
sg18
I00
s(dp22
S'y'
F854
sS'x'
F932
sg18
I00
s(dp23
g16
S'curve'
p24
sS'x'
F932
sg18
I01
sS'y'
F1058
s(dp25
S'y'
F1259
sS'x'
F932
sg18
I00
s(dp26
S'y'
F1308
sS'x'
F833
sg18
I00
s(dp27
g16
S'curve'
p28
sS'x'
F626
sg18
I01
sS'y'
F1308
s(dp29
g16
S'line'
p30
sS'x'
F360
sg18
I00
sS'y'
F1308
stp31
s(dp32
g14
((dp33
g16
S'line'
p34
sS'x'
F188
sg18
I00
sS'y'
F0
s(dp35
g16
S'line'
p36
sS'x'
F188
sg18
I00
sS'y'
F1456
s(dp37
g16
S'line'
p38
sS'x'
F533
sg18
I01
sS'y'
F1456
s(dp39
S'y'
F1456
sS'x'
F771
sg18
I00
s(dp40
S'y'
F1452
sS'x'
F1114
sg18
I00
s(dp41
g16
S'curve'
p42
sS'x'
F1114
sg18
I01
sS'y'
F1074
s(dp43
S'y'
F890
sS'x'
F1114
sg18
I00
s(dp44
S'y'
F762
sS'x'
F1035
sg18
I00
s(dp45
g16
S'curve'
p46
sS'x'
F847
sg18
I00
sS'y'
F715
s(dp47
g16
S'line'
p48
sS'x'
F848
sg18
I00
sS'y'
F715
s(dp49
S'y'
F662
sS'x'
F1012
sg18
I00
s(dp50
S'y'
F510
sS'x'
F1039
sg18
I00
s(dp51
g16
S'curve'
p52
sS'x'
F1159
sg18
I01
sS'y'
F214
s(dp53
g16
S'line'
p54
sS'x'
F1246
sg18
I00
sS'y'
F0
s(dp55
g16
S'line'
p56
sS'x'
F1061
sg18
I00
sS'y'
F0
s(dp57
g16
S'line'
p58
sS'x'
F896
sg18
I01
sS'y'
F419
s(dp59
S'y'
F600
sS'x'
F825
sg18
I00
s(dp60
S'y'
F652
sS'x'
F797
sg18
I00
s(dp61
g16
S'curve'
p62
sS'x'
F619
sg18
I01
sS'y'
F652
s(dp63
g16
S'line'
p64
sS'x'
F360
sg18
I00
sS'y'
F652
s(dp65
g16
S'line'
p66
sS'x'
F360
sg18
I00
sS'y'
F0
stp67
stp68
sS'components'
p69
(tsS'anchors'
p70
(tsss."
AnchorPoint: "top" 289 711 basechar 0
LayerCount: 2
Fore
SplineSet
164 370 m 257
 336 370 l 258
 454 370 507 424 507 526 c 256
 507 631 450 674 322 669 c 257
 164 669 l 257
 164 370 l 257
109 0 m 257
 109 711 l 257
 322 711 l 258
 487 711 557 655 557 526 c 256
 557 430 510 357 412 349 c 257
 493 335 504 306 538 210 c 258
 611 0 l 257
 562 0 l 257
 492 199 l 258
 455 302 440 328 351 328 c 258
 162 328 l 257
 162 0 l 257
 109 0 l 257
EndSplineSet
EndChar

StartChar: S
Encoding: 83 83 125
Width: 551
VWidth: 0
Flags: HW
PickledData: "(dp1
S'org.robofab.postScriptHintData'
p2
(dp3
sS'com.typemytype.robofont.layerData'
p4
(dp5
S'b'
(dp6
S'name'
p7
S'S'
sS'lib'
p8
(dp9
sS'unicodes'
p10
(tsS'width'
p11
F1211
sS'contours'
p12
((dp13
S'points'
p14
((dp15
S'segmentType'
p16
S'curve'
p17
sS'x'
F596
sS'smooth'
p18
I01
sS'y'
F-23
s(dp19
S'y'
F-23
sS'x'
F321
sg18
I00
s(dp20
S'y'
F120
sS'x'
F158
sg18
I00
s(dp21
g16
S'curve'
p22
sS'x'
F140
sg18
I00
sS'y'
F141
s(dp23
g16
S'line'
p24
sS'x'
F219
sg18
I00
sS'y'
F271
s(dp25
S'y'
F243
sS'x'
F256
sg18
I00
s(dp26
S'y'
F125
sS'x'
F393
sg18
I00
s(dp27
g16
S'curve'
p28
sS'x'
F595
sg18
I01
sS'y'
F125
s(dp29
S'y'
F125
sS'x'
F797
sg18
I00
s(dp30
S'y'
F204
sS'x'
F898
sg18
I00
s(dp31
g16
S'curve'
p32
sS'x'
F898
sg18
I01
sS'y'
F360
s(dp33
S'y'
F536
sS'x'
F898
sg18
I00
s(dp34
S'y'
F601
sS'x'
F709
sg18
I00
s(dp35
g16
S'curve'
p36
sS'x'
F521
sg18
I01
sS'y'
F681
s(dp37
S'y'
F761
sS'x'
F333
sg18
I00
s(dp38
S'y'
F857
sS'x'
F145
sg18
I00
s(dp39
g16
S'curve'
p40
sS'x'
F145
sg18
I01
sS'y'
F1095
s(dp41
S'y'
F1350
sS'x'
F145
sg18
I00
s(dp42
S'y'
F1483
sS'x'
F357
sg18
I00
s(dp43
g16
S'curve'
p44
sS'x'
F620
sg18
I01
sS'y'
F1483
s(dp45
S'y'
F1483
sS'x'
F891
sg18
I00
s(dp46
S'y'
F1362
sS'x'
F1009
sg18
I00
s(dp47
g16
S'curve'
p48
sS'x'
F1034
sg18
I00
sS'y'
F1335
s(dp49
g16
S'line'
p50
sS'x'
F951
sg18
I00
sS'y'
F1217
s(dp51
S'y'
F1242
sS'x'
F921
sg18
I00
s(dp52
S'y'
F1334
sS'x'
F819
sg18
I00
s(dp53
g16
S'curve'
p54
sS'x'
F640
sg18
I01
sS'y'
F1334
s(dp55
S'y'
F1334
sS'x'
F478
sg18
I00
s(dp56
S'y'
F1270
sS'x'
F328
sg18
I00
s(dp57
g16
S'curve'
p58
sS'x'
F328
sg18
I01
sS'y'
F1105
s(dp59
S'y'
F934
sS'x'
F328
sg18
I00
s(dp60
S'y'
F868
sS'x'
F515
sg18
I00
s(dp61
g16
S'curve'
p62
sS'x'
F703
sg18
I01
sS'y'
F785
s(dp63
S'y'
F702
sS'x'
F891
sg18
I00
s(dp64
S'y'
F602
sS'x'
F1078
sg18
I00
s(dp65
g16
S'curve'
p66
sS'x'
F1078
sg18
I01
sS'y'
F364
s(dp67
S'y'
F78
sS'x'
F1078
sg18
I00
s(dp68
S'y'
F-23
sS'x'
F868
sg18
I00
stp69
stp70
sS'components'
p71
(tsS'anchors'
p72
(tsss."
AnchorPoint: "top" 296 711 basechar 0
LayerCount: 2
Fore
SplineSet
286 -10 m 256
 149 -10 87 55 69 69 c 257
 94 105 l 257
 117 85 173 32 286 32 c 256
 390 32 455 91 458 176 c 256
 461 270 430 305 304 338 c 258
 231 357 l 258
 122 386 62 431 62 543 c 256
 62 655 145 723 283 723 c 256
 414 723 463 669 475 660 c 257
 452 624 l 257
 437 640 387 681 283 681 c 256
 177 681 115 630 115 543 c 256
 115 459 143 427 243 401 c 258
 315 383 l 258
 479 341 511 286 508 177 c 256
 505 66 423 -10 286 -10 c 256
EndSplineSet
EndChar

StartChar: T
Encoding: 84 84 132
Width: 535
VWidth: 0
Flags: HW
PickledData: "(dp1
S'org.robofab.postScriptHintData'
p2
(dp3
s."
AnchorPoint: "top" 268 711 basechar 0
LayerCount: 2
Fore
SplineSet
241 0 m 257
 241 669 l 257
 4 669 l 257
 4 711 l 257
 531 711 l 257
 531 669 l 257
 294 669 l 257
 294 0 l 257
 241 0 l 257
EndSplineSet
EndChar

StartChar: Thorn
Encoding: 222 222 137
Width: 612
VWidth: 0
Flags: HW
PickledData: "(dp1
S'org.robofab.postScriptHintData'
p2
(dp3
s."
LayerCount: 2
Fore
SplineSet
159 225 m 257
 308 225 l 258
 431 225 521 272 521 380 c 256
 521 509 424 542 283 542 c 258
 159 542 l 257
 159 225 l 257
104 0 m 257
 104 711 l 257
 158 711 l 257
 158 591 l 257
 275 591 l 258
 440 591 578 552 578 382 c 256
 578 237 469 175 314 175 c 258
 159 175 l 257
 159 0 l 257
 104 0 l 257
EndSplineSet
EndChar

StartChar: U
Encoding: 85 85 138
Width: 722
VWidth: 0
Flags: HW
PickledData: "(dp1
S'org.robofab.postScriptHintData'
p2
(dp3
sS'com.typemytype.robofont.layerData'
p4
(dp5
S'b'
(dp6
S'name'
p7
S'U'
sS'lib'
p8
(dp9
sS'unicodes'
p10
(tsS'width'
p11
F1496.9000000000001
sS'contours'
p12
(tsS'components'
p13
(tsS'anchors'
p14
(tsss."
AnchorPoint: "top" 365 711 basechar 0
LayerCount: 2
Fore
SplineSet
357 -10 m 256
 179 -10 86 80 86 251 c 258
 86 711 l 257
 139 711 l 257
 139 247 l 258
 139 106 214 32 357 32 c 256
 500 32 576 106 576 247 c 258
 576 711 l 257
 629 711 l 257
 629 251 l 258
 628 80 533 -10 357 -10 c 256
EndSplineSet
EndChar

StartChar: V
Encoding: 86 86 152
Width: 674
VWidth: 0
Flags: HW
PickledData: "(dp1
S'org.robofab.postScriptHintData'
p2
(dp3
sS'com.typemytype.robofont.layerData'
p4
(dp5
S'b'
(dp6
S'name'
p7
S'V'
sS'lib'
p8
(dp9
sS'unicodes'
p10
(tsS'width'
p11
F1320.1500000000001
sS'contours'
p12
(tsS'components'
p13
(tsS'anchors'
p14
(tsss."
LayerCount: 2
Fore
SplineSet
307 0 m 257
 46 711 l 257
 100 711 l 257
 279 212 l 257
 338 44 l 257
 395 211 l 257
 574 711 l 257
 628 711 l 257
 370 0 l 257
 307 0 l 257
EndSplineSet
EndChar

StartChar: W
Encoding: 87 87 153
Width: 994
VWidth: 0
Flags: HW
PickledData: "(dp1
S'org.robofab.postScriptHintData'
p2
(dp3
sS'com.typemytype.robofont.layerData'
p4
(dp5
S'b'
(dp6
S'name'
p7
S'W'
sS'lib'
p8
(dp9
sS'unicodes'
p10
(tsS'width'
p11
F1988.8499999999999
sS'contours'
p12
(tsS'components'
p13
(tsS'anchors'
p14
(tsss."
AnchorPoint: "top" 504 711 basechar 0
LayerCount: 2
Fore
SplineSet
251 0 m 257
 67 711 l 257
 123 711 l 257
 275 104 l 257
 284 50 l 257
 297 104 l 257
 475 711 l 257
 528 711 l 257
 706 104 l 257
 718 57 l 257
 730 104 l 257
 874 711 l 257
 927 711 l 257
 750 0 l 257
 688 0 l 257
 502 645 l 257
 313 0 l 257
 251 0 l 257
EndSplineSet
EndChar

StartChar: X
Encoding: 88 88 158
Width: 643
VWidth: 0
Flags: HW
PickledData: "(dp1
S'org.robofab.postScriptHintData'
p2
(dp3
sS'com.typemytype.robofont.layerData'
p4
(dp5
S'b'
(dp6
S'name'
p7
S'X'
sS'lib'
p8
(dp9
sS'unicodes'
p10
(tsS'width'
p11
F1257.7
sS'contours'
p12
(tsS'components'
p13
(tsS'anchors'
p14
(tsss."
LayerCount: 2
Fore
SplineSet
59 0 m 257
 298 361 l 257
 64 711 l 257
 123 711 l 257
 326 397 l 257
 521 711 l 257
 576 711 l 257
 356 363 l 257
 584 0 l 257
 531 0 l 257
 329 324 l 257
 114 0 l 257
 59 0 l 257
EndSplineSet
EndChar

StartChar: Y
Encoding: 89 89 159
Width: 603
VWidth: 0
Flags: HW
PickledData: "(dp1
S'org.robofab.postScriptHintData'
p2
(dp3
sS'com.typemytype.robofont.layerData'
p4
(dp5
S'b'
(dp6
S'name'
p7
S'Y'
sS'lib'
p8
(dp9
sS'unicodes'
p10
(tsS'width'
p11
F1225.45
sS'contours'
p12
(tsS'components'
p13
(tsS'anchors'
p14
(tsss."
AnchorPoint: "top" 299 711 basechar 0
LayerCount: 2
Fore
SplineSet
273 0 m 257
 273 289 l 257
 39 711 l 257
 92 711 l 257
 301 333 l 257
 513 711 l 257
 564 711 l 257
 326 290 l 257
 326 0 l 257
 273 0 l 257
EndSplineSet
EndChar

StartChar: Z
Encoding: 90 90 166
Width: 577
VWidth: 0
Flags: HW
PickledData: "(dp1
S'org.robofab.postScriptHintData'
p2
(dp3
sS'com.typemytype.robofont.layerData'
p4
(dp5
S'b'
(dp6
S'name'
p7
S'Z'
sS'lib'
p8
(dp9
sS'unicodes'
p10
(tsS'width'
p11
F1179.45
sS'contours'
p12
(tsS'components'
p13
(tsS'anchors'
p14
(tsss."
AnchorPoint: "top" 304 711 basechar 0
LayerCount: 2
Fore
SplineSet
65 0 m 257
 65 30 l 257
 459 669 l 257
 83 669 l 257
 83 711 l 257
 522 711 l 257
 522 683 l 257
 127 42 l 257
 521 42 l 257
 521 0 l 257
 65 0 l 257
EndSplineSet
EndChar

StartChar: a
Encoding: 97 97 170
Width: 611
VWidth: 0
Flags: HW
PickledData: "(dp1
S'org.robofab.postScriptHintData'
p2
(dp3
sS'com.typemytype.robofont.layerData'
p4
(dp5
S'b'
(dp6
S'name'
p7
S'a'
sS'lib'
p8
(dp9
sS'unicodes'
p10
(tsS'width'
p11
I1268
sS'contours'
p12
((dp13
S'points'
p14
((dp15
S'segmentType'
p16
S'curve'
p17
sS'x'
F595
sS'smooth'
p18
I01
sS'y'
F-22
s(dp19
S'y'
F-22
sS'x'
F262
sg18
I00
s(dp20
S'y'
F221
sS'x'
F100
sg18
I00
s(dp21
g16
S'curve'
p22
sS'x'
F100
sg18
I01
sS'y'
F518
s(dp23
S'y'
F824
sS'x'
F100
sg18
I00
s(dp24
S'y'
F1052
sS'x'
F287
sg18
I00
s(dp25
g16
S'curve'
p26
sS'x'
F603
sg18
I01
sS'y'
F1052
s(dp27
S'y'
F1052
sS'x'
F816
sg18
I00
s(dp28
S'y'
F903
sS'x'
F905
sg18
I00
s(dp29
g16
S'curve'
p30
sS'x'
F928
sg18
I00
sS'y'
F847
s(dp31
g16
S'line'
p32
sS'x'
F928
sg18
I00
sS'y'
F1026
s(dp33
g16
S'line'
p34
sS'x'
F1092
sg18
I00
sS'y'
F1026
s(dp35
g16
S'line'
p36
sS'x'
F1092
sg18
I00
sS'y'
F0
s(dp37
g16
S'line'
p38
sS'x'
F928
sg18
I00
sS'y'
F0
s(dp39
g16
S'line'
p40
sS'x'
F928
sg18
I00
sS'y'
F185
s(dp41
S'y'
F82
sS'x'
F881
sg18
I00
s(dp42
S'y'
F-22
sS'x'
F769
sg18
I00
stp43
s(dp44
g14
((dp45
g16
S'curve'
p46
sS'x'
F608
sg18
I01
sS'y'
F918
s(dp47
S'y'
F918
sS'x'
F359
sg18
I00
s(dp48
S'y'
F725
sS'x'
F270
sg18
I00
s(dp49
g16
S'curve'
p50
sS'x'
F270
sg18
I01
sS'y'
F516
s(dp51
S'y'
F308
sS'x'
F270
sg18
I00
s(dp52
S'y'
F112
sS'x'
F364
sg18
I00
s(dp53
g16
S'curve'
p54
sS'x'
F609
sg18
I01
sS'y'
F112
s(dp55
S'y'
F112
sS'x'
F813
sg18
I00
s(dp56
S'y'
F277
sS'x'
F934
sg18
I00
s(dp57
g16
S'curve'
p58
sS'x'
F934
sg18
I01
sS'y'
F526
s(dp59
S'y'
F734
sS'x'
F934
sg18
I00
s(dp60
S'y'
F918
sS'x'
F826
sg18
I00
stp61
stp62
sS'components'
p63
(tsS'anchors'
p64
(tsss."
AnchorPoint: "top" 287 501 basechar 0
LayerCount: 2
Fore
SplineSet
284 30 m 256
 398 30 462 118 462 256 c 256
 462 388 393 474 284 474 c 256
 170 474 96 388 96 256 c 256
 96 118 170 30 284 30 c 256
282 -10 m 256
 139 -10 47 94 47 256 c 256
 47 413 140 514 284 514 c 256
 370 514 434 467 462 403 c 257
 462 501 l 257
 510 501 l 257
 510 0 l 257
 462 0 l 257
 462 105 l 257
 432 38 372 -10 282 -10 c 256
EndSplineSet
EndChar

StartChar: acute
Encoding: 180 180 175
Width: 296
VWidth: 0
Flags: HW
PickledData: "(dp1
S'org.robofab.postScriptHintData'
p2
(dp3
s."
AnchorPoint: "top" 71 501 mark 0
LayerCount: 2
Fore
SplineSet
58 573 m 257
 154 711 l 257
 218 711 l 257
 85 573 l 257
 58 573 l 257
EndSplineSet
EndChar

StartChar: ae
Encoding: 230 230 179
Width: 884
VWidth: 0
Flags: HW
PickledData: "(dp1
S'org.robofab.postScriptHintData'
p2
(dp3
sS'com.typemytype.robofont.layerData'
p4
(dp5
S'b'
(dp6
S'name'
p7
S'ae'
p8
sS'lib'
p9
(dp10
sS'unicodes'
p11
(tsS'width'
p12
F1790.05
sS'contours'
p13
(tsS'components'
p14
((dp15
S'transformation'
p16
(I1
I0
I0
I1
I642
I0
tp17
sS'baseGlyph'
p18
S'e'
stp19
sS'anchors'
p20
(tsss."
AnchorPoint: "top" 449 501 basechar 0
LayerCount: 2
Fore
SplineSet
470 282 m 257
 801 282 l 257
 800 297 l 258
 798 372 753 474 638 474 c 256
 533 474 470 371 470 282 c 257
230 30 m 256
 356 30 416 123 415 248 c 257
 306 248 l 258
 149 248 96 230 96 137 c 256
 96 60 159 30 230 30 c 256
230 -10 m 256
 123 -10 49 45 49 134 c 256
 49 263 142 282 314 282 c 258
 413 282 l 257
 413 391 358 474 259 474 c 256
 167 474 111 445 87 432 c 257
 70 471 l 257
 87 479 148 514 259 514 c 256
 356 514 426 460 443 375 c 257
 473 456 546 514 638 514 c 256
 758 514 843 426 843 257 c 258
 843 249 l 257
 470 249 l 257
 470 231 l 258
 470 131 518 30 641 30 c 256
 740 30 802 86 802 86 c 257
 819 53 l 257
 819 53 753 -10 641 -10 c 256
 541 -10 467 51 441 136 c 257
 422 67 358 -10 230 -10 c 256
EndSplineSet
EndChar

StartChar: ampersand
Encoding: 38 38 185
Width: 717
VWidth: 0
Flags: HW
PickledData: "(dp1
S'org.robofab.postScriptHintData'
p2
(dp3
sS'com.typemytype.robofont.layerData'
p4
(dp5
S'b'
(dp6
S'name'
p7
S'ampersand'
p8
sS'lib'
p9
(dp10
sS'unicodes'
p11
(tsS'width'
p12
F1539.95
sS'contours'
p13
(tsS'components'
p14
(tsS'anchors'
p15
(tsss."
LayerCount: 2
Fore
SplineSet
279 425 m 257
 341 460 413 521 413 588 c 256
 413 655 357 684 307 684 c 256
 249 684 201 651 201 589 c 256
 201 529 230 472 279 425 c 257
304 37 m 256
 398 37 449 72 500 129 c 257
 270 376 l 257
 193 334 130 292 130 195 c 256
 130 104 197 37 304 37 c 256
308 -9 m 256
 174 -9 75 65 75 193 c 256
 75 305 161 355 245 406 c 257
 199 457 159 515 159 590 c 256
 159 678 224 725 306 725 c 256
 381 725 458 683 458 593 c 256
 458 512 381 445 305 403 c 257
 520 169 l 257
 564 228 602 334 602 415 c 257
 646 415 l 257
 639 317 607 211 552 136 c 257
 549 140 610 51 706 32 c 257
 670 0 l 257
 623 7 518 106 525 96 c 257
 473 32 409 -9 308 -9 c 256
EndSplineSet
EndChar

StartChar: approxequal
Encoding: 8776 8776 187
Width: 659
VWidth: 0
Flags: HW
PickledData: "(dp1
S'org.robofab.postScriptHintData'
p2
(dp3
s."
LayerCount: 2
Fore
SplineSet
116 139 m 257
 93 144 l 257
 108 213 155 254 226 254 c 256
 269 254 308 233 345 212 c 256
 383 188 420 168 458 168 c 256
 510 168 539 199 559 250 c 257
 581 244 l 257
 569 178 525 134 454 134 c 256
 416 134 383 149 325 182 c 256
 287 205 258 219 222 219 c 256
 162 219 132 186 116 139 c 257
114 329 m 257
 91 336 l 257
 107 404 155 445 224 445 c 256
 264 445 300 427 344 402 c 256
 392 373 423 361 457 361 c 256
 509 361 539 388 557 442 c 257
 580 435 l 257
 568 370 525 325 453 325 c 256
 416 325 377 343 323 374 c 256
 286 395 255 410 222 410 c 256
 160 410 128 380 114 329 c 257
EndSplineSet
EndChar

StartChar: asciicircum
Encoding: 94 94 190
Width: 840
VWidth: 0
Flags: HW
PickledData: "(dp1
S'org.robofab.postScriptHintData'
p2
(dp3
sS'com.typemytype.robofont.layerData'
p4
(dp5
S'b'
(dp6
S'name'
p7
S'asciicircum'
p8
sS'lib'
p9
(dp10
sS'unicodes'
p11
(tsS'width'
p12
F1623.3499999999999
sS'contours'
p13
(tsS'components'
p14
(tsS'anchors'
p15
(tsss."
LayerCount: 2
Fore
SplineSet
189 295 m 257
 404 711 l 257
 432 711 l 257
 651 295 l 257
 610 295 l 257
 417 665 l 257
 229 295 l 257
 189 295 l 257
EndSplineSet
EndChar

StartChar: asciitilde
Encoding: 126 126 191
Width: 447
VWidth: 0
Flags: HW
PickledData: "(dp1
S'org.robofab.postScriptHintData'
p2
(dp3
s."
LayerCount: 2
Fore
SplineSet
15 205 m 257
 -12 218 l 257
 2 280 29 309 106 309 c 256
 138 309 173 301 211 289 c 257
 288 261 305 253 337 253 c 256
 391 253 420 296 431 340 c 257
 460 331 l 257
 443 261 405 211 335 211 c 256
 307 211 269 225 229 238 c 257
 154 267 145 267 106 267 c 256
 44 267 25 250 15 205 c 257
EndSplineSet
EndChar

StartChar: asterisk
Encoding: 42 42 192
Width: 581
VWidth: 0
Flags: HW
PickledData: "(dp1
S'org.robofab.postScriptHintData'
p2
(dp3
sS'com.typemytype.robofont.guides'
p4
((dp5
S'y'
I1149
sS'x'
I567
sS'magnetic'
p6
I5
sS'angle'
p7
I0
sS'isGlobal'
p8
I00
stp9
sS'com.typemytype.robofont.layerData'
p10
(dp11
S'b'
(dp12
S'name'
p13
S'asterisk'
p14
sS'lib'
p15
(dp16
sS'unicodes'
p17
(tsS'width'
p18
F1107.9000000000001
sS'contours'
p19
(tsS'components'
p20
(tsS'anchors'
p21
(tsss."
LayerCount: 2
Fore
SplineSet
379 390 m 257
 304 529 l 257
 233 397 l 257
 195 416 l 257
 275 537 l 257
 148 569 l 257
 155 615 l 257
 286 560 l 257
 271 713 l 257
 312 713 l 257
 316 560 l 257
 423 615 l 257
 448 569 l 257
 330 537 l 257
 419 407 l 257
 379 390 l 257
EndSplineSet
EndChar

StartChar: at
Encoding: 64 64 193
Width: 833
VWidth: 0
Flags: HW
PickledData: "(dp1
S'org.robofab.postScriptHintData'
p2
(dp3
sS'com.typemytype.robofont.layerData'
p4
(dp5
S'b'
(dp6
S'name'
p7
S'at'
p8
sS'lib'
p9
(dp10
sS'unicodes'
p11
(tsS'width'
p12
F1771.2
sS'contours'
p13
(tsS'components'
p14
(tsS'anchors'
p15
(tsss."
LayerCount: 2
Fore
SplineSet
376 168 m 256
 467 168 533 253 542 385 c 256
 548 471 512 523 450 527 c 256
 343 535 274 439 274 300 c 256
 274 220 314 168 376 168 c 256
439 -32 m 256
 205 -32 54 104 54 333 c 256
 54 563 202 718 433 718 c 256
 644 718 773 593 773 394 c 256
 773 229 685 135 585 135 c 256
 539 135 504 166 519 229 c 257
 496 173 441 137 375 137 c 256
 290 137 235 199 235 297 c 256
 235 457 320 569 452 561 c 256
 516 557 559 514 562 451 c 257
 585 541 l 257
 621 541 l 257
 554 271 l 258
 546 237 542 214 542 199 c 256
 542 176 560 161 588 161 c 256
 678 161 738 255 738 394 c 256
 738 569 617 686 433 686 c 256
 228 686 97 539 97 333 c 256
 97 126 231 0 439 0 c 256
 553 0 654 41 696 99 c 257
 724 81 l 257
 685 11 573 -32 439 -32 c 256
EndSplineSet
EndChar

StartChar: b
Encoding: 98 98 195
Width: 614
VWidth: 0
Flags: HW
PickledData: "(dp1
S'org.robofab.postScriptHintData'
p2
(dp3
sS'com.typemytype.robofont.layerData'
p4
(dp5
S'b'
(dp6
S'name'
p7
S'b'
sS'lib'
p8
(dp9
sS'unicodes'
p10
(tsS'width'
p11
F1270.0999999999999
sS'contours'
p12
(tsS'components'
p13
(tsS'anchors'
p14
(tsss."
AnchorPoint: "top" 330 501 basechar 0
LayerCount: 2
Fore
SplineSet
340 30 m 256
 454 30 519 118 519 254 c 256
 519 388 454 474 340 474 c 256
 220 474 144 388 144 254 c 256
 144 118 220 30 340 30 c 256
340 -10 m 256
 248 -10 171 40 143 117 c 257
 141 0 l 257
 92 0 l 258
 92 1 96 79 96 131 c 258
 96 740 l 257
 144 740 l 257
 144 390 l 257
 175 465 252 514 340 514 c 256
 478 514 566 412 566 254 c 256
 566 93 478 -10 340 -10 c 256
EndSplineSet
EndChar

StartChar: backslash
Encoding: 92 92 196
Width: 386
VWidth: 0
Flags: HW
PickledData: "(dp1
S'org.robofab.postScriptHintData'
p2
(dp3
s."
LayerCount: 2
Fore
SplineSet
280 32 m 257
 67 711 l 257
 114 711 l 257
 327 32 l 257
 280 32 l 257
EndSplineSet
EndChar

StartChar: bar
Encoding: 124 124 197
Width: 822
VWidth: 0
Flags: HW
PickledData: "(dp1
S'org.robofab.postScriptHintData'
p2
(dp3
s."
LayerCount: 2
Fore
SplineSet
388 -252 m 257
 388 768 l 257
 435 768 l 257
 435 -252 l 257
 388 -252 l 257
EndSplineSet
EndChar

StartChar: braceleft
Encoding: 123 123 199
Width: 443
VWidth: 0
Flags: HW
PickledData: "(dp1
S'org.robofab.postScriptHintData'
p2
(dp3
s."
LayerCount: 2
Fore
SplineSet
226 566 m 258
 226 425 l 258
 226 340 199 289 139 271 c 257
 199 253 226 203 226 118 c 258
 226 -23 l 258
 226 -74 225 -106 363 -104 c 257
 363 -142 l 257
 182 -142 179 -85 179 -23 c 258
 179 118 l 258
 179 204 160 247 50 261 c 257
 50 281 l 257
 160 295 179 339 179 425 c 258
 179 566 l 258
 179 628 182 684 363 684 c 257
 363 646 l 257
 225 648 226 617 226 566 c 258
EndSplineSet
EndChar

StartChar: braceright
Encoding: 125 125 200
Width: 413
VWidth: 0
Flags: HW
PickledData: "(dp1
S'org.robofab.postScriptHintData'
p2
(dp3
s."
LayerCount: 2
Fore
SplineSet
51 -142 m 257
 51 -104 l 257
 189 -106 189 -74 189 -23 c 258
 189 118 l 258
 189 203 216 253 276 271 c 257
 216 289 189 340 189 425 c 258
 189 566 l 258
 189 617 189 648 51 646 c 257
 51 684 l 257
 232 684 236 628 236 566 c 258
 236 425 l 258
 236 339 255 295 365 281 c 257
 365 261 l 257
 255 247 236 204 236 118 c 258
 236 -23 l 258
 236 -85 232 -142 51 -142 c 257
EndSplineSet
EndChar

StartChar: bracketleft
Encoding: 91 91 201
Width: 349
VWidth: 0
Flags: HW
PickledData: "(dp1
S'org.robofab.postScriptHintData'
p2
(dp3
s."
LayerCount: 2
Fore
SplineSet
104 -157 m 257
 104 695 l 257
 297 695 l 257
 297 659 l 257
 151 659 l 257
 151 -121 l 257
 297 -121 l 257
 297 -157 l 257
 104 -157 l 257
EndSplineSet
EndChar

StartChar: bracketright
Encoding: 93 93 202
Width: 349
VWidth: 0
Flags: HW
PickledData: "(dp1
S'org.robofab.postScriptHintData'
p2
(dp3
s."
LayerCount: 2
Fore
SplineSet
85 -157 m 257
 85 -121 l 257
 233 -121 l 257
 233 659 l 257
 84 659 l 257
 84 695 l 257
 280 695 l 257
 280 -157 l 257
 85 -157 l 257
EndSplineSet
EndChar

StartChar: breve
Encoding: 728 728 203
Width: 245
VWidth: 0
Flags: HW
PickledData: "(dp1
S'org.robofab.postScriptHintData'
p2
(dp3
sS'com.typemytype.robofont.layerData'
p4
(dp5
S'b'
(dp6
S'name'
p7
S'breve'
p8
sS'lib'
p9
(dp10
sS'unicodes'
p11
(tsS'width'
p12
F621.60000000000002
sS'contours'
p13
(tsS'components'
p14
(tsS'anchors'
p15
(tsss."
AnchorPoint: "top" 125 501 mark 0
LayerCount: 2
Fore
SplineSet
124 567 m 256
 53 567 23 602 17 672 c 257
 53 672 l 257
 55 629 74 604 124 604 c 256
 174 604 186 633 193 672 c 257
 229 672 l 257
 224 605 188 567 124 567 c 256
EndSplineSet
EndChar

StartChar: brokenbar
Encoding: 166 166 204
Width: 244
VWidth: 0
Flags: HW
PickledData: "(dp1
S'org.robofab.postScriptHintData'
p2
(dp3
s."
LayerCount: 2
Fore
SplineSet
102 369 m 257
 102 768 l 257
 149 768 l 257
 149 369 l 257
 102 369 l 257
102 -252 m 257
 102 184 l 257
 148 184 l 257
 148 -252 l 257
 102 -252 l 257
EndSplineSet
EndChar

StartChar: bullet
Encoding: 8226 8226 205
Width: 483
VWidth: 0
Flags: HW
PickledData: "(dp1
S'org.robofab.postScriptHintData'
p2
(dp3
sS'com.typemytype.robofont.layerData'
p4
(dp5
S'b'
(dp6
S'name'
p7
S'bullet'
p8
sS'lib'
p9
(dp10
sS'unicodes'
p11
(tsS'width'
p12
F989.64999999999998
sS'contours'
p13
(tsS'components'
p14
(tsS'anchors'
p15
(tsss."
LayerCount: 2
Fore
SplineSet
241 197 m 256
 157 197 91 263 91 343 c 256
 91 426 155 493 241 493 c 256
 325 493 393 424 393 343 c 256
 393 260 328 197 241 197 c 256
EndSplineSet
EndChar

StartChar: c
Encoding: 99 99 207
Width: 499
VWidth: 0
Flags: HW
PickledData: "(dp1
S'org.robofab.postScriptHintData'
p2
(dp3
sS'com.typemytype.robofont.layerData'
p4
(dp5
S'b'
(dp6
S'name'
p7
S'c'
sS'lib'
p8
(dp9
sS'unicodes'
p10
(tsS'width'
p11
F1035.55
sS'contours'
p12
((dp13
S'points'
p14
((dp15
S'segmentType'
p16
S'curve'
p17
sS'x'
F605
sS'smooth'
p18
I01
sS'y'
F-22
s(dp19
S'y'
F-22
sS'x'
F302
sg18
I00
s(dp20
S'y'
F180
sS'x'
F98
sg18
I00
s(dp21
g16
S'curve'
p22
sS'x'
F98
sg18
I01
sS'y'
F503
s(dp23
S'y'
F840
sS'x'
F98
sg18
I00
s(dp24
S'y'
F1052
sS'x'
F301
sg18
I00
s(dp25
g16
S'curve'
p26
sS'x'
F624
sg18
I01
sS'y'
F1052
s(dp27
S'y'
F1052
sS'x'
F750
sg18
I00
s(dp28
S'y'
F1001
sS'x'
F871
sg18
I00
s(dp29
g16
S'curve'
p30
sS'x'
F938
sg18
I00
sS'y'
F922
s(dp31
g16
S'line'
p32
sS'x'
F890
sg18
I00
sS'y'
F805
s(dp33
S'y'
F874
sS'x'
F825
sg18
I00
s(dp34
S'y'
F918
sS'x'
F721
sg18
I00
s(dp35
g16
S'curve'
p36
sS'x'
F619
sg18
I01
sS'y'
F918
s(dp37
S'y'
F918
sS'x'
F406
sg18
I00
s(dp38
S'y'
F756
sS'x'
F268
sg18
I00
s(dp39
g16
S'curve'
p40
sS'x'
F268
sg18
I01
sS'y'
F505
s(dp41
S'y'
F260
sS'x'
F268
sg18
I00
s(dp42
S'y'
F112
sS'x'
F407
sg18
I00
s(dp43
g16
S'curve'
p44
sS'x'
F611
sg18
I01
sS'y'
F112
s(dp45
S'y'
F112
sS'x'
F716
sg18
I00
s(dp46
S'y'
F145
sS'x'
F827
sg18
I00
s(dp47
g16
S'curve'
p48
sS'x'
F901
sg18
I00
sS'y'
F202
s(dp49
g16
S'line'
p50
sS'x'
F953
sg18
I00
sS'y'
F87
s(dp51
S'y'
F19
sS'x'
F873
sg18
I00
s(dp52
S'y'
F-22
sS'x'
F747
sg18
I00
stp53
stp54
sS'components'
p55
(tsS'anchors'
p56
(tsss."
AnchorPoint: "top" 283 501 basechar 0
LayerCount: 2
Fore
SplineSet
299 -10 m 256
 146 -10 47 90 47 245 c 256
 47 409 148 514 304 514 c 256
 362 514 422 495 456 465 c 257
 439 430 l 257
 407 458 360 474 304 474 c 256
 178 474 96 384 96 245 c 256
 96 114 175 30 299 30 c 256
 362 30 413 50 454 82 c 257
 471 49 l 257
 434 13 367 -10 299 -10 c 256
EndSplineSet
EndChar

StartChar: caron
Encoding: 711 711 209
Width: 341
VWidth: 0
Flags: HW
PickledData: "(dp1
S'org.robofab.postScriptHintData'
p2
(dp3
s."
AnchorPoint: "top" 168 501 mark 0
LayerCount: 2
Fore
SplineSet
140 593 m 257
 38 724 l 257
 76 724 l 257
 167 616 l 257
 261 724 l 257
 304 724 l 257
 201 593 l 257
 140 593 l 257
EndSplineSet
EndChar

StartChar: caron.alt
Encoding: 65537 -1 210
Width: 292
VWidth: 0
Flags: HW
PickledData: "(dp1
S'org.robofab.postScriptHintData'
p2
(dp3
s."
AnchorPoint: "caron.alt" 39 501 mark 0
LayerCount: 2
Fore
SplineSet
160 528 m 257
 210 740 l 257
 267 740 l 257
 194 528 l 257
 160 528 l 257
EndSplineSet
EndChar

StartChar: cedilla
Encoding: 184 184 215
Width: 258
VWidth: 0
Flags: HW
PickledData: "(dp1
S'org.robofab.postScriptHintData'
p2
(dp3
sS'com.typemytype.robofont.layerData'
p4
(dp5
S'b'
(dp6
S'name'
p7
S'cedilla'
p8
sS'lib'
p9
(dp10
sS'unicodes'
p11
(tsS'width'
p12
I529
sS'contours'
p13
(tsS'components'
p14
(tsS'anchors'
p15
(tsss."
LayerCount: 2
Fore
SplineSet
117 -190 m 256
 77 -189 48 -174 42 -171 c 257
 48 -143 l 257
 59 -148 90 -156 113 -157 c 256
 159 -159 170 -147 170 -124 c 256
 170 -98 131 -92 84 -92 c 258
 82 -92 l 257
 98 2 l 257
 127 2 l 257
 115 -68 l 257
 155 -69 214 -75 214 -127 c 256
 214 -183 159 -191 117 -190 c 256
EndSplineSet
EndChar

StartChar: cent
Encoding: 162 162 216
Width: 473
VWidth: 0
Flags: HW
PickledData: "(dp1
S'org.robofab.postScriptHintData'
p2
(dp3
sS'com.typemytype.robofont.layerData'
p4
(dp5
S'b'
(dp6
S'name'
p7
S'cent'
p8
sS'lib'
p9
(dp10
sS'unicodes'
p11
(tsS'width'
p12
F1033.2
sS'contours'
p13
(tsS'components'
p14
(tsS'anchors'
p15
(tsss."
LayerCount: 2
Fore
SplineSet
274 -87 m 257
 311 -87 l 257
 311 -10 l 257
 375 -8 436 15 471 49 c 257
 454 82 l 257
 416 52 369 32 311 30 c 257
 311 474 l 257
 364 473 409 457 439 430 c 257
 456 465 l 257
 423 494 367 513 311 514 c 257
 311 612 l 257
 274 612 l 257
 274 512 l 257
 135 499 47 398 47 245 c 256
 47 99 135 1 274 -9 c 257
 274 -87 l 257
274 472 m 257
 274 31 l 257
 165 42 96 123 96 245 c 256
 96 373 165 459 274 472 c 257
EndSplineSet
EndChar

StartChar: circumflex
Encoding: 710 710 217
Width: 341
VWidth: 0
Flags: HW
PickledData: "(dp1
S'org.robofab.postScriptHintData'
p2
(dp3
sS'com.typemytype.robofont.layerData'
p4
(dp5
S'b'
(dp6
S'name'
p7
S'circumflex'
p8
sS'lib'
p9
(dp10
sS'unicodes'
p11
(tsS'width'
p12
I699
sS'contours'
p13
(tsS'components'
p14
(tsS'anchors'
p15
(tsss."
AnchorPoint: "top" 168 501 mark 0
LayerCount: 2
Fore
SplineSet
57 593 m 257
 157 726 l 257
 185 726 l 257
 283 593 l 257
 256 593 l 257
 168 684 l 257
 81 593 l 257
 57 593 l 257
EndSplineSet
EndChar

StartChar: colon
Encoding: 58 58 218
Width: 232
VWidth: 0
Flags: HW
PickledData: "(dp1
S'org.robofab.postScriptHintData'
p2
(dp3
sS'com.typemytype.robofont.layerData'
p4
(dp5
S'b'
(dp6
S'name'
p7
S'colon'
p8
sS'lib'
p9
(dp10
sS'unicodes'
p11
(tsS'width'
p12
F544.60000000000002
sS'contours'
p13
(tsS'components'
p14
(tsS'anchors'
p15
(tsss."
LayerCount: 2
Fore
SplineSet
79 418 m 257
 79 500 l 257
 154 500 l 257
 154 418 l 257
 79 418 l 257
79 3 m 257
 79 85 l 257
 154 85 l 257
 154 3 l 257
 79 3 l 257
EndSplineSet
EndChar

StartChar: comma
Encoding: 44 44 219
Width: 200
VWidth: 0
Flags: HW
PickledData: "(dp1
S'org.robofab.postScriptHintData'
p2
(dp3
sS'com.typemytype.robofont.layerData'
p4
(dp5
S'b'
(dp6
S'name'
p7
S'comma'
p8
sS'lib'
p9
(dp10
sS'unicodes'
p11
(tsS'width'
p12
F491.10000000000002
sS'contours'
p13
(tsS'components'
p14
(tsS'anchors'
p15
(tsss."
LayerCount: 2
Fore
SplineSet
48 -125 m 257
 98 80 l 257
 156 80 l 257
 82 -125 l 257
 48 -125 l 257
EndSplineSet
EndChar

StartChar: copyright
Encoding: 169 169 220
Width: 853
VWidth: 0
Flags: HW
PickledData: "(dp1
S'org.robofab.postScriptHintData'
p2
(dp3
sS'com.typemytype.robofont.layerData'
p4
(dp5
S'b'
(dp6
S'name'
p7
S'copyright'
p8
sS'lib'
p9
(dp10
sS'unicodes'
p11
(tsS'width'
p12
I1733
sS'contours'
p13
(tsS'components'
p14
(tsS'anchors'
p15
(tsss."
LayerCount: 2
Fore
SplineSet
426 -19 m 256
 221 -19 54 149 54 354 c 256
 54 559 221 726 426 726 c 256
 631 726 800 559 800 354 c 256
 800 149 631 -19 426 -19 c 256
428 22 m 256
 607 22 752 173 752 351 c 256
 752 530 607 680 428 680 c 256
 248 680 102 530 102 351 c 256
 102 173 248 22 428 22 c 256
438 130 m 256
 317 130 230 202 230 349 c 256
 230 498 328 579 444 579 c 256
 485 579 531 564 559 537 c 257
 546 507 l 257
 519 529 475 541 440 541 c 256
 374 541 274 504 274 350 c 256
 274 238 332 167 430 167 c 256
 467 167 519 173 558 202 c 257
 572 171 l 257
 548 149 500 130 438 130 c 256
EndSplineSet
EndChar

StartChar: currency
Encoding: 164 164 221
Width: 594
VWidth: 0
Flags: HW
PickledData: "(dp1
S'org.robofab.postScriptHintData'
p2
(dp3
s."
LayerCount: 2
Fore
SplineSet
297 349 m 256
 382 349 445 418 445 503 c 256
 445 588 382 652 297 652 c 256
 212 652 150 588 150 503 c 256
 150 418 212 349 297 349 c 256
83 267 m 257
 59 292 l 257
 150 383 l 257
 123 415 107 457 107 502 c 256
 107 549 124 592 153 625 c 257
 58 720 l 257
 83 745 l 257
 179 649 l 257
 211 674 253 690 298 690 c 256
 343 690 384 675 417 650 c 257
 512 745 l 257
 537 720 l 257
 442 626 l 257
 471 593 489 550 489 502 c 256
 489 457 473 415 446 382 c 257
 537 292 l 257
 512 267 l 257
 421 358 l 257
 388 331 345 314 298 314 c 256
 251 314 208 330 175 358 c 257
 83 267 l 257
EndSplineSet
EndChar

StartChar: d
Encoding: 100 100 222
Width: 613
VWidth: 0
Flags: HW
PickledData: "(dp1
S'org.robofab.postScriptHintData'
p2
(dp3
sS'com.typemytype.robofont.layerData'
p4
(dp5
S'b'
(dp6
S'name'
p7
S'd'
sS'lib'
p8
(dp9
sS'unicodes'
p10
(tsS'width'
p11
F1265.05
sS'contours'
p12
(tsS'components'
p13
(tsS'anchors'
p14
(tsss."
AnchorPoint: "caron.alt" 445 501 basechar 0
AnchorPoint: "top" 284 501 basechar 0
LayerCount: 2
Fore
SplineSet
273 30 m 256
 393 30 470 118 470 254 c 256
 470 388 393 474 273 474 c 256
 159 474 95 388 95 254 c 256
 95 118 159 30 273 30 c 256
273 -10 m 256
 135 -10 47 93 47 254 c 256
 47 412 135 514 273 514 c 256
 361 514 439 465 470 390 c 257
 470 740 l 257
 518 740 l 257
 518 131 l 258
 518 79 521 1 521 0 c 258
 473 0 l 257
 470 117 l 257
 442 40 365 -10 273 -10 c 256
EndSplineSet
EndChar

StartChar: dagger
Encoding: 8224 8224 223
Width: 499
VWidth: 0
Flags: HW
PickledData: "(dp1
S'org.robofab.postScriptHintData'
p2
(dp3
s."
LayerCount: 2
Fore
SplineSet
221 0 m 257
 221 483 l 257
 58 483 l 257
 58 521 l 257
 221 521 l 257
 221 719 l 257
 274 719 l 257
 274 521 l 257
 438 521 l 257
 438 483 l 257
 274 483 l 257
 274 0 l 257
 221 0 l 257
EndSplineSet
EndChar

StartChar: daggerdbl
Encoding: 8225 8225 224
Width: 474
VWidth: 0
Flags: HW
PickledData: "(dp1
S'org.robofab.postScriptHintData'
p2
(dp3
sS'com.typemytype.robofont.layerData'
p4
(dp5
S'b'
(dp6
S'name'
p7
S'daggerdbl'
p8
sS'lib'
p9
(dp10
sS'unicodes'
p11
(tsS'width'
p12
F1092.6500000000001
sS'contours'
p13
(tsS'components'
p14
(tsS'anchors'
p15
(tsss."
LayerCount: 2
Fore
SplineSet
43 521 m 257
 207 521 l 257
 207 719 l 257
 260 719 l 257
 260 521 l 257
 423 521 l 257
 423 483 l 257
 260 483 l 257
 260 236 l 257
 423 236 l 257
 423 198 l 257
 260 198 l 257
 260 0 l 257
 207 0 l 257
 207 198 l 257
 43 198 l 257
 43 236 l 257
 207 236 l 257
 207 483 l 257
 43 483 l 257
 43 521 l 257
EndSplineSet
EndChar

StartChar: degree
Encoding: 176 176 228
Width: 396
VWidth: 0
Flags: HW
PickledData: "(dp1
S'org.robofab.postScriptHintData'
p2
(dp3
sS'com.typemytype.robofont.layerData'
p4
(dp5
S'b'
(dp6
S'name'
p7
S'degree'
p8
sS'lib'
p9
(dp10
sS'unicodes'
p11
(tsS'width'
p12
F856.60000000000002
sS'contours'
p13
(tsS'components'
p14
(tsS'anchors'
p15
(tsss."
LayerCount: 2
Fore
SplineSet
198 419 m 256
 114 419 56 484 56 559 c 256
 56 635 113 697 198 697 c 256
 283 697 340 635 340 559 c 256
 340 484 282 419 198 419 c 256
198 461 m 256
 264 461 293 510 293 560 c 256
 293 610 261 657 198 657 c 256
 134 657 102 610 102 560 c 256
 102 510 132 461 198 461 c 256
EndSplineSet
EndChar

StartChar: dieresis
Encoding: 168 168 229
Width: 362
VWidth: 0
Flags: HW
PickledData: "(dp1
S'org.robofab.postScriptHintData'
p2
(dp3
s."
AnchorPoint: "top" 183 501 mark 0
LayerCount: 2
Fore
SplineSet
240 591 m 257
 240 644 l 257
 289 644 l 257
 289 591 l 257
 240 591 l 257
76 591 m 257
 76 644 l 257
 124 644 l 257
 124 591 l 257
 76 591 l 257
EndSplineSet
EndChar

StartChar: divide
Encoding: 247 247 230
Width: 491
VWidth: 0
Flags: HW
PickledData: "(dp1
S'org.robofab.postScriptHintData'
p2
(dp3
s."
LayerCount: 2
Fore
SplineSet
225 438 m 257
 225 519 l 257
 301 519 l 257
 301 438 l 257
 225 438 l 257
62 250 m 257
 62 294 l 257
 456 294 l 257
 456 250 l 257
 62 250 l 257
224 24 m 257
 224 105 l 257
 299 105 l 257
 299 24 l 257
 224 24 l 257
EndSplineSet
EndChar

StartChar: dollar
Encoding: 36 36 232
Width: 558
VWidth: 0
Flags: HW
PickledData: "(dp1
S'org.robofab.postScriptHintData'
p2
(dp3
sS'com.typemytype.robofont.layerData'
p4
(dp5
S'b'
(dp6
S'name'
p7
S'dollar'
p8
sS'lib'
p9
(dp10
sS'unicodes'
p11
(tsS'width'
p12
F1200.0999999999999
sS'contours'
p13
(tsS'components'
p14
(tsS'anchors'
p15
(tsss."
LayerCount: 2
Fore
SplineSet
272 -94 m 257
 309 -94 l 257
 309 -9 l 257
 432 -1 505 72 508 177 c 256
 511 286 479 341 315 383 c 258
 309 384 l 257
 309 680 l 257
 395 674 438 638 452 624 c 257
 475 660 l 257
 464 669 420 715 309 722 c 257
 309 792 l 257
 272 792 l 257
 272 723 l 257
 140 720 62 652 62 543 c 256
 62 431 122 386 231 357 c 258
 272 347 l 257
 272 32 l 257
 168 36 116 86 94 105 c 257
 69 69 l 257
 86 56 145 -6 272 -10 c 257
 272 -94 l 257
309 33 m 257
 309 337 l 257
 431 304 461 269 458 176 c 256
 455 97 400 41 309 33 c 257
272 681 m 257
 272 394 l 257
 243 401 l 258
 143 427 115 459 115 543 c 256
 115 627 172 678 272 681 c 257
EndSplineSet
EndChar

StartChar: dotaccent
Encoding: 729 729 233
Width: 255
VWidth: 0
Flags: HW
PickledData: "(dp1
S'org.robofab.postScriptHintData'
p2
(dp3
sS'com.typemytype.robofont.layerData'
p4
(dp5
S'b'
(dp6
S'name'
p7
S'dotaccent'
p8
sS'lib'
p9
(dp10
sS'unicodes'
p11
(tsS'width'
p12
F524
sS'contours'
p13
(tsS'components'
p14
(tsS'anchors'
p15
(tsss."
AnchorPoint: "top" 128 501 mark 0
LayerCount: 2
Fore
SplineSet
98 604 m 257
 98 666 l 257
 158 666 l 257
 158 604 l 257
 98 604 l 257
EndSplineSet
EndChar

StartChar: dotlessi
Encoding: 305 305 234
Width: 230
VWidth: 0
Flags: HW
PickledData: "(dp1
S'org.robofab.postScriptHintData'
p2
(dp3
s."
AnchorPoint: "top" 116 501 basechar 0
LayerCount: 2
Fore
SplineSet
91 0 m 257
 90 501 l 257
 140 501 l 257
 141 0 l 257
 91 0 l 257
EndSplineSet
EndChar

StartChar: uni0237
Encoding: 567 567 235
Width: 245
VWidth: 0
Flags: HW
PickledData: "(dp1
S'org.robofab.postScriptHintData'
p2
(dp3
s."
AnchorPoint: "top" 131 501 basechar 0
LayerCount: 2
Fore
SplineSet
150 11 m 258
 150 -104 122 -202 0 -202 c 256
 -12 -202 -24 -201 -38 -199 c 257
 -39 -162 l 257
 -27 -163 -15 -164 -5 -164 c 256
 79 -164 102 -110 102 5 c 258
 102 501 l 257
 150 501 l 257
 150 11 l 258
EndSplineSet
EndChar

StartChar: e
Encoding: 101 101 238
Width: 553
VWidth: 0
Flags: HW
PickledData: "(dp1
S'org.robofab.postScriptHintData'
p2
(dp3
sS'com.typemytype.robofont.guides'
p4
(tsS'com.typemytype.robofont.layerData'
p5
(dp6
S'b'
(dp7
S'name'
p8
S'e'
sS'lib'
p9
(dp10
sS'unicodes'
p11
(tsS'width'
p12
F1169.75
sS'contours'
p13
(tsS'components'
p14
(tsS'anchors'
p15
(tsss."
AnchorPoint: "top" 286 501 basechar 0
LayerCount: 2
Fore
SplineSet
99 282 m 257
 470 282 l 257
 464 399 393 474 289 474 c 256
 183 474 108 399 99 282 c 257
301 -10 m 256
 147 -10 47 91 47 248 c 256
 47 410 142 514 289 514 c 256
 424 514 510 421 510 276 c 258
 510 248 l 257
 96 248 l 257
 95 116 175 30 301 30 c 256
 364 30 426 51 470 86 c 257
 487 53 l 257
 441 14 368 -10 301 -10 c 256
EndSplineSet
EndChar

StartChar: eight
Encoding: 56 56 247
Width: 575
VWidth: 0
Flags: HW
PickledData: "(dp1
S'org.robofab.postScriptHintData'
p2
(dp3
sS'com.typemytype.robofont.layerData'
p4
(dp5
S'b'
(dp6
S'name'
p7
S'eight'
p8
sS'lib'
p9
(dp10
sS'unicodes'
p11
(tsS'width'
p12
F1235.45
sS'contours'
p13
(tsS'components'
p14
(tsS'anchors'
p15
(tsss."
LayerCount: 2
Fore
SplineSet
288 401 m 257
 392 417 447 463 447 545 c 256
 447 636 372 684 288 684 c 256
 207 684 130 634 130 549 c 256
 130 464 186 418 288 401 c 257
287 35 m 256
 388 35 460 90 460 183 c 256
 460 280 391 320 285 340 c 257
 184 320 114 275 114 184 c 256
 114 87 189 35 287 35 c 256
286 -11 m 256
 177 -11 63 54 63 176 c 256
 63 274 120 345 232 372 c 257
 133 394 81 459 81 549 c 256
 81 659 177 724 289 724 c 256
 393 724 495 661 495 553 c 256
 495 464 441 399 343 374 c 257
 461 345 512 279 512 179 c 256
 512 57 406 -11 286 -11 c 256
EndSplineSet
EndChar

StartChar: ellipsis
Encoding: 8230 8230 249
Width: 791
VWidth: 0
Flags: HW
PickledData: "(dp1
S'org.robofab.postScriptHintData'
p2
(dp3
s."
LayerCount: 2
Fore
SplineSet
635 -5 m 257
 635 76 l 257
 711 76 l 257
 711 -5 l 257
 635 -5 l 257
365 -5 m 257
 365 76 l 257
 439 76 l 257
 439 -5 l 257
 365 -5 l 257
94 -5 m 257
 94 76 l 257
 169 76 l 257
 168 -5 l 257
 94 -5 l 257
EndSplineSet
EndChar

StartChar: emdash
Encoding: 8212 8212 251
Width: 1060
VWidth: 0
Flags: HW
PickledData: "(dp1
S'org.robofab.postScriptHintData'
p2
(dp3
s."
LayerCount: 2
Fore
SplineSet
-21 251 m 257
 -21 295 l 257
 1066 295 l 257
 1066 251 l 257
 -21 251 l 257
EndSplineSet
EndChar

StartChar: endash
Encoding: 8211 8211 252
Width: 520
VWidth: 0
Flags: HW
PickledData: "(dp1
S'org.robofab.postScriptHintData'
p2
(dp3
s."
LayerCount: 2
Fore
SplineSet
-6 251 m 257
 -6 295 l 257
 520 295 l 257
 520 251 l 257
 -6 251 l 257
EndSplineSet
EndChar

StartChar: eng
Encoding: 331 331 253
Width: 632
VWidth: 0
Flags: HW
PickledData: "(dp1
S'org.robofab.postScriptHintData'
p2
(dp3
s."
LayerCount: 2
Fore
SplineSet
341 -190 m 257
 341 -149 l 257
 492 -149 488 -54 488 80 c 258
 488 235 l 258
 488 366 477 470 339 470 c 256
 202 470 148 353 148 331 c 258
 148 0 l 257
 99 0 l 257
 99 430 l 258
 99 449 101 501 101 501 c 257
 146 501 l 257
 150 434 l 257
 197 487 252 513 346 513 c 256
 519 513 539 378 539 256 c 258
 539 76 l 258
 539 -83 530 -190 341 -190 c 257
EndSplineSet
EndChar

StartChar: equal
Encoding: 61 61 255
Width: 507
VWidth: 0
Flags: HW
PickledData: "(dp1
S'org.robofab.postScriptHintData'
p2
(dp3
sS'com.typemytype.robofont.layerData'
p4
(dp5
S'b'
(dp6
S'name'
p7
S'equal'
p8
sS'lib'
p9
(dp10
sS'unicodes'
p11
(tsS'width'
p12
I1229
sS'contours'
p13
(tsS'components'
p14
(tsS'anchors'
p15
(tsss."
LayerCount: 2
Fore
SplineSet
54 344 m 257
 54 390 l 257
 454 390 l 257
 454 344 l 257
 54 344 l 257
55 163 m 257
 55 208 l 257
 454 208 l 257
 454 163 l 257
 55 163 l 257
EndSplineSet
EndChar

StartChar: estimated
Encoding: 8494 8494 256
Width: 578
VWidth: 0
Flags: HW
PickledData: "(dp1
S'org.robofab.postScriptHintData'
p2
(dp3
s."
LayerCount: 2
Fore
SplineSet
135 348 m 257
 448 348 l 257
 448 506 385 557 297 557 c 256
 219 557 136 506 135 348 c 257
306 56 m 256
 167 56 71 143 71 318 c 256
 71 512 184 585 298 585 c 256
 413 585 500 525 500 342 c 256
 500 337 500 328 498 320 c 257
 135 320 l 257
 134 138 220 86 318 86 c 256
 368 86 441 106 502 146 c 257
 516 121 l 257
 450 78 375 56 306 56 c 256
EndSplineSet
EndChar

StartChar: eth
Encoding: 240 240 257
Width: 601
VWidth: 0
Flags: HW
PickledData: "(dp1
S'org.robofab.postScriptHintData'
p2
(dp3
sS'com.typemytype.robofont.layerData'
p4
(dp5
S'b'
(dp6
S'name'
p7
S'eth'
p8
sS'lib'
p9
(dp10
sS'unicodes'
p11
(tsS'width'
p12
F1222.55
sS'contours'
p13
(tsS'components'
p14
(tsS'anchors'
p15
(tsss."
LayerCount: 2
Fore
SplineSet
302 29 m 256
 421 29 485 111 485 237 c 256
 485 330 406 395 294 395 c 256
 177 395 110 322 110 210 c 256
 110 100 181 29 302 29 c 256
302 -11 m 256
 152 -11 61 75 61 210 c 256
 61 347 147 435 294 435 c 256
 401 435 466 380 495 330 c 257
 488 456 444 553 336 628 c 257
 257 568 l 257
 233 601 l 257
 299 651 l 257
 255 676 202 699 140 719 c 257
 161 756 l 257
 226 736 284 712 336 680 c 257
 417 742 l 257
 442 710 l 257
 372 656 l 257
 474 580 537 468 537 294 c 256
 537 103 456 -11 302 -11 c 256
EndSplineSet
EndChar

StartChar: exclam
Encoding: 33 33 259
Width: 215
VWidth: 0
Flags: HW
PickledData: "(dp1
S'org.robofab.postScriptHintData'
p2
(dp3
sS'com.typemytype.robofont.layerData'
p4
(dp5
S'b'
(dp6
S'name'
p7
S'exclam'
p8
sS'lib'
p9
(dp10
sS'unicodes'
p11
(tsS'width'
p12
F590
sS'contours'
p13
(tsS'components'
p14
(tsS'anchors'
p15
(tsss."
LayerCount: 2
Fore
SplineSet
96 177 m 257
 80 711 l 257
 139 711 l 257
 123 177 l 257
 96 177 l 257
70 0 m 257
 70 78 l 257
 146 78 l 257
 146 0 l 257
 70 0 l 257
EndSplineSet
EndChar

StartChar: exclamdown
Encoding: 161 161 260
Width: 190
VWidth: 0
Flags: HW
PickledData: "(dp1
S'org.robofab.postScriptHintData'
p2
(dp3
sS'com.typemytype.robofont.layerData'
p4
(dp5
S'b'
(dp6
S'name'
p7
S'exclamdown'
p8
sS'lib'
p9
(dp10
sS'unicodes'
p11
(tsS'width'
p12
F614.5
sS'contours'
p13
(tsS'components'
p14
(tsS'anchors'
p15
(tsss."
LayerCount: 2
Fore
SplineSet
53 539 m 257
 129 539 l 257
 129 461 l 257
 53 461 l 257
 53 539 l 257
79 362 m 257
 106 362 l 257
 122 -172 l 257
 63 -172 l 257
 79 362 l 257
EndSplineSet
EndChar

StartChar: f
Encoding: 102 102 261
Width: 294
VWidth: 0
Flags: HW
PickledData: "(dp1
S'org.robofab.postScriptHintData'
p2
(dp3
sS'com.typemytype.robofont.layerData'
p4
(dp5
S'b'
(dp6
S'name'
p7
S'f'
sS'lib'
p8
(dp9
sS'unicodes'
p10
(tsS'width'
p11
F733.10000000000002
sS'contours'
p12
(tsS'components'
p13
(tsS'anchors'
p14
(tsss."
AnchorPoint: "top" 138 711 basechar 0
LayerCount: 2
Fore
SplineSet
118 0 m 257
 118 469 l 257
 33 469 l 257
 33 501 l 257
 118 501 l 257
 118 578 l 258
 118 686 144 732 284 732 c 258
 301 732 l 257
 301 691 l 257
 170 691 166 665 166 590 c 258
 166 501 l 257
 294 501 l 257
 294 469 l 257
 166 469 l 257
 166 0 l 257
 118 0 l 257
EndSplineSet
EndChar

StartChar: uniFB00
Encoding: 64256 64256 262
Width: 588
VWidth: 0
Flags: HW
PickledData: "(dp1
S'org.robofab.postScriptHintData'
p2
(dp3
s."
AnchorPoint: "top" 431 711 basechar 0
LayerCount: 2
Fore
SplineSet
459 469 m 257
 459 0 l 257
 411 0 l 257
 411 469 l 257
 165 469 l 257
 165 0 l 257
 117 0 l 257
 117 469 l 257
 32 469 l 257
 32 501 l 257
 117 501 l 257
 117 572 l 258
 117 680 143 732 283 732 c 258
 303 732 l 257
 306 691 l 257
 174 691 165 655 165 590 c 258
 165 501 l 257
 411 501 l 257
 411 572 l 258
 411 680 437 732 577 732 c 258
 597 732 l 257
 600 691 l 257
 468 691 459 655 459 590 c 258
 459 501 l 257
 587 501 l 257
 587 469 l 257
 459 469 l 257
EndSplineSet
EndChar

StartChar: uniFB03
Encoding: 64259 64259 263
Width: 828
VWidth: 0
Flags: HW
PickledData: "(dp1
S'org.robofab.postScriptHintData'
p2
(dp3
s."
AnchorPoint: "top" 431 711 basechar 0
LayerCount: 2
Fore
SplineSet
729 657 m 257
 682 657 l 257
 682 711 l 257
 729 711 l 257
 729 657 l 257
729 0 m 257
 682 0 l 257
 682 469 l 257
 459 469 l 257
 459 0 l 257
 411 0 l 257
 411 469 l 257
 165 469 l 257
 165 0 l 257
 117 0 l 257
 117 469 l 257
 32 469 l 257
 32 501 l 257
 117 501 l 257
 117 572 l 258
 117 680 143 732 283 732 c 258
 303 732 l 257
 306 691 l 257
 174 691 165 655 165 590 c 258
 165 501 l 257
 411 501 l 257
 411 572 l 258
 411 680 437 732 577 732 c 258
 597 732 l 257
 600 691 l 257
 468 691 459 655 459 590 c 258
 459 501 l 257
 729 501 l 257
 729 0 l 257
EndSplineSet
EndChar

StartChar: uniFB04
Encoding: 64260 64260 264
Width: 836
VWidth: 0
Flags: HW
PickledData: "(dp1
S'org.robofab.postScriptHintData'
p2
(dp3
s."
AnchorPoint: "top" 137 711 basechar 0
LayerCount: 2
Fore
SplineSet
117 0 m 257
 117 469 l 257
 32 469 l 257
 32 501 l 257
 117 501 l 257
 117 572 l 258
 117 680 143 732 283 732 c 258
 303 732 l 257
 306 691 l 257
 174 691 165 655 165 590 c 258
 165 501 l 257
 293 501 l 257
 293 469 l 257
 165 469 l 257
 165 0 l 257
 117 0 l 257
EndSplineSet
Refer: 269 64258 N 1 0 0 1 247 0 2
EndChar

StartChar: uniFB01
Encoding: 64257 64257 266
Width: 573
VWidth: 0
Flags: HW
PickledData: "(dp1
S'org.robofab.postScriptHintData'
p2
(dp3
sS'com.typemytype.robofont.layerData'
p4
(dp5
S'b'
(dp6
S'name'
p7
S'fi'
p8
sS'lib'
p9
(dp10
sS'unicodes'
p11
(tsS'width'
p12
F1237.6500000000001
sS'contours'
p13
((dp14
S'points'
p15
((dp16
S'segmentType'
p17
S'line'
p18
sS'x'
F249
sS'smooth'
p19
I00
sS'y'
F0
s(dp20
g17
S'line'
p21
sS'x'
F249
sg19
I00
sS'y'
F919
s(dp22
g17
S'line'
p23
sS'x'
F68
sg19
I00
sS'y'
F919
s(dp24
g17
S'line'
p25
sS'x'
F68
sg19
I00
sS'y'
F1026
s(dp26
g17
S'line'
p27
sS'x'
F249
sg19
I00
sS'y'
F1026
s(dp28
g17
S'line'
p29
sS'x'
F249
sg19
I01
sS'y'
F1127
s(dp30
S'y'
F1378
sS'x'
F249
sg19
I00
s(dp31
S'y'
F1492
sS'x'
F295
sg19
I00
s(dp32
g17
S'curve'
p33
sS'x'
F630
sg19
I01
sS'y'
F1492
s(dp34
g17
S'line'
p35
sS'x'
F676
sg19
I00
sS'y'
F1492
s(dp36
g17
S'line'
p37
sS'x'
F676
sg19
I00
sS'y'
F1364
s(dp38
S'y'
F1364
sS'x'
F431
sg19
I00
s(dp39
S'y'
F1311
sS'x'
F413
sg19
I00
s(dp40
g17
S'curve'
p41
sS'x'
F413
sg19
I01
sS'y'
F1150
s(dp42
g17
S'line'
p43
sS'x'
F413
sg19
I00
sS'y'
F1026
s(dp44
g17
S'line'
p45
sS'x'
F662
sg19
I00
sS'y'
F1026
s(dp46
g17
S'line'
p47
sS'x'
F662
sg19
I00
sS'y'
F919
s(dp48
g17
S'line'
p49
sS'x'
F413
sg19
I00
sS'y'
F919
s(dp50
g17
S'line'
p51
sS'x'
F413
sg19
I00
sS'y'
F0
stp52
s(dp53
g15
((dp54
g17
S'line'
p55
sS'x'
F869
sg19
I00
sS'y'
F0
s(dp56
g17
S'line'
p57
sS'x'
F869
sg19
I00
sS'y'
F1026
s(dp58
g17
S'line'
p59
sS'x'
F1033
sg19
I00
sS'y'
F1026
s(dp60
g17
S'line'
p61
sS'x'
F1033
sg19
I00
sS'y'
F0
stp62
s(dp63
g15
((dp64
g17
S'line'
p65
sS'x'
F869
sg19
I00
sS'y'
F1307
s(dp66
g17
S'line'
p67
sS'x'
F869
sg19
I00
sS'y'
F1462
s(dp68
g17
S'line'
p69
sS'x'
F1033
sg19
I00
sS'y'
F1462
s(dp70
g17
S'line'
p71
sS'x'
F1033
sg19
I00
sS'y'
F1307
stp72
stp73
sS'components'
p74
(tsS'anchors'
p75
(tsss."
LayerCount: 2
Fore
SplineSet
118 0 m 257
 173 0 l 257
 173 466 l 257
 417 466 l 257
 417 0 l 257
 464 0 l 257
 464 501 l 257
 173 501 l 257
 173 585 l 258
 173 652 182 687 312 687 c 257
 309 731 l 257
 288 731 l 258
 144 731 118 679 118 568 c 258
 118 501 l 257
 33 501 l 257
 33 466 l 257
 118 466 l 257
 118 0 l 257
417 657 m 257
 417 711 l 257
 464 711 l 257
 464 657 l 257
 417 657 l 257
EndSplineSet
EndChar

StartChar: five
Encoding: 53 53 267
Width: 574
VWidth: 0
Flags: HW
PickledData: "(dp1
S'org.robofab.postScriptHintData'
p2
(dp3
s."
LayerCount: 2
Fore
SplineSet
272 -11 m 256
 205 -11 133 10 74 53 c 257
 92 91 l 257
 151 50 217 29 277 29 c 256
 379 29 462 90 462 219 c 256
 462 325 393 394 287 394 c 256
 224 394 165 365 137 320 c 257
 97 329 l 257
 106 711 l 257
 464 711 l 257
 464 667 l 257
 154 667 l 257
 140 376 l 257
 171 412 229 436 287 436 c 256
 426 436 516 350 516 218 c 256
 516 66 400 -11 272 -11 c 256
EndSplineSet
EndChar

StartChar: uniFB02
Encoding: 64258 64258 269
Width: 600
VWidth: 0
Flags: HW
PickledData: "(dp1
S'org.robofab.postScriptHintData'
p2
(dp3
sS'com.typemytype.robofont.layerData'
p4
(dp5
S'b'
(dp6
S'name'
p7
S'fl'
p8
sS'lib'
p9
(dp10
sS'unicodes'
p11
(tsS'width'
p12
F1252.7
sS'contours'
p13
(tsS'components'
p14
((dp15
S'transformation'
p16
(I1
I0
I0
I1
I20
I0
tp17
sS'baseGlyph'
p18
S'f'
s(dp19
g16
(I1
I0
I0
I1
I714
I0
tp20
sg18
S'l'
stp21
sS'anchors'
p22
(tsss."
LayerCount: 2
Fore
SplineSet
135 0 m 257
 135 469 l 257
 33 469 l 257
 33 501 l 257
 135 501 l 257
 135 564 l 258
 135 678 183 717 383 717 c 258
 501 717 l 257
 501 0 l 257
 446 0 l 257
 446 674 l 257
 368 674 l 258
 212 674 189 650 189 567 c 258
 189 501 l 257
 316 501 l 257
 316 469 l 257
 189 469 l 257
 189 0 l 257
 135 0 l 257
EndSplineSet
EndChar

StartChar: florin
Encoding: 402 402 270
Width: 496
VWidth: 0
Flags: HW
PickledData: "(dp1
S'org.robofab.postScriptHintData'
p2
(dp3
sS'com.typemytype.robofont.layerData'
p4
(dp5
S'b'
(dp6
S'name'
p7
S'florin'
p8
sS'lib'
p9
(dp10
sS'unicodes'
p11
(tsS'width'
p12
F1073.0999999999999
sS'contours'
p13
(tsS'components'
p14
(tsS'anchors'
p15
(tsss."
LayerCount: 2
Fore
SplineSet
96 -135 m 256
 73 -135 64 -132 47 -128 c 257
 52 -84 l 257
 52 -84 72 -90 83 -90 c 256
 148 -90 171 -45 177 -17 c 258
 271 505 l 257
 187 505 l 257
 188 543 l 257
 277 543 l 257
 279 562 l 258
 292 664 330 729 429 729 c 256
 444 729 486 719 486 719 c 257
 479 675 l 257
 479 675 456 684 431 684 c 256
 350 684 340 643 334 604 c 257
 320 543 l 257
 439 543 l 257
 431 505 l 257
 317 505 l 257
 240 67 l 258
 222 -36 228 -135 96 -135 c 256
EndSplineSet
EndChar

StartChar: foundryicon
Encoding: 65539 -1 271
Width: 657
VWidth: 0
Flags: HW
PickledData: "(dp1
S'org.robofab.postScriptHintData'
p2
(dp3
s."
LayerCount: 2
Fore
SplineSet
237 198 m 257
 289 198 l 257
 289 270 l 257
 372 198 l 257
 423 198 l 257
 423 328 l 257
 372 328 l 257
 372 255 l 257
 289 328 l 257
 237 328 l 257
 237 198 l 257
137 1 m 257
 207 225 l 257
 17 369 l 257
 253 369 l 257
 327 593 l 257
 404 369 l 257
 641 369 l 257
 450 225 l 257
 521 1 l 257
 327 136 l 257
 137 1 l 257
EndSplineSet
EndChar

StartChar: four
Encoding: 52 52 272
Width: 574
VWidth: 0
Flags: HW
PickledData: "(dp1
S'org.robofab.postScriptHintData'
p2
(dp3
sS'com.typemytype.robofont.layerData'
p4
(dp5
S'b'
(dp6
S'name'
p7
S'four'
p8
sS'lib'
p9
(dp10
sS'unicodes'
p11
(tsS'width'
p12
F1234.0999999999999
sS'contours'
p13
(tsS'components'
p14
(tsS'anchors'
p15
(tsss."
LayerCount: 2
Fore
SplineSet
108 237 m 257
 374 237 l 257
 374 677 l 257
 297 550 l 257
 108 237 l 257
375 0 m 257
 375 191 l 257
 49 191 l 257
 49 232 l 257
 342 711 l 257
 430 711 l 257
 430 237 l 257
 529 237 l 257
 529 191 l 257
 428 191 l 257
 428 0 l 257
 375 0 l 257
EndSplineSet
EndChar

StartChar: uni2074
Encoding: 8308 8308 273
Width: 437
VWidth: 0
Flags: HW
PickledData: "(dp1
S'org.robofab.postScriptHintData'
p2
(dp3
s."
LayerCount: 2
Fore
SplineSet
109 452 m 257
 259 452 l 257
 259 667 l 257
 109 452 l 257
260 327 m 257
 260 417 l 257
 67 417 l 257
 67 451 l 257
 250 711 l 257
 298 711 l 257
 298 452 l 257
 338 452 l 257
 338 417 l 257
 296 417 l 257
 296 327 l 257
 260 327 l 257
EndSplineSet
EndChar

StartChar: fraction
Encoding: 8260 8260 274
Width: 485
VWidth: 0
Flags: HW
PickledData: "(dp1
S'org.robofab.postScriptHintData'
p2
(dp3
sS'com.typemytype.robofont.layerData'
p4
(dp5
S'b'
(dp6
S'name'
p7
S'fraction'
p8
sS'lib'
p9
(dp10
sS'unicodes'
p11
(tsS'width'
p12
F1077.8
sS'contours'
p13
(tsS'components'
p14
(tsS'anchors'
p15
(tsss."
LayerCount: 2
Fore
SplineSet
0 0 m 257
 449 711 l 257
 485 711 l 257
 38 0 l 257
 0 0 l 257
EndSplineSet
EndChar

StartChar: g
Encoding: 103 103 275
Width: 619
VWidth: 0
Flags: HW
PickledData: "(dp1
S'org.robofab.postScriptHintData'
p2
(dp3
sS'com.typemytype.robofont.layerData'
p4
(dp5
S'b'
(dp6
S'name'
p7
S'g'
sS'lib'
p8
(dp9
sS'unicodes'
p10
(tsS'width'
p11
I1254
sS'contours'
p12
((dp13
S'points'
p14
((dp15
S'segmentType'
p16
S'curve'
p17
sS'x'
F580
sS'smooth'
p18
I01
sS'y'
F134
s(dp19
S'y'
F134
sS'x'
F799
sg18
I00
s(dp20
S'y'
F295
sS'x'
F920
sg18
I00
s(dp21
g16
S'curve'
p22
sS'x'
F920
sg18
I01
sS'y'
F550
s(dp23
S'y'
F775
sS'x'
F920
sg18
I00
s(dp24
S'y'
F918
sS'x'
F796
sg18
I00
s(dp25
g16
S'curve'
p26
sS'x'
F600
sg18
I01
sS'y'
F918
s(dp27
S'y'
F918
sS'x'
F399
sg18
I00
s(dp28
S'y'
F762
sS'x'
F268
sg18
I00
s(dp29
g16
S'curve'
p30
sS'x'
F268
sg18
I01
sS'y'
F515
s(dp31
S'y'
F282
sS'x'
F268
sg18
I00
s(dp32
S'y'
F134
sS'x'
F389
sg18
I00
stp33
s(dp34
g14
((dp35
g16
S'curve'
p36
sS'x'
F534
sg18
I01
sS'y'
F-420
s(dp37
S'y'
F-420
sS'x'
F408
sg18
I00
s(dp38
S'y'
F-381
sS'x'
F289
sg18
I00
s(dp39
g16
S'curve'
p40
sS'x'
F189
sg18
I00
sS'y'
F-331
s(dp41
g16
S'line'
p42
sS'x'
F216
sg18
I00
sS'y'
F-187
s(dp43
S'y'
F-238
sS'x'
F300
sg18
I00
s(dp44
S'y'
F-282
sS'x'
F416
sg18
I00
s(dp45
g16
S'curve'
p46
sS'x'
F528
sg18
I01
sS'y'
F-282
s(dp47
S'y'
F-282
sS'x'
F790
sg18
I00
s(dp48
S'y'
F-183
sS'x'
F920
sg18
I00
s(dp49
g16
S'curve'
p50
sS'x'
F920
sg18
I01
sS'y'
F49
s(dp51
g16
S'line'
p52
sS'x'
F920
sg18
I00
sS'y'
F273
s(dp53
g16
S'line'
p54
sS'x'
F948
sg18
I00
sS'y'
F253
s(dp55
S'y'
F139
sS'x'
F905
sg18
I00
s(dp56
S'y'
F0
sS'x'
F802
sg18
I00
s(dp57
g16
S'curve'
p58
sS'x'
F579
sg18
I01
sS'y'
F0
s(dp59
S'y'
F0
sS'x'
F298
sg18
I00
s(dp60
S'y'
F201
sS'x'
F98
sg18
I00
s(dp61
g16
S'curve'
p62
sS'x'
F98
sg18
I01
sS'y'
F511
s(dp63
S'y'
F843
sS'x'
F98
sg18
I00
s(dp64
S'y'
F1052
sS'x'
F284
sg18
I00
s(dp65
g16
S'curve'
p66
sS'x'
F579
sg18
I01
sS'y'
F1052
s(dp67
S'y'
F1052
sS'x'
F820
sg18
I00
s(dp68
S'y'
F900
sS'x'
F903
sg18
I00
s(dp69
g16
S'curve'
p70
sS'x'
F958
sg18
I00
sS'y'
F798
s(dp71
g16
S'line'
p72
sS'x'
F919
sg18
I00
sS'y'
F787
s(dp73
g16
S'line'
p74
sS'x'
F926
sg18
I00
sS'y'
F1026
s(dp75
g16
S'line'
p76
sS'x'
F1090
sg18
I00
sS'y'
F1026
s(dp77
S'y'
F1026
sS'x'
F1090
sg18
I00
s(dp78
S'y'
F857
sS'x'
F1084
sg18
I00
s(dp79
g16
S'curve'
p80
sS'x'
F1084
sg18
I01
sS'y'
F773
s(dp81
g16
S'line'
p82
sS'x'
F1084
sg18
I01
sS'y'
F143
s(dp83
S'y'
F-255
sS'x'
F1084
sg18
I00
s(dp84
S'y'
F-420
sS'x'
F903
sg18
I00
stp85
stp86
sS'components'
p87
(tsS'anchors'
p88
(tsss."
AnchorPoint: "top" 283 501 basechar 0
LayerCount: 2
Fore
SplineSet
275 32 m 256
 395 32 472 118 472 251 c 256
 472 387 398 474 283 474 c 256
 169 474 96 387 96 251 c 256
 96 118 166 32 275 32 c 256
271 -216 m 256
 216 -216 157 -207 101 -184 c 257
 107 -142 l 257
 163 -164 222 -175 271 -175 c 256
 387 -175 472 -112 472 56 c 258
 472 115 l 257
 442 35 364 -8 275 -8 c 256
 136 -8 47 93 47 251 c 256
 47 411 139 514 283 514 c 256
 371 514 442 465 472 399 c 257
 477 501 l 257
 523 501 l 257
 520 409 l 257
 520 56 l 258
 520 -135 411 -216 271 -216 c 256
EndSplineSet
EndChar

StartChar: germandbls
Encoding: 223 223 282
Width: 605
VWidth: 0
Flags: HW
PickledData: "(dp1
S'org.robofab.postScriptHintData'
p2
(dp3
sS'com.typemytype.robofont.layerData'
p4
(dp5
S'b'
(dp6
S'name'
p7
S'germandbls'
p8
sS'lib'
p9
(dp10
sS'unicodes'
p11
(tsS'width'
p12
F1250.95
sS'contours'
p13
(tsS'components'
p14
(tsS'anchors'
p15
(tsss."
LayerCount: 2
Fore
SplineSet
364 -14 m 256
 322 -14 263 -2 215 18 c 257
 220 59 l 257
 270 39 326 26 364 26 c 256
 455 26 513 79 513 161 c 256
 513 275 442 337 262 393 c 257
 262 434 l 257
 424 470 437 517 437 590 c 256
 437 661 380 707 291 707 c 256
 195 707 144 643 144 519 c 258
 144 0 l 257
 96 0 l 257
 97 519 l 258
 97 670 166 749 292 749 c 256
 408 749 481 687 481 590 c 256
 481 488 435 447 323 418 c 258
 304 414 l 257
 322 409 l 258
 437 379 562 307 562 161 c 256
 562 55 484 -14 364 -14 c 256
EndSplineSet
EndChar

StartChar: grave
Encoding: 96 96 283
Width: 283
VWidth: 0
Flags: HW
PickledData: "(dp1
S'org.robofab.postScriptHintData'
p2
(dp3
s."
AnchorPoint: "top" 232 501 mark 0
LayerCount: 2
Fore
SplineSet
217 573 m 257
 62 711 l 257
 128 711 l 257
 244 573 l 257
 217 573 l 257
EndSplineSet
EndChar

StartChar: greater
Encoding: 62 62 284
Width: 508
VWidth: 0
Flags: HW
PickledData: "(dp1
S'org.robofab.postScriptHintData'
p2
(dp3
sS'com.typemytype.robofont.layerData'
p4
(dp5
S'b'
(dp6
S'name'
p7
S'greater'
p8
sS'lib'
p9
(dp10
sS'unicodes'
p11
(tsS'width'
p12
F1268.05
sS'contours'
p13
(tsS'components'
p14
(tsS'anchors'
p15
(tsss."
LayerCount: 2
Fore
SplineSet
104 51 m 257
 104 100 l 257
 433 265 l 257
 107 446 l 257
 107 494 l 257
 486 280 l 257
 486 248 l 257
 104 51 l 257
EndSplineSet
EndChar

StartChar: greaterequal
Encoding: 8805 8805 285
Width: 658
VWidth: 0
Flags: HW
PickledData: "(dp1
S'org.robofab.postScriptHintData'
p2
(dp3
sS'com.typemytype.robofont.layerData'
p4
(dp5
S'b'
(dp6
S'name'
p7
S'greaterequal'
p8
sS'lib'
p9
(dp10
sS'unicodes'
p11
(tsS'width'
p12
F1350.3499999999999
sS'contours'
p13
(tsS'components'
p14
(tsS'anchors'
p15
(tsss."
LayerCount: 2
Fore
SplineSet
151 0 m 257
 151 38 l 257
 566 38 l 257
 566 0 l 257
 151 0 l 257
159 75 m 257
 159 125 l 257
 490 283 l 257
 161 470 l 257
 161 519 l 257
 542 296 l 257
 542 261 l 257
 159 75 l 257
EndSplineSet
EndChar

StartChar: guillemotleft
Encoding: 171 171 286
Width: 507
VWidth: 0
Flags: HW
PickledData: "(dp1
S'org.robofab.postScriptHintData'
p2
(dp3
sS'com.typemytype.robofont.layerData'
p4
(dp5
S'b'
(dp6
S'name'
p7
S'guillemotright'
p8
sS'lib'
p9
(dp10
sS'unicodes'
p11
(tsS'width'
p12
F1122.45
sS'contours'
p13
(tsS'components'
p14
(tsS'anchors'
p15
(tsss."
LayerCount: 2
Fore
SplineSet
385 91 m 257
 257 267 l 257
 387 446 l 257
 443 446 l 257
 315 267 l 257
 439 91 l 257
 385 91 l 257
183 91 m 257
 54 267 l 257
 185 446 l 257
 240 446 l 257
 113 267 l 257
 236 91 l 257
 183 91 l 257
EndSplineSet
EndChar

StartChar: guillemotright
Encoding: 187 187 287
Width: 507
VWidth: 0
Flags: HW
PickledData: "(dp1
S'org.robofab.postScriptHintData'
p2
(dp3
sS'com.typemytype.robofont.layerData'
p4
(dp5
S'b'
(dp6
S'name'
p7
S'guillemotright'
p8
sS'lib'
p9
(dp10
sS'unicodes'
p11
(tsS'width'
p12
F1122.45
sS'contours'
p13
(tsS'components'
p14
(tsS'anchors'
p15
(tsss."
LayerCount: 2
Fore
SplineSet
258 88 m 257
 385 267 l 257
 262 443 l 257
 315 443 l 257
 444 267 l 257
 313 88 l 257
 258 88 l 257
55 88 m 257
 183 267 l 257
 59 443 l 257
 113 443 l 257
 241 267 l 257
 111 88 l 257
 55 88 l 257
EndSplineSet
EndChar

StartChar: guilsinglleft
Encoding: 8249 8249 288
Width: 309
VWidth: 0
Flags: HW
PickledData: "(dp1
S'org.robofab.postScriptHintData'
p2
(dp3
sS'com.typemytype.robofont.layerData'
p4
(dp5
S'b'
(dp6
S'name'
p7
S'guilsinglleft'
p8
sS'lib'
p9
(dp10
sS'unicodes'
p11
(tsS'width'
p12
F688.39999999999998
sS'contours'
p13
(tsS'components'
p14
(tsS'anchors'
p15
(tsss."
LayerCount: 2
Fore
SplineSet
196 88 m 257
 67 264 l 257
 198 443 l 257
 253 443 l 257
 126 265 l 257
 250 88 l 257
 196 88 l 257
EndSplineSet
EndChar

StartChar: guilsinglright
Encoding: 8250 8250 289
Width: 309
VWidth: 0
Flags: HW
PickledData: "(dp1
S'org.robofab.postScriptHintData'
p2
(dp3
sS'com.typemytype.robofont.layerData'
p4
(dp5
S'b'
(dp6
S'name'
p7
S'guilsinglleft'
p8
sS'lib'
p9
(dp10
sS'unicodes'
p11
(tsS'width'
p12
F688.39999999999998
sS'contours'
p13
(tsS'components'
p14
(tsS'anchors'
p15
(tsss."
LayerCount: 2
Fore
SplineSet
56 88 m 257
 184 267 l 257
 60 444 l 257
 114 444 l 257
 242 268 l 257
 112 88 l 257
 56 88 l 257
EndSplineSet
EndChar

StartChar: h
Encoding: 104 104 290
Width: 612
VWidth: 0
Flags: HW
PickledData: "(dp1
S'org.robofab.postScriptHintData'
p2
(dp3
sS'com.typemytype.robofont.layerData'
p4
(dp5
S'b'
(dp6
S'name'
p7
S'h'
sS'lib'
p8
(dp9
sS'unicodes'
p10
(tsS'width'
p11
F1237.95
sS'contours'
p12
((dp13
S'points'
p14
((dp15
S'segmentType'
p16
S'line'
p17
sS'x'
F178
sS'smooth'
p18
I00
sS'y'
F0
s(dp19
g16
S'line'
p20
sS'x'
F178
sg18
I01
sS'y'
F779
s(dp21
S'y'
F902
sS'x'
F178
sg18
I00
s(dp22
S'y'
F1026
sS'x'
F172
sg18
I00
s(dp23
g16
S'curve'
p24
sS'x'
F172
sg18
I00
sS'y'
F1026
s(dp25
g16
S'line'
p26
sS'x'
F339
sg18
I00
sS'y'
F1026
s(dp27
g16
S'line'
p28
sS'x'
F343
sg18
I00
sS'y'
F864
s(dp29
S'y'
F976
sS'x'
F423
sg18
I00
s(dp30
S'y'
F1051
sS'x'
F548
sg18
I00
s(dp31
g16
S'curve'
p32
sS'x'
F700
sg18
I01
sS'y'
F1051
s(dp33
S'y'
F1051
sS'x'
F999
sg18
I00
s(dp34
S'y'
F844
sS'x'
F1082
sg18
I00
s(dp35
g16
S'curve'
p36
sS'x'
F1082
sg18
I01
sS'y'
F550
s(dp37
g16
S'line'
p38
sS'x'
F1082
sg18
I00
sS'y'
F0
s(dp39
g16
S'line'
p40
sS'x'
F917
sg18
I00
sS'y'
F0
s(dp41
g16
S'line'
p42
sS'x'
F917
sg18
I01
sS'y'
F531
s(dp43
S'y'
F764
sS'x'
F917
sg18
I00
s(dp44
S'y'
F917
sS'x'
F886
sg18
I00
s(dp45
g16
S'curve'
p46
sS'x'
F670
sg18
I01
sS'y'
F917
s(dp47
S'y'
F917
sS'x'
F471
sg18
I00
s(dp48
S'y'
F742
sS'x'
F344
sg18
I00
s(dp49
g16
S'curve'
p50
sS'x'
F343
sg18
I00
sS'y'
F652
s(dp51
g16
S'line'
p52
sS'x'
F343
sg18
I00
sS'y'
F0
stp53
stp54
sS'components'
p55
(tsS'anchors'
p56
(tsss."
AnchorPoint: "top" 344 501 basechar 0
LayerCount: 2
Fore
SplineSet
96 0 m 257
 96 740 l 257
 144 740 l 257
 144 404 l 257
 179 466 245 514 342 514 c 256
 419 514 520 481 520 333 c 258
 520 0 l 257
 472 0 l 257
 472 322 l 258
 472 420 440 474 342 474 c 256
 237 474 144 392 144 307 c 258
 144 0 l 257
 96 0 l 257
EndSplineSet
EndChar

StartChar: hungarumlaut
Encoding: 733 733 293
Width: 473
VWidth: 0
Flags: HW
PickledData: "(dp1
S'org.robofab.postScriptHintData'
p2
(dp3
s."
AnchorPoint: "top" 178 501 mark 0
LayerCount: 2
Fore
SplineSet
204 573 m 257
 296 711 l 257
 352 711 l 257
 238 573 l 257
 204 573 l 257
75 573 m 257
 170 711 l 257
 219 711 l 257
 110 573 l 257
 75 573 l 257
EndSplineSet
EndChar

StartChar: hyphen
Encoding: 45 45 294
AltUni2: 002015.ffffffff.0
Width: 291
VWidth: 0
Flags: HW
PickledData: "(dp1
S'org.robofab.postScriptHintData'
p2
(dp3
sS'com.typemytype.robofont.layerData'
p4
(dp5
S'b'
(dp6
S'name'
p7
S'hyphen'
p8
sS'lib'
p9
(dp10
sS'unicodes'
p11
(tsS'width'
p12
F683.5
sS'contours'
p13
(tsS'components'
p14
(tsS'anchors'
p15
(tsss."
LayerCount: 2
Fore
SplineSet
33 257 m 257
 33 293 l 257
 257 293 l 257
 257 257 l 257
 33 257 l 257
EndSplineSet
EndChar

StartChar: i
Encoding: 105 105 295
Width: 239
VWidth: 0
Flags: HW
PickledData: "(dp1
S'org.robofab.postScriptHintData'
p2
(dp3
sS'com.typemytype.robofont.layerData'
p4
(dp5
S'b'
(dp6
S'name'
p7
S'i'
sS'lib'
p8
(dp9
sS'unicodes'
p10
(tsS'width'
p11
F521.10000000000002
sS'contours'
p12
(tsS'components'
p13
(tsS'anchors'
p14
(tsss."
LayerCount: 2
Fore
SplineSet
93 657 m 257
 93 711 l 257
 141 711 l 257
 141 657 l 257
 93 657 l 257
93 0 m 257
 93 501 l 257
 141 501 l 257
 141 0 l 257
 93 0 l 257
EndSplineSet
EndChar

StartChar: Delta
Encoding: 8710 8710 307
Width: 644
VWidth: 0
Flags: HW
PickledData: "(dp1
S'org.robofab.postScriptHintData'
p2
(dp3
sS'com.typemytype.robofont.layerData'
p4
(dp5
S'b'
(dp6
S'name'
p7
S'uni2206'
p8
sS'lib'
p9
(dp10
sS'unicodes'
p11
(tsS'width'
p12
F1312.25
sS'contours'
p13
(tsS'components'
p14
(tsS'anchors'
p15
(tsss."
LayerCount: 2
Fore
SplineSet
67 38 m 257
 564 38 l 257
 315 632 l 257
 67 38 l 257
20 0 m 257
 20 23 l 257
 310 708 l 257
 325 708 l 257
 614 23 l 257
 614 0 l 257
 20 0 l 257
EndSplineSet
EndChar

StartChar: infinity
Encoding: 8734 8734 308
Width: 835
VWidth: 0
Flags: HW
PickledData: "(dp1
S'org.robofab.postScriptHintData'
p2
(dp3
s."
LayerCount: 2
Fore
SplineSet
610 163 m 256
 685 163 725 221 725 298 c 256
 725 358 674 408 608 408 c 256
 541 408 485 348 443 286 c 257
 503 205 548 163 610 163 c 256
218 163 m 256
 283 163 336 217 383 284 c 257
 336 354 283 408 213 408 c 256
 142 408 96 351 96 286 c 256
 96 223 147 163 218 163 c 256
222 117 m 256
 118 117 47 199 47 294 c 256
 47 382 129 451 220 451 c 256
 299 451 360 400 416 329 c 257
 470 398 528 451 609 451 c 256
 714 451 782 383 782 287 c 256
 782 186 701 117 608 117 c 256
 537 117 479 159 415 239 c 257
 360 170 299 117 222 117 c 256
EndSplineSet
EndChar

StartChar: integral
Encoding: 8747 8747 309
Width: 319
VWidth: 0
Flags: HW
PickledData: "(dp1
S'org.robofab.postScriptHintData'
p2
(dp3
sS'com.typemytype.robofont.layerData'
p4
(dp5
S'b'
(dp6
S'name'
p7
S'integral'
p8
sS'lib'
p9
(dp10
sS'unicodes'
p11
(tsS'width'
p12
F754
sS'contours'
p13
(tsS'components'
p14
(tsS'anchors'
p15
(tsss."
LayerCount: 2
Fore
SplineSet
52 -138 m 256
 19 -138 -1 -129 -1 -129 c 257
 -1 -86 l 257
 -1 -86 17 -93 39 -93 c 256
 124 -93 140 -51 140 30 c 258
 140 601 l 258
 140 705 161 781 271 781 c 256
 310 781 316 772 316 772 c 257
 316 732 l 257
 316 732 308 737 281 737 c 256
 197 737 188 694 188 613 c 258
 188 43 l 258
 188 -61 161 -138 52 -138 c 256
EndSplineSet
EndChar

StartChar: k
Encoding: 107 107 315
Width: 510
VWidth: 0
Flags: HW
PickledData: "(dp1
S'org.robofab.postScriptHintData'
p2
(dp3
sS'com.typemytype.robofont.layerData'
p4
(dp5
S'b'
(dp6
S'name'
p7
S'k'
sS'lib'
p8
(dp9
sS'unicodes'
p10
(tsS'width'
p11
F1078.6500000000001
sS'contours'
p12
(tsS'components'
p13
(tsS'anchors'
p14
(tsss."
AnchorPoint: "top" 322 501 basechar 0
LayerCount: 2
Fore
SplineSet
96 0 m 257
 96 740 l 257
 144 740 l 257
 144 268 l 257
 411 501 l 257
 474 501 l 257
 202 265 l 257
 495 0 l 257
 432 0 l 257
 144 261 l 257
 144 0 l 257
 96 0 l 257
EndSplineSet
EndChar

StartChar: kgreenlandic
Encoding: 312 312 318
Width: 528
VWidth: 0
Flags: HW
PickledData: "(dp1
S'org.robofab.postScriptHintData'
p2
(dp3
s."
LayerCount: 2
Fore
SplineSet
99 0 m 257
 99 501 l 257
 149 501 l 257
 149 256 l 257
 418 501 l 257
 486 501 l 257
 211 251 l 257
 506 0 l 257
 440 0 l 257
 149 250 l 257
 149 0 l 257
 99 0 l 257
EndSplineSet
EndChar

StartChar: l
Encoding: 108 108 319
Width: 248
VWidth: 0
Flags: HW
PickledData: "(dp1
S'org.robofab.postScriptHintData'
p2
(dp3
sS'com.typemytype.robofont.layerData'
p4
(dp5
S'b'
(dp6
S'name'
p7
S'l'
sS'lib'
p8
(dp9
sS'unicodes'
p10
(tsS'width'
p11
F521.79999999999995
sS'contours'
p12
(tsS'components'
p13
(tsS'anchors'
p14
(tsss."
AnchorPoint: "caron.alt" 88 501 basechar 0
AnchorPoint: "top" 122 711 basechar 0
LayerCount: 2
Fore
SplineSet
100 0 m 257
 100 740 l 257
 148 740 l 257
 148 0 l 257
 100 0 l 257
EndSplineSet
EndChar

StartChar: less
Encoding: 60 60 324
Width: 509
VWidth: 0
Flags: HW
PickledData: "(dp1
S'org.robofab.postScriptHintData'
p2
(dp3
sS'com.typemytype.robofont.layerData'
p4
(dp5
S'b'
(dp6
S'name'
p7
S'less'
p8
sS'lib'
p9
(dp10
sS'unicodes'
p11
(tsS'width'
p12
F1267.3499999999999
sS'contours'
p13
(tsS'components'
p14
(tsS'anchors'
p15
(tsss."
LayerCount: 2
Fore
SplineSet
402 53 m 257
 22 276 l 257
 22 311 l 257
 405 497 l 257
 405 447 l 257
 73 289 l 257
 402 102 l 257
 402 53 l 257
EndSplineSet
EndChar

StartChar: lessequal
Encoding: 8804 8804 325
Width: 658
VWidth: 0
Flags: HW
PickledData: "(dp1
S'org.robofab.postScriptHintData'
p2
(dp3
sS'com.typemytype.robofont.layerData'
p4
(dp5
S'b'
(dp6
S'name'
p7
S'lessequal'
p8
sS'lib'
p9
(dp10
sS'unicodes'
p11
(tsS'width'
p12
F1350.3499999999999
sS'contours'
p13
(tsS'components'
p14
(tsS'anchors'
p15
(tsss."
LayerCount: 2
Fore
SplineSet
125 0 m 257
 125 38 l 257
 540 38 l 257
 540 0 l 257
 125 0 l 257
528 75 m 257
 148 298 l 257
 148 333 l 257
 531 519 l 257
 531 469 l 257
 199 311 l 257
 528 124 l 257
 528 75 l 257
EndSplineSet
EndChar

StartChar: logicalnot
Encoding: 172 172 327
Width: 719
VWidth: 0
Flags: HW
PickledData: "(dp1
S'org.robofab.postScriptHintData'
p2
(dp3
sS'com.typemytype.robofont.layerData'
p4
(dp5
S'b'
(dp6
S'name'
p7
S'logicalnot'
p8
sS'lib'
p9
(dp10
sS'unicodes'
p11
(tsS'width'
p12
F1463.2
sS'contours'
p13
(tsS'components'
p14
(tsS'anchors'
p15
(tsss."
LayerCount: 2
Fore
SplineSet
581 122 m 257
 581 339 l 257
 119 339 l 257
 119 384 l 257
 624 384 l 257
 624 122 l 257
 581 122 l 257
EndSplineSet
EndChar

StartChar: lozenge
Encoding: 9674 9674 329
Width: 609
VWidth: 0
Flags: HW
PickledData: "(dp1
S'org.robofab.postScriptHintData'
p2
(dp3
s."
LayerCount: 2
Fore
SplineSet
309 4 m 257
 516 352 l 257
 315 705 l 257
 107 354 l 257
 309 4 l 257
293 -24 m 257
 70 352 l 257
 298 729 l 257
 330 729 l 257
 555 352 l 257
 325 -24 l 257
 293 -24 l 257
EndSplineSet
EndChar

StartChar: lslash
Encoding: 322 322 330
Width: 245
VWidth: 0
Flags: HW
PickledData: "(dp1
S'org.robofab.postScriptHintData'
p2
(dp3
s."
LayerCount: 2
Fore
SplineSet
101 0 m 257
 101 324 l 257
 -2 275 l 257
 -2 313 l 257
 101 362 l 257
 101 740 l 257
 150 740 l 257
 150 381 l 257
 259 432 l 257
 259 396 l 257
 150 345 l 257
 150 0 l 257
 101 0 l 257
EndSplineSet
EndChar

StartChar: m
Encoding: 109 109 331
Width: 950
VWidth: 0
Flags: HW
PickledData: "(dp1
S'org.robofab.postScriptHintData'
p2
(dp3
sS'com.typemytype.robofont.guides'
p4
(tsS'com.typemytype.robofont.layerData'
p5
(dp6
S'b'
(dp7
S'name'
p8
S'm'
sS'lib'
p9
(dp10
sS'unicodes'
p11
(tsS'width'
p12
F1873.95
sS'contours'
p13
(tsS'components'
p14
(tsS'anchors'
p15
(tsss."
AnchorPoint: "top" 488 501 basechar 0
LayerCount: 2
Fore
SplineSet
100 0 m 257
 100 430 l 258
 100 449 97 501 97 501 c 257
 140 501 l 257
 145 400 l 257
 179 474 245 514 333 514 c 256
 420 514 474 469 494 385 c 257
 529 473 606 514 688 514 c 256
 799 514 857 441 857 304 c 258
 857 0 l 257
 810 0 l 257
 810 304 l 258
 810 415 768 474 688 474 c 256
 585 474 522 415 502 304 c 257
 502 0 l 257
 455 0 l 257
 455 304 l 258
 455 415 413 474 333 474 c 256
 237 474 172 424 147 331 c 257
 147 0 l 257
 100 0 l 257
EndSplineSet
EndChar

StartChar: macron
Encoding: 175 175 332
Width: 329
VWidth: 0
Flags: HW
PickledData: "(dp1
S'org.robofab.postScriptHintData'
p2
(dp3
sS'com.typemytype.robofont.layerData'
p4
(dp5
S'b'
(dp6
S'name'
p7
S'macron'
p8
sS'lib'
p9
(dp10
sS'unicodes'
p11
(tsS'width'
p12
F723
sS'contours'
p13
(tsS'components'
p14
(tsS'anchors'
p15
(tsss."
AnchorPoint: "top" 168 501 mark 0
LayerCount: 2
Fore
SplineSet
35 603 m 257
 35 640 l 257
 294 640 l 257
 294 603 l 257
 35 603 l 257
EndSplineSet
EndChar

StartChar: minus
Encoding: 8722 8722 335
Width: 492
VWidth: 0
Flags: HW
PickledData: "(dp1
S'org.robofab.postScriptHintData'
p2
(dp3
s."
LayerCount: 2
Fore
SplineSet
67 315 m 257
 67 360 l 257
 425 360 l 257
 425 315 l 257
 67 315 l 257
EndSplineSet
EndChar

StartChar: mu
Encoding: 181 181 336
Width: 1285
VWidth: 0
Flags: W
AnchorPoint: "top" 652 1026 basechar 0
LayerCount: 2
Fore
SplineSet
296 -332 m 257
 198 -328 l 257
 198 1026 l 257
 296 1026 l 257
 296 408 l 258
 296 178 392 56 584 56 c 256
 839 56 972 260 972 355 c 258
 972 1026 l 257
 1070 1026 l 257
 1070 225 l 258
 1070 113 1072 53 1075 0 c 257
 986 0 l 257
 977 191 l 257
 891 55 761 -26 584 -26 c 256
 457 -26 360 11 296 84 c 257
 296 -332 l 257
EndSplineSet
EndChar

StartChar: multiply
Encoding: 215 215 337
Width: 574
VWidth: 0
Flags: HW
PickledData: "(dp1
S'org.robofab.postScriptHintData'
p2
(dp3
s."
LayerCount: 2
Fore
SplineSet
132 88 m 257
 104 118 l 257
 258 273 l 257
 104 428 l 257
 132 458 l 257
 288 303 l 257
 441 458 l 257
 472 426 l 257
 316 273 l 257
 472 120 l 257
 441 88 l 257
 288 242 l 257
 132 88 l 257
EndSplineSet
EndChar

StartChar: n
Encoding: 110 110 338
Width: 613
VWidth: 0
Flags: HW
PickledData: "(dp1
S'org.robofab.postScriptHintData'
p2
(dp3
sS'com.typemytype.robofont.layerData'
p4
(dp5
S'b'
(dp6
S'name'
p7
S'n'
sS'lib'
p8
(dp9
sS'unicodes'
p10
(tsS'width'
p11
F1240.05
sS'contours'
p12
(tsS'components'
p13
(tsS'anchors'
p14
(tsss."
AnchorPoint: "top" 324 501 basechar 0
LayerCount: 2
Fore
SplineSet
99 0 m 257
 99 430 l 258
 99 449 96 501 96 501 c 257
 139 501 l 257
 144 400 l 257
 178 474 253 514 341 514 c 256
 462 514 521 441 521 304 c 258
 521 0 l 257
 473 0 l 257
 473 304 l 258
 473 415 431 474 341 474 c 256
 245 474 171 424 146 331 c 257
 146 0 l 257
 99 0 l 257
EndSplineSet
EndChar

StartChar: nine
Encoding: 57 57 343
Width: 577
VWidth: 0
Flags: HW
PickledData: "(dp1
S'org.robofab.postScriptHintData'
p2
(dp3
sS'com.typemytype.robofont.layerData'
p4
(dp5
S'b'
(dp6
S'name'
p7
S'nine'
p8
sS'lib'
p9
(dp10
sS'unicodes'
p11
(tsS'width'
p12
F1235.4000000000001
sS'contours'
p13
((dp14
S'points'
p15
((dp16
S'segmentType'
p17
S'curve'
p18
sS'x'
F314
sS'smooth'
p19
I01
sS'y'
F1010
s(dp20
S'y'
F827
sS'x'
F314
sg19
I00
s(dp21
S'y'
F687
sS'x'
F393
sg19
I00
s(dp22
g17
S'curve'
p23
sS'x'
F604
sg19
I01
sS'y'
F687
s(dp24
S'y'
F687
sS'x'
F784
sg19
I00
s(dp25
S'y'
F803
sS'x'
F908
sg19
I00
s(dp26
g17
S'curve'
p27
sS'x'
F908
sg19
I01
sS'y'
F991
s(dp28
S'y'
F1166
sS'x'
F908
sg19
I00
s(dp29
S'y'
F1334
sS'x'
F815
sg19
I00
s(dp30
g17
S'curve'
p31
sS'x'
F605
sg19
I01
sS'y'
F1334
s(dp32
S'y'
F1334
sS'x'
F419
sg19
I00
s(dp33
S'y'
F1196
sS'x'
F314
sg19
I00
stp34
s(dp35
g15
((dp36
g17
S'curve'
p37
sS'x'
F555
sg19
I01
sS'y'
F-24
s(dp38
S'y'
F-24
sS'x'
F434
sg19
I00
s(dp39
S'y'
F13
sS'x'
F304
sg19
I00
s(dp40
g17
S'curve'
p41
sS'x'
F175
sg19
I00
sS'y'
F79
s(dp42
g17
S'line'
p43
sS'x'
F232
sg19
I00
sS'y'
F211
s(dp44
S'y'
F152
sS'x'
F346
sg19
I00
s(dp45
S'y'
F124
sS'x'
F450
sg19
I00
s(dp46
g17
S'curve'
p47
sS'x'
F542
sg19
I01
sS'y'
F124
s(dp48
S'y'
F124
sS'x'
F773
sg19
I00
s(dp49
S'y'
F308
sS'x'
F920
sg19
I00
s(dp50
g17
S'curve'
p51
sS'x'
F920
sg19
I01
sS'y'
F657
s(dp52
g17
S'line'
p53
sS'x'
F920
sg19
I00
sS'y'
F722
s(dp54
S'y'
F600
sS'x'
F856
sg19
I00
s(dp55
S'y'
F544
sS'x'
F742
sg19
I00
s(dp56
g17
S'curve'
p57
sS'x'
F577
sg19
I01
sS'y'
F544
s(dp58
S'y'
F544
sS'x'
F298
sg19
I00
s(dp59
S'y'
F735
sS'x'
F138
sg19
I00
s(dp60
g17
S'curve'
p61
sS'x'
F138
sg19
I01
sS'y'
F1004
s(dp62
S'y'
F1275
sS'x'
F138
sg19
I00
s(dp63
S'y'
F1483
sS'x'
F311
sg19
I00
s(dp64
g17
S'curve'
p65
sS'x'
F613
sg19
I01
sS'y'
F1483
s(dp66
S'y'
F1483
sS'x'
F939
sg19
I00
s(dp67
S'y'
F1231
sS'x'
F1095
sg19
I00
s(dp68
g17
S'curve'
p69
sS'x'
F1095
sg19
I01
sS'y'
F774
s(dp70
S'y'
F203
sS'x'
F1095
sg19
I00
s(dp71
S'y'
F-24
sS'x'
F855
sg19
I00
stp72
stp73
sS'components'
p74
(tsS'anchors'
p75
(tsss."
LayerCount: 2
Fore
SplineSet
273 310 m 256
 397 310 462 396 462 443 c 256
 462 559 422 682 282 682 c 256
 173 682 114 599 114 492 c 256
 114 391 161 310 273 310 c 256
259 -11 m 256
 191 -11 138 17 109 38 c 257
 130 75 l 257
 155 54 203 31 259 31 c 256
 439 31 465 233 468 333 c 256
 468 346 469 358 469 367 c 257
 451 329 379 268 273 268 c 256
 154 268 61 354 61 492 c 256
 61 623 145 724 282 724 c 256
 453 724 522 582 522 377 c 256
 522 165 443 -11 259 -11 c 256
EndSplineSet
EndChar

StartChar: notequal
Encoding: 8800 8800 345
Width: 647
VWidth: 0
Flags: HW
PickledData: "(dp1
S'org.robofab.postScriptHintData'
p2
(dp3
sS'com.typemytype.robofont.layerData'
p4
(dp5
S'b'
(dp6
S'name'
p7
S'notequal'
p8
sS'lib'
p9
(dp10
sS'unicodes'
p11
(tsS'width'
p12
F1362.5
sS'contours'
p13
(tsS'components'
p14
(tsS'anchors'
p15
(tsss."
LayerCount: 2
Fore
SplineSet
208 26 m 257
 176 30 l 257
 245 167 l 257
 83 167 l 257
 83 203 l 257
 261 203 l 257
 352 375 l 257
 83 375 l 257
 83 410 l 257
 367 410 l 257
 437 549 l 257
 470 544 l 257
 403 410 l 257
 564 410 l 257
 564 375 l 257
 386 375 l 257
 296 203 l 257
 564 203 l 257
 564 167 l 257
 280 167 l 257
 208 26 l 257
EndSplineSet
EndChar

StartChar: numbersign
Encoding: 35 35 347
Width: 682
VWidth: 0
Flags: HW
PickledData: "(dp1
S'org.robofab.postScriptHintData'
p2
(dp3
s."
LayerCount: 2
Fore
SplineSet
235 294 m 257
 414 294 l 257
 445 458 l 257
 268 458 l 257
 235 294 l 257
153 53 m 257
 192 266 l 257
 64 266 l 257
 66 294 l 257
 198 294 l 257
 229 458 l 257
 104 458 l 257
 107 487 l 257
 233 487 l 257
 270 679 l 257
 309 679 l 257
 274 487 l 257
 450 487 l 257
 487 679 l 257
 522 679 l 257
 486 487 l 257
 613 487 l 257
 607 458 l 257
 481 458 l 257
 450 294 l 257
 575 294 l 257
 569 266 l 257
 446 266 l 257
 405 53 l 257
 370 53 l 257
 408 266 l 257
 231 266 l 257
 188 53 l 257
 153 53 l 257
EndSplineSet
EndChar

StartChar: o
Encoding: 111 111 348
Width: 600
VWidth: 0
Flags: HW
PickledData: "(dp1
S'org.robofab.postScriptHintData'
p2
(dp3
sS'com.typemytype.robofont.layerData'
p4
(dp5
S'b'
(dp6
S'name'
p7
S'o'
sS'lib'
p8
(dp9
sS'unicodes'
p10
(tsS'width'
p11
F1259.2
sS'contours'
p12
(tsS'components'
p13
(tsS'anchors'
p14
(tsss."
AnchorPoint: "top" 301 501 basechar 0
LayerCount: 2
Fore
SplineSet
300 -10 m 256
 146 -10 47 91 47 249 c 256
 47 410 146 514 300 514 c 256
 454 514 554 410 554 249 c 256
 554 91 454 -10 300 -10 c 256
300 30 m 256
 429 30 505 116 505 249 c 256
 505 386 429 474 300 474 c 256
 171 474 96 386 96 249 c 256
 96 116 171 30 300 30 c 256
EndSplineSet
EndChar

StartChar: oe
Encoding: 339 339 355
Width: 950
VWidth: 0
Flags: HW
PickledData: "(dp1
S'org.robofab.postScriptHintData'
p2
(dp3
sS'com.typemytype.robofont.layerData'
p4
(dp5
S'b'
(dp6
S'name'
p7
S'oe'
p8
sS'lib'
p9
(dp10
sS'unicodes'
p11
(tsS'width'
p12
F1979.8
sS'contours'
p13
(tsS'components'
p14
((dp15
S'transformation'
p16
(I1
I0
I0
I1
I-6
I0
tp17
sS'baseGlyph'
p18
S'o'
s(dp19
g16
(I1
I0
I0
I1
I811
I0
tp20
sg18
S'e'
stp21
sS'anchors'
p22
(tsss."
LayerCount: 2
Fore
SplineSet
522 282 m 257
 873 282 l 257
 873 293 872 305 872 312 c 256
 862 410 798 474 703 474 c 256
 596 474 520 399 522 282 c 257
292 30 m 256
 405 30 478 116 478 250 c 256
 478 386 405 474 294 474 c 256
 173 474 95 385 95 246 c 256
 95 115 172 30 292 30 c 256
292 -10 m 256
 140 -10 42 91 42 248 c 256
 42 410 140 514 294 514 c 256
 390 514 467 461 497 373 c 257
 519 461 602 514 703 514 c 256
 831 514 913 419 913 272 c 258
 913 248 l 257
 522 248 l 257
 522 233 l 258
 522 109 596 30 711 30 c 256
 762 30 826 52 873 86 c 257
 890 53 l 257
 840 14 768 -10 707 -10 c 256
 613 -10 529 42 497 124 c 257
 467 42 388 -10 292 -10 c 256
EndSplineSet
EndChar

StartChar: ogonek
Encoding: 731 731 356
Width: 248
VWidth: 0
Flags: HW
PickledData: "(dp1
S'org.robofab.postScriptHintData'
p2
(dp3
s."
LayerCount: 2
Fore
SplineSet
161 -219 m 256
 98 -219 47 -172 47 -115 c 256
 47 -77 70 -34 127 2 c 257
 167 2 l 257
 113 -38 97 -83 97 -111 c 256
 97 -147 121 -173 162 -173 c 256
 173 -173 185 -171 199 -167 c 257
 199 -213 l 257
 185 -217 173 -219 161 -219 c 256
EndSplineSet
EndChar

StartChar: one
Encoding: 49 49 361
Width: 574
VWidth: 0
Flags: HW
PickledData: "(dp1
S'org.robofab.postScriptHintData'
p2
(dp3
sS'com.typemytype.robofont.layerData'
p4
(dp5
S'b'
(dp6
S'name'
p7
S'one'
p8
sS'lib'
p9
(dp10
sS'unicodes'
p11
(tsS'width'
p12
F1234.0999999999999
sS'contours'
p13
(tsS'components'
p14
(tsS'anchors'
p15
(tsss."
LayerCount: 2
Fore
SplineSet
131 0 m 257
 131 42 l 257
 274 42 l 257
 274 645 l 257
 223 614 170 595 125 574 c 257
 125 621 l 257
 173 639 260 682 303 711 c 257
 327 711 l 257
 327 42 l 257
 458 42 l 257
 458 0 l 257
 131 0 l 257
EndSplineSet
EndChar

StartChar: onehalf
Encoding: 189 189 362
Width: 763
VWidth: 0
Flags: HW
PickledData: "(dp1
S'org.robofab.postScriptHintData'
p2
(dp3
s."
LayerCount: 2
Fore
SplineSet
61 317 m 257
 61 347 l 257
 136 347 l 257
 136 670 l 257
 63 633 l 257
 64 669 l 257
 139 711 l 257
 172 711 l 257
 172 347 l 257
 240 347 l 257
 240 317 l 257
 61 317 l 257
130 0 m 257
 584 711 l 257
 618 711 l 257
 171 0 l 257
 130 0 l 257
448 0 m 257
 448 34 l 257
 591 183 l 258
 649 243 659 267 659 301 c 256
 659 335 640 372 578 372 c 256
 535 372 497 352 495 289 c 257
 458 291 l 257
 459 362 506 403 578 403 c 256
 657 403 696 356 696 303 c 256
 696 252 681 224 615 157 c 258
 495 34 l 257
 698 34 l 257
 698 0 l 257
 448 0 l 257
EndSplineSet
EndChar

StartChar: onequarter
Encoding: 188 188 363
Width: 807
VWidth: 0
Flags: HW
PickledData: "(dp1
S'org.robofab.postScriptHintData'
p2
(dp3
s."
LayerCount: 2
Fore
SplineSet
475 125 m 257
 625 125 l 257
 625 340 l 257
 475 125 l 257
157 0 m 257
 611 711 l 257
 644 711 l 257
 197 0 l 257
 157 0 l 257
626 0 m 257
 626 90 l 257
 433 90 l 257
 433 124 l 257
 616 384 l 257
 664 384 l 257
 664 125 l 257
 705 125 l 257
 704 90 l 257
 662 90 l 257
 662 0 l 257
 626 0 l 257
63 317 m 257
 63 347 l 257
 139 347 l 257
 139 670 l 257
 66 633 l 257
 67 669 l 257
 142 711 l 257
 175 711 l 257
 175 347 l 257
 243 347 l 257
 243 317 l 257
 63 317 l 257
EndSplineSet
EndChar

StartChar: uni00B9
Encoding: 185 185 364
Width: 437
VWidth: 0
Flags: HW
PickledData: "(dp1
S'org.robofab.postScriptHintData'
p2
(dp3
s."
LayerCount: 2
Fore
SplineSet
116 317 m 257
 116 347 l 257
 191 347 l 257
 191 670 l 257
 119 633 l 257
 120 669 l 257
 194 711 l 257
 228 711 l 257
 228 347 l 257
 296 347 l 257
 296 317 l 257
 116 317 l 257
EndSplineSet
EndChar

StartChar: ordfeminine
Encoding: 170 170 366
Width: 337
VWidth: 0
Flags: HW
PickledData: "(dp1
S'org.robofab.postScriptHintData'
p2
(dp3
sS'com.typemytype.robofont.layerData'
p4
(dp5
S'b'
(dp6
S'name'
p7
S'ordfeminine'
p8
sS'lib'
p9
(dp10
sS'unicodes'
p11
(tsS'width'
p12
F797.10000000000002
sS'contours'
p13
(tsS'components'
p14
(tsS'anchors'
p15
(tsss."
LayerCount: 2
Fore
SplineSet
161 430 m 256
 248 430 265 492 265 540 c 258
 265 555 l 257
 153 555 82 560 82 494 c 256
 82 451 108 430 161 430 c 256
153 392 m 256
 77 392 34 435 34 490 c 256
 34 548 82 586 181 586 c 258
 264 586 l 257
 264 594 l 258
 264 658 254 686 186 686 c 256
 119 686 65 660 65 660 c 257
 56 690 l 257
 56 690 114 722 183 722 c 256
 248 722 300 691 303 627 c 256
 303 606 301 428 301 449 c 258
 301 449 299 457 303 395 c 257
 258 395 l 257
 260 439 l 257
 235 402 190 392 153 392 c 256
EndSplineSet
EndChar

StartChar: ordmasculine
Encoding: 186 186 367
Width: 415
VWidth: 0
Flags: HW
PickledData: "(dp1
S'org.robofab.postScriptHintData'
p2
(dp3
sS'com.typemytype.robofont.layerData'
p4
(dp5
S'b'
(dp6
S'name'
p7
S'ordmasculine'
p8
sS'lib'
p9
(dp10
sS'unicodes'
p11
(tsS'width'
p12
F887.85000000000002
sS'contours'
p13
(tsS'components'
p14
(tsS'anchors'
p15
(tsss."
LayerCount: 2
Fore
SplineSet
208 394 m 256
 97 394 40 469 40 564 c 256
 40 658 99 732 208 732 c 256
 318 732 375 659 375 563 c 256
 375 470 316 394 208 394 c 256
210 436 m 256
 283 436 326 484 326 560 c 256
 326 639 283 688 207 688 c 256
 134 688 92 639 92 562 c 256
 92 482 132 436 210 436 c 256
EndSplineSet
EndChar

StartChar: oslash
Encoding: 248 248 368
Width: 600
VWidth: 0
Flags: HW
PickledData: "(dp1
S'org.robofab.postScriptHintData'
p2
(dp3
sS'com.typemytype.robofont.layerData'
p4
(dp5
S'b'
(dp6
S'name'
p7
S'oslash'
p8
sS'lib'
p9
(dp10
sS'unicodes'
p11
(tsS'width'
p12
F1255
sS'contours'
p13
(tsS'components'
p14
(tsS'anchors'
p15
(tsss."
LayerCount: 2
Fore
SplineSet
300 -10 m 256
 454 -10 554 91 554 249 c 256
 554 362 505 447 422 488 c 257
 471 600 l 257
 447 610 l 257
 398 498 l 257
 369 509 336 514 300 514 c 256
 146 514 47 410 47 249 c 256
 47 134 100 49 188 11 c 257
 138 -103 l 257
 159 -111 l 257
 209 3 l 257
 236 -6 267 -10 300 -10 c 256
405 449 m 257
 469 414 505 343 505 249 c 256
 505 116 429 30 300 30 c 256
 273 30 248 34 226 41 c 257
 405 449 l 257
382 459 m 257
 204 49 l 257
 134 82 96 153 96 249 c 256
 96 386 171 474 300 474 c 256
 330 474 358 468 382 459 c 257
EndSplineSet
EndChar

StartChar: p
Encoding: 112 112 371
Width: 616
VWidth: 0
Flags: HW
PickledData: "(dp1
S'org.robofab.postScriptHintData'
p2
(dp3
sS'com.typemytype.robofont.layerData'
p4
(dp5
S'b'
(dp6
S'name'
p7
S'p'
sS'lib'
p8
(dp9
sS'unicodes'
p10
(tsS'width'
p11
F1260.25
sS'contours'
p12
(tsS'components'
p13
(tsS'anchors'
p14
(tsss."
AnchorPoint: "top" 344 501 basechar 0
LayerCount: 2
Fore
SplineSet
343 27 m 256
 457 27 522 113 522 247 c 256
 522 383 457 471 343 471 c 256
 223 471 147 376 147 240 c 256
 147 106 223 27 343 27 c 256
99 -239 m 257
 99 370 l 258
 99 422 96 500 96 501 c 258
 144 501 l 257
 146 380 l 257
 174 457 251 511 343 511 c 256
 481 511 570 408 570 247 c 256
 570 89 481 -13 343 -13 c 256
 255 -13 178 29 147 104 c 257
 147 -239 l 257
 99 -239 l 257
EndSplineSet
EndChar

StartChar: paragraph
Encoding: 182 182 372
Width: 581
VWidth: 0
Flags: HW
PickledData: "(dp1
S'org.robofab.postScriptHintData'
p2
(dp3
sS'com.typemytype.robofont.layerData'
p4
(dp5
S'b'
(dp6
S'name'
p7
S'paragraph'
p8
sS'lib'
p9
(dp10
sS'unicodes'
p11
(tsS'width'
p12
F1211.95
sS'contours'
p13
(tsS'components'
p14
(tsS'anchors'
p15
(tsss."
LayerCount: 2
Fore
SplineSet
256 -88 m 257
 256 412 l 257
 181 407 76 454 76 556 c 256
 76 675 164 711 299 711 c 258
 491 711 l 257
 491 674 l 257
 446 674 l 257
 446 -88 l 257
 411 -88 l 257
 411 674 l 257
 292 674 l 257
 292 -88 l 257
 256 -88 l 257
EndSplineSet
EndChar

StartChar: parenleft
Encoding: 40 40 373
Width: 275
VWidth: 0
Flags: HW
PickledData: "(dp1
S'org.robofab.postScriptHintData'
p2
(dp3
sS'com.typemytype.robofont.layerData'
p4
(dp5
S'b'
(dp6
S'name'
p7
S'parenleft'
p8
sS'lib'
p9
(dp10
sS'unicodes'
p11
(tsS'width'
p12
F639.35000000000002
sS'contours'
p13
(tsS'components'
p14
(tsS'anchors'
p15
(tsss."
LayerCount: 2
Fore
SplineSet
205 -86 m 257
 132 27 80 166 80 322 c 256
 80 483 124 611 206 740 c 257
 252 740 l 257
 172 612 128 482 128 326 c 256
 128 181 174 34 253 -86 c 257
 205 -86 l 257
EndSplineSet
EndChar

StartChar: parenright
Encoding: 41 41 374
Width: 275
VWidth: 0
Flags: HW
PickledData: "(dp1
S'org.robofab.postScriptHintData'
p2
(dp3
sS'com.typemytype.robofont.layerData'
p4
(dp5
S'b'
(dp6
S'name'
p7
S'parenright'
p8
sS'lib'
p9
(dp10
sS'unicodes'
p11
(tsS'width'
p12
F639.35000000000002
sS'contours'
p13
(tsS'components'
p14
(tsS'anchors'
p15
(tsss."
LayerCount: 2
Fore
SplineSet
23 -96 m 257
 103 32 147 163 147 319 c 256
 147 464 101 610 22 730 c 257
 70 730 l 257
 144 617 195 478 195 322 c 256
 195 160 151 33 69 -96 c 257
 23 -96 l 257
EndSplineSet
EndChar

StartChar: partialdiff
Encoding: 8706 8706 375
Width: 570
VWidth: 0
Flags: HW
PickledData: "(dp1
S'org.robofab.postScriptHintData'
p2
(dp3
sS'com.typemytype.robofont.layerData'
p4
(dp5
S'b'
(dp6
S'name'
p7
S'partialdiff'
p8
sS'lib'
p9
(dp10
sS'unicodes'
p11
(tsS'width'
p12
F1163.95
sS'contours'
p13
(tsS'components'
p14
(tsS'anchors'
p15
(tsss."
LayerCount: 2
Fore
SplineSet
247 31 m 256
 394 31 455 200 466 323 c 257
 446 389 391 446 306 446 c 256
 193 446 104 333 104 201 c 256
 104 98 160 31 247 31 c 256
245 -12 m 256
 118 -12 53 82 53 202 c 256
 53 365 158 489 291 489 c 256
 403 489 452 416 475 375 c 257
 475 391 476 403 476 424 c 256
 480 609 408 718 282 718 c 256
 253 718 206 711 159 676 c 257
 155 722 l 257
 191 744 240 761 296 761 c 256
 438 761 528 656 528 426 c 256
 528 210 432 -12 245 -12 c 256
EndSplineSet
EndChar

StartChar: percent
Encoding: 37 37 377
Width: 1036
VWidth: 0
Flags: HW
PickledData: "(dp1
S'org.robofab.postScriptHintData'
p2
(dp3
sS'com.typemytype.robofont.layerData'
p4
(dp5
S'b'
(dp6
S'name'
p7
S'percent'
p8
sS'lib'
p9
(dp10
sS'unicodes'
p11
(tsS'width'
p12
F1769.3
sS'contours'
p13
(tsS'components'
p14
(tsS'anchors'
p15
(tsss."
LayerCount: 2
Fore
SplineSet
796 0 m 256
 690 0 634 76 634 221 c 256
 634 369 690 448 796 448 c 256
 898 448 953 369 953 221 c 256
 953 76 898 0 796 0 c 256
796 37 m 256
 869 37 908 101 908 222 c 256
 908 346 869 411 796 411 c 256
 719 411 679 346 679 222 c 256
 679 101 719 37 796 37 c 256
369 0 m 257
 632 711 l 257
 672 711 l 257
 408 0 l 257
 369 0 l 257
247 263 m 256
 141 263 84 339 84 484 c 256
 84 632 141 711 247 711 c 256
 349 711 403 632 403 484 c 256
 403 339 349 263 247 263 c 256
247 300 m 256
 320 300 358 363 358 484 c 256
 358 608 320 674 247 674 c 256
 170 674 129 608 129 484 c 256
 129 363 170 300 247 300 c 256
EndSplineSet
EndChar

StartChar: period
Encoding: 46 46 378
Width: 268
VWidth: 0
Flags: HW
PickledData: "(dp1
S'org.robofab.postScriptHintData'
p2
(dp3
s."
LayerCount: 2
Fore
SplineSet
100 0 m 257
 100 82 l 257
 179 82 l 257
 179 0 l 257
 100 0 l 257
EndSplineSet
EndChar

StartChar: periodcentered
Encoding: 183 183 379
Width: 248
VWidth: 0
Flags: HW
PickledData: "(dp1
S'org.robofab.postScriptHintData'
p2
(dp3
sS'com.typemytype.robofont.layerData'
p4
(dp5
S'b'
(dp6
S'name'
p7
S'middot'
p8
sS'lib'
p9
(dp10
sS'unicodes'
p11
(tsS'width'
p12
I509
sS'contours'
p13
(tsS'components'
p14
(tsS'anchors'
p15
(tsss."
LayerCount: 2
Fore
SplineSet
120 260 m 257
 120 338 l 257
 182 338 l 257
 182 260 l 257
 120 260 l 257
EndSplineSet
EndChar

StartChar: perthousand
Encoding: 8240 8240 380
Width: 1458
VWidth: 0
Flags: HW
PickledData: "(dp1
S'org.robofab.postScriptHintData'
p2
(dp3
sS'com.typemytype.robofont.layerData'
p4
(dp5
S'b'
(dp6
S'name'
p7
S'perthousand'
p8
sS'lib'
p9
(dp10
sS'unicodes'
p11
(tsS'width'
p12
F2581.1999999999998
sS'contours'
p13
(tsS'components'
p14
(tsS'anchors'
p15
(tsss."
LayerCount: 2
Fore
SplineSet
1219 0 m 256
 1113 0 1056 76 1056 221 c 256
 1056 369 1113 448 1219 448 c 256
 1321 448 1375 369 1375 221 c 256
 1375 76 1321 0 1219 0 c 256
1219 37 m 256
 1292 37 1330 101 1330 222 c 256
 1330 346 1292 411 1219 411 c 256
 1142 411 1101 346 1101 222 c 256
 1101 101 1142 37 1219 37 c 256
EndSplineSet
Refer: 377 37 N 1 0 0 1 0 0 2
EndChar

StartChar: pi
Encoding: 960 960 381
Width: 658
VWidth: 0
Flags: HW
PickledData: "(dp1
S'org.robofab.postScriptHintData'
p2
(dp3
sS'com.typemytype.robofont.layerData'
p4
(dp5
S'b'
(dp6
S'name'
p7
S'pi'
p8
sS'lib'
p9
(dp10
sS'unicodes'
p11
(tsS'width'
p12
F1288
sS'contours'
p13
(tsS'components'
p14
(tsS'anchors'
p15
(tsss."
LayerCount: 2
Fore
SplineSet
527 -4 m 256
 557 -4 586 5 606 21 c 257
 606 62 l 257
 592 57 569 48 549 48 c 256
 500 48 479 92 479 191 c 256
 479 256 488 356 506 475 c 257
 624 475 l 257
 624 528 l 257
 203 528 l 258
 92 528 62 489 62 382 c 257
 97 382 l 257
 103 446 122 475 168 475 c 258
 229 475 l 257
 188 178 l 258
 173 71 106 41 55 41 c 257
 55 2 l 257
 203 2 229 55 239 163 c 258
 269 475 l 257
 463 475 l 257
 443 334 426 215 426 137 c 256
 426 42 451 -4 527 -4 c 256
EndSplineSet
EndChar

StartChar: plus
Encoding: 43 43 382
Width: 544
VWidth: 0
Flags: HW
PickledData: "(dp1
S'org.robofab.postScriptHintData'
p2
(dp3
sS'com.typemytype.robofont.layerData'
p4
(dp5
S'b'
(dp6
S'name'
p7
S'plus'
p8
sS'lib'
p9
(dp10
sS'unicodes'
p11
(tsS'width'
p12
F1206.9000000000001
sS'contours'
p13
(tsS'components'
p14
(tsS'anchors'
p15
(tsss."
LayerCount: 2
Fore
SplineSet
250 67 m 257
 250 284 l 257
 59 284 l 257
 59 328 l 257
 250 328 l 257
 250 528 l 257
 293 528 l 257
 293 328 l 257
 486 328 l 257
 486 284 l 257
 294 284 l 257
 294 67 l 257
 250 67 l 257
EndSplineSet
EndChar

StartChar: plusminus
Encoding: 177 177 383
Width: 576
VWidth: 0
Flags: HW
PickledData: "(dp1
S'org.robofab.postScriptHintData'
p2
(dp3
sS'com.typemytype.robofont.layerData'
p4
(dp5
S'b'
(dp6
S'name'
p7
S'plusminus'
p8
sS'lib'
p9
(dp10
sS'unicodes'
p11
(tsS'width'
p12
F1234.75
sS'contours'
p13
(tsS'components'
p14
(tsS'anchors'
p15
(tsss."
LayerCount: 2
Fore
SplineSet
85 0 m 257
 85 45 l 257
 501 45 l 257
 501 0 l 257
 85 0 l 257
271 102 m 257
 271 292 l 257
 97 292 l 257
 97 337 l 257
 271 337 l 257
 271 527 l 257
 312 527 l 257
 312 337 l 257
 477 337 l 257
 477 292 l 257
 312 292 l 257
 312 102 l 257
 271 102 l 257
EndSplineSet
EndChar

StartChar: product
Encoding: 8719 8719 384
Width: 742
VWidth: 0
Flags: HW
PickledData: "(dp1
S'org.robofab.postScriptHintData'
p2
(dp3
sS'com.typemytype.robofont.layerData'
p4
(dp5
S'b'
(dp6
S'name'
p7
S'product'
p8
sS'lib'
p9
(dp10
sS'unicodes'
p11
(tsS'width'
p12
F1568
sS'contours'
p13
(tsS'components'
p14
(tsS'anchors'
p15
(tsss."
LayerCount: 2
Fore
SplineSet
144 -21 m 257
 144 669 l 257
 54 669 l 257
 54 711 l 257
 689 711 l 257
 689 669 l 257
 599 669 l 257
 599 -21 l 257
 550 -21 l 257
 550 669 l 257
 192 669 l 257
 192 -21 l 257
 144 -21 l 257
EndSplineSet
EndChar

StartChar: q
Encoding: 113 113 385
Width: 613
VWidth: 0
Flags: HW
PickledData: "(dp1
S'org.robofab.postScriptHintData'
p2
(dp3
sS'com.typemytype.robofont.layerData'
p4
(dp5
S'b'
(dp6
S'name'
p7
S'q'
sS'lib'
p8
(dp9
sS'unicodes'
p10
(tsS'width'
p11
F1254.3
sS'contours'
p12
(tsS'components'
p13
(tsS'anchors'
p14
(tsss."
LayerCount: 2
Fore
SplineSet
272 32 m 256
 377 32 453 109 453 272 c 256
 453 399 378 471 283 471 c 256
 179 471 99 391 99 244 c 256
 99 102 176 32 272 32 c 256
458 -219 m 257
 458 116 l 257
 451 67 394 -10 271 -10 c 256
 155 -10 45 64 45 239 c 256
 45 423 145 514 278 514 c 256
 377 514 438 466 457 412 c 257
 457 501 l 257
 510 501 l 257
 513 538 508 391 508 426 c 258
 508 -219 l 257
 458 -219 l 257
EndSplineSet
EndChar

StartChar: question
Encoding: 63 63 386
Width: 543
VWidth: 0
Flags: HW
PickledData: "(dp1
S'org.robofab.postScriptHintData'
p2
(dp3
sS'com.typemytype.robofont.layerData'
p4
(dp5
S'b'
(dp6
S'name'
p7
S'question'
p8
sS'lib'
p9
(dp10
sS'unicodes'
p11
(tsS'width'
p12
F1055.9000000000001
sS'contours'
p13
(tsS'components'
p14
(tsS'anchors'
p15
(tsss."
LayerCount: 2
Fore
SplineSet
172 -10 m 257
 172 72 l 257
 252 72 l 257
 252 -10 l 257
 172 -10 l 257
190 165 m 257
 190 237 l 258
 190 349 390 420 390 552 c 256
 390 639 321 676 237 676 c 256
 175 676 127 650 104 636 c 257
 104 688 l 257
 180 725 245 719 246 719 c 256
 371 719 440 665 440 557 c 256
 440 412 229 328 229 234 c 258
 229 165 l 257
 190 165 l 257
EndSplineSet
EndChar

StartChar: quotedbl
Encoding: 34 34 388
Width: 444
VWidth: 0
Flags: HW
PickledData: "(dp1
S'org.robofab.postScriptHintData'
p2
(dp3
sS'com.typemytype.robofont.layerData'
p4
(dp5
S'b'
(dp6
S'name'
p7
S'quotedbl'
p8
sS'lib'
p9
(dp10
sS'unicodes'
p11
(tsS'width'
p12
F785.64999999999998
sS'contours'
p13
(tsS'components'
p14
(tsS'anchors'
p15
(tsss."
LayerCount: 2
Fore
SplineSet
139 454 m 257
 124 711 l 257
 178 711 l 257
 170 454 l 257
 139 454 l 257
286 454 m 257
 271 711 l 257
 325 711 l 257
 317 454 l 257
 286 454 l 257
EndSplineSet
EndChar

StartChar: quotedblbase
Encoding: 8222 8222 389
Width: 500
VWidth: 0
Flags: HW
PickledData: "(dp1
S'org.robofab.postScriptHintData'
p2
(dp3
s."
LayerCount: 2
Fore
SplineSet
153 -180 m 257
 139 77 l 257
 192 77 l 257
 185 -180 l 257
 153 -180 l 257
300 -180 m 257
 286 77 l 257
 339 77 l 257
 332 -180 l 257
 300 -180 l 257
EndSplineSet
EndChar

StartChar: quotedblleft
Encoding: 8220 8220 390
Width: 500
VWidth: 0
Flags: HW
PickledData: "(dp1
S'org.robofab.postScriptHintData'
p2
(dp3
sS'com.typemytype.robofont.layerData'
p4
(dp5
S'b'
(dp6
S'name'
p7
S'quotedblleft'
p8
sS'lib'
p9
(dp10
sS'unicodes'
p11
(tsS'width'
p12
F1024
sS'contours'
p13
(tsS'components'
p14
(tsS'anchors'
p15
(tsss."
LayerCount: 2
Fore
SplineSet
269 441 m 257
 308 711 l 257
 341 711 l 257
 327 441 l 257
 269 441 l 257
104 441 m 257
 143 711 l 257
 175 711 l 257
 162 441 l 257
 104 441 l 257
EndSplineSet
EndChar

StartChar: quotedblright
Encoding: 8221 8221 391
Width: 500
VWidth: 0
Flags: HW
PickledData: "(dp1
S'org.robofab.postScriptHintData'
p2
(dp3
sS'com.typemytype.robofont.layerData'
p4
(dp5
S'b'
(dp6
S'name'
p7
S'quotedblright'
p8
sS'lib'
p9
(dp10
sS'unicodes'
p11
(tsS'width'
p12
F1024
sS'contours'
p13
(tsS'components'
p14
(tsS'anchors'
p15
(tsss."
LayerCount: 2
Fore
SplineSet
269 441 m 257
 283 711 l 257
 341 711 l 257
 302 441 l 257
 269 441 l 257
104 441 m 257
 117 711 l 257
 175 711 l 257
 136 441 l 257
 104 441 l 257
EndSplineSet
EndChar

StartChar: quoteleft
Encoding: 8216 8216 392
Width: 210
VWidth: 0
Flags: HW
PickledData: "(dp1
S'org.robofab.postScriptHintData'
p2
(dp3
sS'com.typemytype.robofont.layerData'
p4
(dp5
S'b'
(dp6
S'name'
p7
S'quoteleft'
p8
sS'lib'
p9
(dp10
sS'unicodes'
p11
(tsS'width'
p12
F518.5
sS'contours'
p13
(tsS'components'
p14
(tsS'anchors'
p15
(tsss."
LayerCount: 2
Fore
SplineSet
108 441 m 257
 50 441 l 257
 89 711 l 257
 122 711 l 257
 108 441 l 257
EndSplineSet
EndChar

StartChar: quoteright
Encoding: 8217 8217 393
Width: 192
VWidth: 0
Flags: HW
PickledData: "(dp1
S'org.robofab.postScriptHintData'
p2
(dp3
sS'com.typemytype.robofont.layerData'
p4
(dp5
S'b'
(dp6
S'name'
p7
S'quoteright'
p8
sS'lib'
p9
(dp10
g4
(dp11
S'b'
(dp12
g7
S'quoteleft'
p13
sg9
(dp14
sS'unicodes'
p15
(tsS'width'
p16
I494
sS'contours'
p17
(tsS'components'
p18
(tsS'anchors'
p19
(tssssg15
(tsg16
F537.25
sg17
((dp20
S'points'
p21
((dp22
S'segmentType'
p23
S'line'
p24
sS'x'
F416
sS'smooth'
p25
I00
sS'y'
F888
s(dp26
g23
S'line'
p27
sS'x'
F300
sg25
I00
sS'y'
F888
s(dp28
g23
S'line'
p29
sS'x'
F150
sg25
I00
sS'y'
F1456
s(dp30
g23
S'line'
p31
sS'x'
F360
sg25
I00
sS'y'
F1456
stp32
stp33
sg18
(tsg19
(tsss."
LayerCount: 2
Fore
SplineSet
70 441 m 257
 83 711 l 257
 142 711 l 257
 103 441 l 257
 70 441 l 257
EndSplineSet
EndChar

StartChar: quotesinglbase
Encoding: 8218 8218 394
Width: 217
VWidth: 0
Flags: HW
PickledData: "(dp1
S'org.robofab.postScriptHintData'
p2
(dp3
sS'com.typemytype.robofont.layerData'
p4
(dp5
S'b'
(dp6
S'name'
p7
S'quotesinglbase'
p8
sS'lib'
p9
(dp10
sS'unicodes'
p11
(tsS'width'
p12
F595.70000000000005
sS'contours'
p13
(tsS'components'
p14
(tsS'anchors'
p15
(tsss."
LayerCount: 2
Fore
SplineSet
101 -180 m 257
 86 77 l 257
 140 77 l 257
 132 -180 l 257
 101 -180 l 257
EndSplineSet
EndChar

StartChar: quotesingle
Encoding: 39 39 395
Width: 265
VWidth: 0
Flags: HW
PickledData: "(dp1
S'org.robofab.postScriptHintData'
p2
(dp3
sS'com.typemytype.robofont.layerData'
p4
(dp5
S'b'
(dp6
S'name'
p7
S'quotesingle'
p8
sS'lib'
p9
(dp10
sS'unicodes'
p11
(tsS'width'
p12
F507.85000000000002
sS'contours'
p13
(tsS'components'
p14
(tsS'anchors'
p15
(tsss."
LayerCount: 2
Fore
SplineSet
116 454 m 257
 101 711 l 257
 155 711 l 257
 147 454 l 257
 116 454 l 257
EndSplineSet
EndChar

StartChar: r
Encoding: 114 114 396
Width: 375
VWidth: 0
Flags: HW
PickledData: "(dp1
S'org.robofab.postScriptHintData'
p2
(dp3
sS'com.typemytype.robofont.layerData'
p4
(dp5
S'b'
(dp6
S'name'
p7
S'r'
sS'lib'
p8
(dp9
sS'unicodes'
p10
(tsS'width'
p11
F818.89999999999998
sS'contours'
p12
(tsS'components'
p13
(tsS'anchors'
p14
(tsss."
AnchorPoint: "top" 234 501 basechar 0
LayerCount: 2
Fore
SplineSet
100 0 m 257
 100 379 l 258
 100 441 96 501 96 501 c 257
 145 501 l 257
 149 408 l 257
 171 486 232 512 297 512 c 256
 313 512 329 510 346 507 c 257
 344 463 l 257
 328 466 313 468 298 468 c 256
 212 468 148 415 148 273 c 258
 148 0 l 257
 100 0 l 257
EndSplineSet
EndChar

StartChar: radical
Encoding: 8730 8730 398
Width: 641
VWidth: 0
Flags: HW
PickledData: "(dp1
S'org.robofab.postScriptHintData'
p2
(dp3
s."
LayerCount: 2
Fore
SplineSet
320 -78 m 257
 148 356 l 257
 60 343 l 257
 59 375 l 257
 175 396 l 257
 340 -57 l 257
 565 794 l 257
 593 794 l 257
 360 -78 l 257
 320 -78 l 257
EndSplineSet
EndChar

StartChar: registered
Encoding: 174 174 402
Width: 853
VWidth: 0
Flags: HW
PickledData: "(dp1
S'org.robofab.postScriptHintData'
p2
(dp3
sS'com.typemytype.robofont.layerData'
p4
(dp5
S'b'
(dp6
S'name'
p7
S'registered'
p8
sS'lib'
p9
(dp10
sS'unicodes'
p11
(tsS'width'
p12
F1727.05
sS'contours'
p13
(tsS'components'
p14
(tsS'anchors'
p15
(tsss."
LayerCount: 2
Fore
SplineSet
426 -19 m 256
 221 -19 54 149 54 354 c 256
 54 559 221 726 426 726 c 256
 631 726 800 559 800 354 c 256
 800 149 631 -19 426 -19 c 256
428 22 m 256
 607 22 752 173 752 351 c 256
 752 530 607 680 428 680 c 256
 248 680 102 530 102 351 c 256
 102 173 248 22 428 22 c 256
327 372 m 257
 401 372 l 258
 505 372 548 387 548 458 c 256
 548 535 513 547 388 547 c 258
 327 547 l 257
 327 372 l 257
281 127 m 257
 281 589 l 257
 398 589 l 258
 546 589 602 544 602 466 c 256
 602 398 579 358 480 343 c 257
 597 127 l 257
 540 127 l 257
 429 341 l 257
 328 341 l 257
 328 127 l 257
 281 127 l 257
EndSplineSet
EndChar

StartChar: ring
Encoding: 730 730 403
Width: 260
VWidth: 0
Flags: HW
PickledData: "(dp1
S'org.robofab.postScriptHintData'
p2
(dp3
sS'com.typemytype.robofont.layerData'
p4
(dp5
S'b'
(dp6
S'name'
p7
S'ring'
p8
sS'lib'
p9
(dp10
sS'unicodes'
p11
(tsS'width'
p12
F633.35000000000002
sS'contours'
p13
(tsS'components'
p14
(tsS'anchors'
p15
(tsss."
AnchorPoint: "top" 131 501 mark 0
AnchorPoint: "top" 130 711 basechar 0
LayerCount: 2
Fore
SplineSet
131 560 m 256
 82 560 45 595 45 642 c 256
 45 689 82 724 131 724 c 256
 180 724 216 689 216 642 c 256
 216 595 180 560 131 560 c 256
131 587 m 256
 161 587 182 610 182 642 c 256
 182 674 161 696 131 696 c 256
 101 696 80 674 80 642 c 256
 80 610 101 587 131 587 c 256
EndSplineSet
EndChar

StartChar: s
Encoding: 115 115 405
Width: 456
VWidth: 0
Flags: HW
PickledData: "(dp1
S'org.robofab.postScriptHintData'
p2
(dp3
sS'com.typemytype.robofont.layerData'
p4
(dp5
S'b'
(dp6
S'name'
p7
S's'
sS'lib'
p8
(dp9
sS'unicodes'
p10
(tsS'width'
p11
F981.89999999999998
sS'contours'
p12
((dp13
S'points'
p14
((dp15
S'segmentType'
p16
S'curve'
p17
sS'x'
F498
sS'smooth'
p18
I01
sS'y'
F-23
s(dp19
S'y'
F-23
sS'x'
F282
sg18
I00
s(dp20
S'y'
F70
sS'x'
F145
sg18
I00
s(dp21
g16
S'curve'
p22
sS'x'
F116
sg18
I00
sS'y'
F94
s(dp23
g16
S'line'
p24
sS'x'
F160
sg18
I00
sS'y'
F222
s(dp25
S'y'
F189
sS'x'
F208
sg18
I00
s(dp26
S'y'
F109
sS'x'
F348
sg18
I00
s(dp27
g16
S'curve'
p28
sS'x'
F484
sg18
I01
sS'y'
F109
s(dp29
S'y'
F109
sS'x'
F589
sg18
I00
s(dp30
S'y'
F141
sS'x'
F711
sg18
I00
s(dp31
g16
S'curve'
p32
sS'x'
F711
sg18
I01
sS'y'
F272
s(dp33
S'y'
F395
sS'x'
F711
sg18
I00
s(dp34
S'y'
F426
sS'x'
F561
sg18
I00
s(dp35
g16
S'curve'
p36
sS'x'
F412
sg18
I00
sS'y'
F474
s(dp37
S'y'
F521
sS'x'
F262
sg18
I00
s(dp38
S'y'
F585
sS'x'
F112
sg18
I00
s(dp39
g16
S'curve'
p40
sS'x'
F112
sg18
I01
sS'y'
F771
s(dp41
S'y'
F970
sS'x'
F112
sg18
I00
s(dp42
S'y'
F1051
sS'x'
F318
sg18
I00
s(dp43
g16
S'curve'
p44
sS'x'
F488
sg18
I01
sS'y'
F1051
s(dp45
S'y'
F1051
sS'x'
F715
sg18
I00
s(dp46
S'y'
F991
sS'x'
F792
sg18
I00
s(dp47
g16
S'curve'
p48
sS'x'
F832
sg18
I00
sS'y'
F966
s(dp49
g16
S'line'
p50
sS'x'
F785
sg18
I00
sS'y'
F851
s(dp51
S'y'
F858
sS'x'
F772
sg18
I00
s(dp52
S'y'
F917
sS'x'
F667
sg18
I00
s(dp53
g16
S'curve'
p54
sS'x'
F504
sg18
I01
sS'y'
F917
s(dp55
S'y'
F917
sS'x'
F355
sg18
I00
s(dp56
S'y'
F882
sS'x'
F283
sg18
I00
s(dp57
g16
S'curve'
p58
sS'x'
F283
sg18
I01
sS'y'
F774
s(dp59
S'y'
F660
sS'x'
F283
sg18
I00
s(dp60
S'y'
F629
sS'x'
F433
sg18
I00
s(dp61
g16
S'curve'
p62
sS'x'
F582
sg18
I01
sS'y'
F581
s(dp63
S'y'
F533
sS'x'
F732
sg18
I00
s(dp64
S'y'
F468
sS'x'
F881
sg18
I00
s(dp65
g16
S'curve'
p66
sS'x'
F881
sg18
I01
sS'y'
F284
s(dp67
S'y'
F62
sS'x'
F881
sg18
I00
s(dp68
S'y'
F-23
sS'x'
F685
sg18
I00
stp69
stp70
sS'components'
p71
(tsS'anchors'
p72
(tsss."
AnchorPoint: "top" 228 501 basechar 0
LayerCount: 2
Fore
SplineSet
233 -10 m 256
 138 -10 76 35 60 47 c 257
 78 84 l 257
 94 74 149 32 231 32 c 256
 290 32 363 46 363 128 c 256
 363 183 337 204 273 224 c 258
 172 255 l 258
 99 277 57 307 57 382 c 256
 57 474 131 514 240 514 c 256
 329 514 372 488 390 477 c 257
 374 441 l 257
 358 450 314 474 240 474 c 256
 146 474 104 441 104 386 c 256
 104 333 124 318 190 297 c 258
 289 267 l 258
 370 242 409 209 409 137 c 256
 409 34 331 -10 233 -10 c 256
EndSplineSet
EndChar

StartChar: section
Encoding: 167 167 412
Width: 500
VWidth: 0
Flags: HW
PickledData: "(dp1
S'org.robofab.postScriptHintData'
p2
(dp3
sS'com.typemytype.robofont.layerData'
p4
(dp5
S'b'
(dp6
S'name'
p7
S'section'
p8
sS'lib'
p9
(dp10
sS'unicodes'
p11
(tsS'width'
p12
F1071.6500000000001
sS'contours'
p13
(tsS'components'
p14
(tsS'anchors'
p15
(tsss."
LayerCount: 2
Fore
SplineSet
280 232 m 257
 341 259 379 300 379 353 c 256
 379 395 348 409 255 454 c 257
 181 429 135 399 135 351 c 256
 135 295 190 272 280 232 c 257
243 -44 m 256
 201 -44 153 -36 107 -20 c 257
 107 16 l 257
 155 -3 202 -12 243 -12 c 256
 317 -12 369 20 369 87 c 257
 371 151 307 174 219 218 c 256
 142 257 98 279 98 350 c 256
 98 412 161 455 226 469 c 257
 143 512 113 539 113 601 c 256
 113 694 201 732 286 732 c 256
 321 732 355 726 383 714 c 257
 383 679 l 257
 355 691 321 698 287 698 c 256
 219 698 154 670 154 601 c 256
 154 555 169 540 267 489 c 256
 367 437 420 420 420 352 c 256
 420 289 361 242 307 218 c 257
 372 186 410 152 410 93 c 256
 410 -2 337 -44 243 -44 c 256
EndSplineSet
EndChar

StartChar: semicolon
Encoding: 59 59 413
Width: 268
VWidth: 0
Flags: HW
PickledData: "(dp1
S'org.robofab.postScriptHintData'
p2
(dp3
s."
LayerCount: 2
Fore
SplineSet
69 407 m 257
 69 489 l 257
 163 489 l 257
 163 407 l 257
 69 407 l 257
62 -125 m 257
 112 80 l 257
 170 80 l 257
 96 -125 l 257
 62 -125 l 257
EndSplineSet
EndChar

StartChar: seven
Encoding: 55 55 414
Width: 574
VWidth: 0
Flags: HW
PickledData: "(dp1
S'org.robofab.postScriptHintData'
p2
(dp3
s."
LayerCount: 2
Fore
SplineSet
191 0 m 257
 458 662 l 257
 93 662 l 257
 93 711 l 257
 515 711 l 257
 515 672 l 257
 250 0 l 257
 191 0 l 257
EndSplineSet
EndChar

StartChar: six
Encoding: 54 54 415
Width: 574
VWidth: 0
Flags: HW
PickledData: "(dp1
S'org.robofab.postScriptHintData'
p2
(dp3
s."
LayerCount: 2
Fore
SplineSet
301 31 m 256
 410 31 469 114 469 221 c 256
 469 322 422 403 310 403 c 256
 186 403 121 317 121 270 c 256
 121 154 161 31 301 31 c 256
301 -11 m 256
 130 -11 61 131 61 336 c 256
 61 548 140 724 324 724 c 256
 392 724 445 696 474 675 c 257
 453 638 l 257
 428 659 380 682 324 682 c 256
 144 682 118 479 115 379 c 256
 115 366 114 355 114 346 c 257
 132 384 204 445 310 445 c 256
 429 445 522 359 522 221 c 256
 522 90 438 -11 301 -11 c 256
EndSplineSet
EndChar

StartChar: slash
Encoding: 47 47 416
Width: 357
VWidth: 0
Flags: HW
PickledData: "(dp1
S'org.robofab.postScriptHintData'
p2
(dp3
s."
LayerCount: 2
Fore
SplineSet
70 0 m 257
 278 711 l 257
 318 711 l 257
 109 0 l 257
 70 0 l 257
EndSplineSet
EndChar

StartChar: uni00AD
Encoding: 173 173 418
Width: 289
VWidth: 0
Flags: HW
PickledData: "(dp1
S'org.robofab.postScriptHintData'
p2
(dp3
s."
LayerCount: 2
Fore
SplineSet
33 257 m 257
 33 293 l 257
 257 293 l 257
 257 257 l 257
 33 257 l 257
EndSplineSet
EndChar

StartChar: sterling
Encoding: 163 163 420
Width: 554
VWidth: 0
Flags: HW
PickledData: "(dp1
S'org.robofab.postScriptHintData'
p2
(dp3
sS'com.typemytype.robofont.layerData'
p4
(dp5
S'b'
(dp6
S'name'
p7
S'sterling'
p8
sS'lib'
p9
(dp10
sS'unicodes'
p11
(tsS'width'
p12
F1207.3
sS'contours'
p13
(tsS'components'
p14
(tsS'anchors'
p15
(tsss."
LayerCount: 2
Fore
SplineSet
71 0 m 257
 71 51 l 257
 145 94 158 220 158 269 c 258
 158 349 l 257
 61 349 l 257
 61 386 l 257
 159 386 l 257
 159 489 l 258
 159 624 211 720 352 720 c 256
 424 720 466 697 469 683 c 257
 452 648 l 257
 452 654 403 675 347 672 c 256
 243 666 212 589 212 501 c 258
 212 386 l 257
 403 386 l 257
 403 349 l 257
 214 349 l 257
 214 270 l 258
 214 132 155 55 136 47 c 257
 481 47 l 257
 481 0 l 257
 71 0 l 257
EndSplineSet
EndChar

StartChar: summation
Encoding: 8721 8721 421
Width: 538
VWidth: 0
Flags: HW
PickledData: "(dp1
S'org.robofab.postScriptHintData'
p2
(dp3
sS'com.typemytype.robofont.layerData'
p4
(dp5
S'b'
(dp6
S'name'
p7
S'summation'
p8
sS'lib'
p9
(dp10
sS'unicodes'
p11
(tsS'width'
p12
F1198.3
sS'contours'
p13
(tsS'components'
p14
(tsS'anchors'
p15
(tsss."
LayerCount: 2
Fore
SplineSet
50 -48 m 257
 50 -24 l 257
 300 339 l 257
 59 680 l 257
 59 709 l 257
 498 709 l 257
 498 673 l 257
 123 673 l 257
 350 345 l 257
 103 -13 l 257
 518 -13 l 257
 518 -48 l 257
 50 -48 l 257
EndSplineSet
EndChar

StartChar: t
Encoding: 116 116 422
Width: 335
VWidth: 0
Flags: HW
PickledData: "(dp1
S'org.robofab.postScriptHintData'
p2
(dp3
sS'com.typemytype.robofont.layerData'
p4
(dp5
S'b'
(dp6
S'name'
p7
S't'
sS'lib'
p8
(dp9
sS'unicodes'
p10
(tsS'width'
p11
F763.89999999999998
sS'contours'
p12
(tsS'components'
p13
(tsS'anchors'
p14
(tsss."
AnchorPoint: "top" 144 640 basechar 0
AnchorPoint: "caron.alt" 146 617 basechar 0
LayerCount: 2
Fore
SplineSet
289 -0 m 257
 281 0 274 0 267 0 c 256
 117 7 126 73 126 159 c 258
 126 469 l 257
 27 469 l 257
 27 501 l 257
 126 501 l 257
 126 645 l 257
 174 659 l 257
 174 501 l 257
 288 501 l 257
 288 469 l 257
 174 469 l 257
 174 158 l 258
 174 60 175 41 289 41 c 257
 289 -0 l 257
EndSplineSet
EndChar

StartChar: thorn
Encoding: 254 254 427
Width: 608
VWidth: 0
Flags: HW
PickledData: "(dp1
S'org.robofab.postScriptHintData'
p2
(dp3
s."
LayerCount: 2
Fore
SplineSet
327 30 m 256
 436 30 505 113 505 250 c 256
 505 391 436 471 327 471 c 256
 186 471 139 361 139 250 c 256
 139 120 205 30 327 30 c 256
83 -219 m 257
 83 708 l 257
 139 708 l 257
 140 406 l 257
 176 475 242 513 327 513 c 256
 469 513 560 418 560 250 c 256
 560 89 469 -11 327 -11 c 256
 243 -11 173 30 139 98 c 257
 140 -219 l 257
 83 -219 l 257
EndSplineSet
EndChar

StartChar: three
Encoding: 51 51 428
Width: 574
VWidth: 0
Flags: HW
PickledData: "(dp1
S'org.robofab.postScriptHintData'
p2
(dp3
sS'com.typemytype.robofont.layerData'
p4
(dp5
S'b'
(dp6
S'name'
p7
S'three'
p8
sS'lib'
p9
(dp10
sS'unicodes'
p11
(tsS'width'
p12
F1234.0999999999999
sS'contours'
p13
((dp14
S'points'
p15
((dp16
S'segmentType'
p17
S'curve'
p18
sS'x'
F344
sS'smooth'
p19
I01
sS'y'
F1010
s(dp20
S'y'
F827
sS'x'
F344
sg19
I00
s(dp21
S'y'
F687
sS'x'
F423
sg19
I00
s(dp22
g17
S'curve'
p23
sS'x'
F634
sg19
I01
sS'y'
F687
s(dp24
S'y'
F687
sS'x'
F814
sg19
I00
s(dp25
S'y'
F803
sS'x'
F938
sg19
I00
s(dp26
g17
S'curve'
p27
sS'x'
F938
sg19
I01
sS'y'
F991
s(dp28
S'y'
F1166
sS'x'
F938
sg19
I00
s(dp29
S'y'
F1334
sS'x'
F845
sg19
I00
s(dp30
g17
S'curve'
p31
sS'x'
F635
sg19
I01
sS'y'
F1334
s(dp32
S'y'
F1334
sS'x'
F449
sg19
I00
s(dp33
S'y'
F1196
sS'x'
F344
sg19
I00
stp34
s(dp35
g15
((dp36
g17
S'curve'
p37
sS'x'
F594
sg19
I01
sS'y'
F-24
s(dp38
S'y'
F-24
sS'x'
F473
sg19
I00
s(dp39
S'y'
F-1
sS'x'
F367
sg19
I00
s(dp40
g17
S'curve'
p41
sS'x'
F238
sg19
I00
sS'y'
F65
s(dp42
g17
S'line'
p43
sS'x'
F287
sg19
I00
sS'y'
F197
s(dp44
S'y'
F138
sS'x'
F401
sg19
I00
s(dp45
S'y'
F124
sS'x'
F489
sg19
I00
s(dp46
g17
S'curve'
p47
sS'x'
F581
sg19
I01
sS'y'
F124
s(dp48
S'y'
F124
sS'x'
F812
sg19
I00
s(dp49
S'y'
F308
sS'x'
F950
sg19
I00
s(dp50
g17
S'curve'
p51
sS'x'
F950
sg19
I01
sS'y'
F657
s(dp52
g17
S'line'
p53
sS'x'
F950
sg19
I00
sS'y'
F722
s(dp54
S'y'
F600
sS'x'
F886
sg19
I00
s(dp55
S'y'
F544
sS'x'
F772
sg19
I00
s(dp56
g17
S'curve'
p57
sS'x'
F607
sg19
I01
sS'y'
F544
s(dp58
S'y'
F544
sS'x'
F328
sg19
I00
s(dp59
S'y'
F735
sS'x'
F168
sg19
I00
s(dp60
g17
S'curve'
p61
sS'x'
F168
sg19
I01
sS'y'
F1004
s(dp62
S'y'
F1275
sS'x'
F168
sg19
I00
s(dp63
S'y'
F1483
sS'x'
F341
sg19
I00
s(dp64
g17
S'curve'
p65
sS'x'
F643
sg19
I01
sS'y'
F1483
s(dp66
S'y'
F1483
sS'x'
F969
sg19
I00
s(dp67
S'y'
F1231
sS'x'
F1125
sg19
I00
s(dp68
g17
S'curve'
p69
sS'x'
F1125
sg19
I01
sS'y'
F774
s(dp70
S'y'
F203
sS'x'
F1125
sg19
I00
s(dp71
S'y'
F-24
sS'x'
F894
sg19
I00
stp72
stp73
sS'components'
p74
(tsS'anchors'
p75
(tsss."
LayerCount: 2
Fore
SplineSet
263 -11 m 256
 201 -11 135 4 95 27 c 257
 105 67 l 257
 160 39 222 31 263 31 c 256
 377 31 450 93 450 191 c 256
 450 288 393 352 273 354 c 258
 221 354 l 257
 220 400 l 257
 273 400 l 258
 384 400 437 458 437 546 c 256
 437 629 372 682 271 682 c 256
 202 682 125 656 83 598 c 257
 55 626 l 257
 93 686 178 724 271 724 c 256
 401 724 484 654 484 546 c 256
 484 474 436 395 347 377 c 257
 444 362 504 282 504 191 c 256
 504 67 410 -11 263 -11 c 256
EndSplineSet
EndChar

StartChar: threequarters
Encoding: 190 190 429
Width: 781
VWidth: 0
Flags: HW
PickledData: "(dp1
S'org.robofab.postScriptHintData'
p2
(dp3
s."
LayerCount: 2
Fore
SplineSet
502 125 m 257
 652 125 l 257
 652 340 l 257
 502 125 l 257
200 0 m 257
 654 711 l 257
 688 711 l 257
 241 0 l 257
 200 0 l 257
653 0 m 257
 653 90 l 257
 460 90 l 257
 460 124 l 257
 643 384 l 257
 691 384 l 257
 691 125 l 257
 732 125 l 257
 731 90 l 257
 689 90 l 257
 689 0 l 257
 653 0 l 257
194 295 m 256
 147 295 99 312 72 339 c 257
 91 370 l 257
 115 346 155 329 194 329 c 256
 244 329 278 362 278 410 c 256
 278 458 246 492 183 492 c 258
 136 492 l 257
 136 526 l 257
 183 526 l 258
 243 526 271 557 271 600 c 256
 271 646 238 677 188 677 c 256
 151 677 120 666 99 636 c 257
 76 657 l 257
 93 690 137 711 187 711 c 256
 262 711 310 668 310 600 c 256
 310 558 284 523 243 511 c 257
 287 498 316 459 316 410 c 256
 316 340 268 295 194 295 c 256
EndSplineSet
EndChar

StartChar: uni00B3
Encoding: 179 179 430
Width: 428
VWidth: 0
Flags: HW
PickledData: "(dp1
S'org.robofab.postScriptHintData'
p2
(dp3
s."
LayerCount: 2
Fore
SplineSet
194 295 m 256
 147 295 99 312 72 339 c 257
 91 370 l 257
 115 346 155 329 194 329 c 256
 244 329 278 362 278 410 c 256
 278 458 246 492 183 492 c 258
 136 492 l 257
 136 526 l 257
 183 526 l 258
 243 526 271 557 271 600 c 256
 271 646 238 677 188 677 c 256
 151 677 120 666 99 636 c 257
 76 657 l 257
 93 690 137 711 187 711 c 256
 262 711 310 668 310 600 c 256
 310 558 284 523 243 511 c 257
 287 498 316 459 316 410 c 256
 316 340 268 295 194 295 c 256
EndSplineSet
EndChar

StartChar: tilde
Encoding: 732 732 431
Width: 279
VWidth: 0
Flags: HW
PickledData: "(dp1
S'org.robofab.postScriptHintData'
p2
(dp3
sS'com.typemytype.robofont.layerData'
p4
(dp5
S'b'
(dp6
S'name'
p7
S'tilde'
p8
sS'lib'
p9
(dp10
sS'unicodes'
p11
(tsS'width'
p12
F672.35000000000002
sS'contours'
p13
(tsS'components'
p14
(tsS'anchors'
p15
(tsss."
AnchorPoint: "top" 145 501 mark 0
LayerCount: 2
Fore
SplineSet
221 602 m 256
 176 602 106 649 70 649 c 256
 48 649 40 634 40 610 c 257
 9 610 l 257
 9 656 30 681 67 681 c 256
 113 681 181 633 217 633 c 256
 237 633 238 649 238 675 c 257
 270 675 l 257
 270 638 262 602 221 602 c 256
EndSplineSet
EndChar

StartChar: trademark
Encoding: 8482 8482 432
Width: 912
VWidth: 0
Flags: HW
PickledData: "(dp1
S'org.robofab.postScriptHintData'
p2
(dp3
sS'com.typemytype.robofont.layerData'
p4
(dp5
S'b'
(dp6
S'name'
p7
S'trademark'
p8
sS'lib'
p9
(dp10
sS'unicodes'
p11
(tsS'width'
p12
F1869
sS'contours'
p13
(tsS'components'
p14
(tsS'anchors'
p15
(tsss."
LayerCount: 2
Fore
SplineSet
169 357 m 257
 169 698 l 257
 33 698 l 257
 33 724 l 257
 346 724 l 257
 346 698 l 257
 204 698 l 257
 204 357 l 257
 169 357 l 257
403 357 m 257
 403 724 l 257
 456 724 l 257
 602 403 l 257
 763 724 l 257
 806 724 l 257
 806 357 l 257
 777 357 l 257
 777 693 l 257
 611 357 l 257
 590 357 l 257
 433 696 l 257
 433 357 l 257
 403 357 l 257
EndSplineSet
EndChar

StartChar: two
Encoding: 50 50 433
Width: 591
VWidth: 0
Flags: HW
PickledData: "(dp1
S'org.robofab.postScriptHintData'
p2
(dp3
sS'com.typemytype.robofont.layerData'
p4
(dp5
S'b'
(dp6
S'name'
p7
S'two'
p8
sS'lib'
p9
(dp10
sS'unicodes'
p11
(tsS'width'
p12
F1244.5
sS'contours'
p13
(tsS'components'
p14
(tsS'anchors'
p15
(tsss."
LayerCount: 2
Fore
SplineSet
106 0 m 257
 106 44 l 257
 346 317 l 258
 423 405 455 449 455 521 c 256
 455 607 414 681 286 681 c 256
 228 681 164 663 109 632 c 257
 90 670 l 257
 150 705 221 724 286 724 c 256
 451 724 504 623 504 529 c 256
 504 437 455 376 377 288 c 258
 160 42 l 257
 501 42 l 257
 501 0 l 257
 106 0 l 257
EndSplineSet
EndChar

StartChar: uni00B2
Encoding: 178 178 434
Width: 459
VWidth: 0
Flags: HW
PickledData: "(dp1
S'org.robofab.postScriptHintData'
p2
(dp3
s."
LayerCount: 2
Fore
SplineSet
94 308 m 257
 94 342 l 257
 237 491 l 258
 295 551 305 575 305 609 c 256
 305 643 286 680 224 680 c 256
 181 680 143 660 141 597 c 257
 104 599 l 257
 105 670 152 711 224 711 c 256
 303 711 342 664 342 611 c 256
 342 560 327 532 261 465 c 258
 141 342 l 257
 344 342 l 257
 344 308 l 257
 94 308 l 257
EndSplineSet
EndChar

StartChar: u
Encoding: 117 117 435
Width: 627
VWidth: 0
Flags: HW
PickledData: "(dp1
S'org.robofab.postScriptHintData'
p2
(dp3
sS'com.typemytype.robofont.layerData'
p4
(dp5
S'b'
(dp6
S'name'
p7
S'u'
sS'lib'
p8
(dp9
sS'unicodes'
p10
(tsS'width'
p11
F1227.2
sS'contours'
p12
(tsS'components'
p13
(tsS'anchors'
p14
(tsss."
AnchorPoint: "top" 318 501 basechar 0
LayerCount: 2
Fore
SplineSet
285 -13 m 256
 160 -13 97 61 97 201 c 258
 97 501 l 257
 145 501 l 257
 145 199 l 258
 145 87 191 27 285 27 c 256
 410 27 475 127 475 173 c 258
 475 501 l 257
 522 501 l 257
 522 110 l 258
 522 55 524 26 525 0 c 257
 481 0 l 257
 477 93 l 257
 435 27 371 -13 285 -13 c 256
EndSplineSet
EndChar

StartChar: underscore
Encoding: 95 95 446
Width: 413
VWidth: 0
Flags: HW
PickledData: "(dp1
S'org.robofab.postScriptHintData'
p2
(dp3
s."
LayerCount: 2
Fore
SplineSet
3 -140 m 257
 3 -101 l 257
 410 -101 l 257
 410 -140 l 257
 3 -140 l 257
EndSplineSet
EndChar

StartChar: uni0307
Encoding: 775 775 459
Width: 255
VWidth: 0
Flags: HW
PickledData: "(dp1
S'org.robofab.postScriptHintData'
p2
(dp3
s."
AnchorPoint: "top" 129 501 mark 0
LayerCount: 2
Fore
SplineSet
90 608 m 257
 89 688 l 257
 166 688 l 257
 167 608 l 257
 90 608 l 257
EndSplineSet
EndChar

StartChar: uni030F
Encoding: 783 783 460
Width: 473
VWidth: 0
Flags: HW
PickledData: "(dp1
S'org.robofab.postScriptHintData'
p2
(dp3
s."
AnchorPoint: "top" 310 501 mark 0
LayerCount: 2
Fore
SplineSet
370 573 m 257
 236 726 l 257
 292 726 l 257
 398 573 l 257
 370 573 l 257
239 573 m 257
 104 726 l 257
 161 726 l 257
 268 573 l 257
 239 573 l 257
EndSplineSet
EndChar

StartChar: uni0311
Encoding: 785 785 461
Width: 307
VWidth: 0
Flags: HW
PickledData: "(dp1
S'org.robofab.postScriptHintData'
p2
(dp3
s."
AnchorPoint: "top" 153 501 mark 0
LayerCount: 2
Fore
SplineSet
24 598 m 257
 26 669 90 704 152 704 c 256
 215 704 279 668 283 598 c 257
 248 598 l 257
 242 643 196 666 151 666 c 256
 107 666 64 644 60 598 c 257
 24 598 l 257
EndSplineSet
EndChar

StartChar: uni0312
Encoding: 786 786 462
Width: 292
VWidth: 0
Flags: HW
PickledData: "(dp1
S'org.robofab.postScriptHintData'
p2
(dp3
s."
AnchorPoint: "top" 135 501 mark 0
LayerCount: 2
Fore
SplineSet
216 822 m 257
 166 610 l 257
 109 610 l 257
 182 822 l 257
 216 822 l 257
EndSplineSet
EndChar

StartChar: uni0326
Encoding: 806 806 463
Width: 263
VWidth: 0
Flags: HW
PickledData: "(dp1
S'org.robofab.postScriptHintData'
p2
(dp3
s."
LayerCount: 2
Fore
SplineSet
78 -272 m 257
 128 -61 l 257
 186 -61 l 257
 112 -272 l 257
 78 -272 l 257
EndSplineSet
EndChar

StartChar: uni2015
Encoding: 8213 8213 464
Width: 1999
VWidth: 0
Flags: HW
PickledData: "(dp1
S'org.robofab.postScriptHintData'
p2
(dp3
s."
LayerCount: 2
Fore
SplineSet
35 251 m 257
 35 300 l 257
 1965 300 l 257
 1965 251 l 257
 35 251 l 257
EndSplineSet
EndChar

StartChar: v
Encoding: 118 118 469
Width: 463
VWidth: 0
Flags: HW
PickledData: "(dp1
S'org.robofab.postScriptHintData'
p2
(dp3
sS'com.typemytype.robofont.layerData'
p4
(dp5
S'b'
(dp6
S'name'
p7
S'v'
sS'lib'
p8
(dp9
sS'unicodes'
p10
(tsS'width'
p11
F1056.8
sS'contours'
p12
(tsS'components'
p13
(tsS'anchors'
p14
(tsss."
LayerCount: 2
Fore
SplineSet
207 0 m 257
 0 501 l 257
 50 501 l 257
 210 103 l 257
 234 38 l 257
 257 103 l 257
 418 501 l 257
 467 501 l 257
 261 0 l 257
 207 0 l 257
EndSplineSet
EndChar

StartChar: w
Encoding: 119 119 470
Width: 758
VWidth: 0
Flags: HW
PickledData: "(dp1
S'org.robofab.postScriptHintData'
p2
(dp3
sS'com.typemytype.robofont.layerData'
p4
(dp5
S'b'
(dp6
S'name'
p7
S'w'
sS'lib'
p8
(dp9
sS'unicodes'
p10
(tsS'width'
p11
F1634.0999999999999
sS'contours'
p12
(tsS'components'
p13
(tsS'anchors'
p14
(tsss."
AnchorPoint: "top" 387 501 basechar 0
LayerCount: 2
Fore
SplineSet
167 0 m 257
 21 501 l 257
 73 501 l 257
 190 89 l 257
 201 50 l 257
 214 89 l 257
 355 501 l 257
 417 501 l 257
 556 89 l 257
 568 50 l 257
 578 89 l 257
 683 501 l 257
 736 501 l 257
 601 0 l 257
 538 0 l 257
 410 391 l 257
 388 458 l 257
 366 391 l 257
 229 0 l 257
 167 0 l 257
EndSplineSet
EndChar

StartChar: x
Encoding: 120 120 475
Width: 543
VWidth: 0
Flags: HW
PickledData: "(dp1
S'org.robofab.postScriptHintData'
p2
(dp3
sS'com.typemytype.robofont.layerData'
p4
(dp5
S'b'
(dp6
S'name'
p7
S'x'
sS'lib'
p8
(dp9
sS'unicodes'
p10
(tsS'width'
p11
F1062.8499999999999
sS'contours'
p12
(tsS'components'
p13
(tsS'anchors'
p14
(tsss."
LayerCount: 2
Fore
SplineSet
28 0 m 257
 245 257 l 257
 44 503 l 257
 99 501 l 257
 271 284 l 257
 449 501 l 257
 505 501 l 257
 300 250 l 257
 514 0 l 257
 461 0 l 257
 273 225 l 257
 83 0 l 257
 28 0 l 257
EndSplineSet
EndChar

StartChar: y
Encoding: 121 121 476
Width: 479
VWidth: 0
Flags: HW
PickledData: "(dp1
S'org.robofab.postScriptHintData'
p2
(dp3
sS'com.typemytype.robofont.layerData'
p4
(dp5
S'b'
(dp6
S'name'
p7
S'y'
sS'lib'
p8
(dp9
sS'unicodes'
p10
(tsS'width'
p11
F1065.05
sS'contours'
p12
(tsS'components'
p13
(tsS'anchors'
p14
(tsss."
AnchorPoint: "top" 254 501 basechar 0
LayerCount: 2
Fore
SplineSet
77 -204 m 257
 61 -168 l 257
 164 -141 195 -82 213 -39 c 258
 225 -10 l 257
 30 501 l 257
 82 501 l 257
 249 47 l 257
 421 501 l 257
 468 501 l 257
 267 -25 l 258
 241 -97 189 -183 77 -204 c 257
EndSplineSet
EndChar

StartChar: yen
Encoding: 165 165 480
Width: 558
VWidth: 0
Flags: HW
PickledData: "(dp1
S'org.robofab.postScriptHintData'
p2
(dp3
sS'com.typemytype.robofont.layerData'
p4
(dp5
S'b'
(dp6
S'name'
p7
S'yen'
p8
sS'lib'
p9
(dp10
sS'unicodes'
p11
(tsS'width'
p12
F1225.45
sS'contours'
p13
(tsS'components'
p14
(tsS'anchors'
p15
(tsss."
LayerCount: 2
Fore
SplineSet
251 0 m 257
 304 0 l 257
 304 170 l 257
 438 170 l 257
 438 203 l 257
 304 203 l 257
 304 260 l 257
 439 260 l 257
 439 292 l 257
 305 292 l 257
 542 711 l 257
 490 711 l 257
 278 333 l 257
 70 711 l 257
 17 711 l 257
 249 292 l 257
 113 292 l 257
 113 260 l 257
 251 260 l 257
 251 203 l 257
 113 203 l 257
 113 170 l 257
 251 170 l 257
 251 0 l 257
EndSplineSet
EndChar

StartChar: z
Encoding: 122 122 484
Width: 456
VWidth: 0
Flags: HW
PickledData: "(dp1
S'org.robofab.postScriptHintData'
p2
(dp3
sS'com.typemytype.robofont.layerData'
p4
(dp5
S'b'
(dp6
S'name'
p7
S'z'
sS'lib'
p8
(dp9
sS'unicodes'
p10
(tsS'width'
p11
F971.85000000000002
sS'contours'
p12
(tsS'components'
p13
(tsS'anchors'
p14
(tsss."
AnchorPoint: "top" 225 501 basechar 0
LayerCount: 2
Fore
SplineSet
44 0 m 257
 44 29 l 257
 356 461 l 257
 56 461 l 257
 56 501 l 257
 417 501 l 257
 417 473 l 257
 107 40 l 257
 412 40 l 257
 412 0 l 257
 44 0 l 257
EndSplineSet
EndChar

StartChar: zero
Encoding: 48 48 488
Width: 574
VWidth: 0
Flags: HW
PickledData: "(dp1
S'org.robofab.postScriptHintData'
p2
(dp3
s."
LayerCount: 2
Fore
SplineSet
292 -11 m 256
 141 -11 61 115 61 353 c 256
 61 596 141 724 292 724 c 256
 438 724 514 596 514 353 c 256
 514 115 438 -11 292 -11 c 256
292 31 m 256
 402 31 460 143 460 353 c 256
 460 569 402 682 292 682 c 256
 176 682 114 569 114 353 c 256
 114 143 176 31 292 31 c 256
EndSplineSet
EndChar

StartChar: mu
Encoding: 181 181 489
Width: 627
VWidth: 0
Flags: HW
AnchorPoint: "top" 318 501 basechar 0
LayerCount: 2
Fore
SplineSet
145 -162 m 257
 97 -160 l 257
 97 501 l 257
 145 501 l 257
 145 199 l 258
 145 87 191 27 285 27 c 256
 410 27 475 127 475 173 c 258
 475 501 l 257
 522 501 l 257
 522 110 l 258
 522 55 524 26 525 0 c 257
 481 0 l 257
 477 93 l 257
 435 27 371 -13 285 -13 c 256
 223 -13 176 5 145 41 c 257
 145 -162 l 257
EndSplineSet
EndChar

StartChar: uni0358
Encoding: 856 856 494
Width: 255
VWidth: 0
Flags: HW
AnchorPoint: "top" 129 501 mark 0
LayerCount: 2
Fore
SplineSet
90 608 m 257
 89 688 l 257
 166 688 l 257
 167 608 l 257
 90 608 l 257
EndSplineSet
EndChar

StartChar: emptyset
Encoding: 8709 8709 495
Width: 819
VWidth: 0
Flags: HW
LayerCount: 2
Fore
SplineSet
55 358 m 256
 55 562 224 719 406 719 c 256
 491 719 574 685 637 628 c 257
 723 725 l 257
 741 711 l 257
 653 612 l 257
 716 548 758 459 758 358 c 256
 758 154 588 -3 406 -3 c 256
 323 -3 243 29 180 84 c 257
 86 -21 l 257
 71 -7 l 257
 165 99 l 257
 99 164 55 255 55 358 c 256
194 100 m 257
 253 49 328 18 406 18 c 256
 577 18 737 167 737 358 c 256
 737 452 699 536 639 597 c 257
 194 100 l 257
179 114 m 257
 623 612 l 257
 563 666 486 698 406 698 c 256
 235 698 76 549 76 358 c 256
 76 261 117 175 179 114 c 257
EndSplineSet
EndChar

StartChar: Sigma
Encoding: 931 931 496
Width: 538
VWidth: 0
Flags: HW
LayerCount: 2
Fore
SplineSet
50 -48 m 257
 50 -24 l 257
 300 339 l 257
 59 680 l 257
 59 709 l 257
 498 709 l 257
 498 673 l 257
 123 673 l 257
 350 345 l 257
 103 -13 l 257
 518 -13 l 257
 518 -48 l 257
 50 -48 l 257
EndSplineSet
EndChar

StartChar: uni03BC
Encoding: 956 956 497
Width: 574
VWidth: 0
Flags: HW
LayerCount: 2
Fore
SplineSet
82 -161 m 257
 141 -161 l 257
 141 30 l 257
 172 3 214 -10 267 -10 c 256
 349 -10 397 16 433 69 c 257
 438 0 l 257
 489 0 l 257
 489 528 l 257
 430 528 l 257
 430 117 l 257
 405 79 361 35 270 35 c 256
 178 35 141 94 141 187 c 258
 141 528 l 257
 82 528 l 257
 82 -161 l 257
EndSplineSet
EndChar

StartChar: uni02C9
Encoding: 713 713 498
Width: 292
VWidth: 0
Flags: HW
AnchorPoint: "top" 154 516 mark 0
LayerCount: 2
Fore
SplineSet
12 633 m 257
 280 633 l 257
 280 683 l 257
 12 683 l 257
 12 633 l 257
EndSplineSet
EndChar
